{
DisplayStrings = (
123456789
);
copyright = "Copyright (c) 1997-2016 Pushpananda Ekanayake (http://isiwara.lk), Copyright (c) 2016 mooniak (http://mooniak.com), 2016 Sol Matas (sol@sonnenshine.com.ar)\012";
customParameters = (
{
name = license;
value = "This Font Software is licensed under the SIL Open Font License, Version 1.1. This license is available with a FAQ at: http://scripts.sil.org/OFL";
},
{
name = vendorID;
value = PfEd;
},
{
name = glyphOrder;
value = (
    ".notdef",
    uni0020,
    anusvara,
    visarga,
    "si_A",
    "si_Aa",
    "si_Ae",
    "si_Aae",
    "si_I",
    "si_Ii",
    "si_U",
    "si_Uu",
    "si_vocalicR",
    "si_vocalicRr",
    "si_vocalicLL",
    "si_E",
    "si_Ee",
    "si_Ai",
    "si_Os",
    "si_Oo",
    "si_Au",
    "si_Ka",
    "si_Kha",
    "si_Ga",
    "si_Gha",
    "si_Nga",
    "si_Nnga",
    "si_Ca",
    "si_Cha",
    "si_Ja",
    "si_Jha",
    "si_Nya",
    "si_Jnya",
    "si_Ndja",
    "si_Tta",
    "si_Ttha",
    "si_Dda",
    "si_Ddha",
    "si_Nna",
    "si_Nndda",
    "si_Ta",
    "si_Tha",
    "si_Da",
    "si_Dha",
    "si_Na",
    "si_Nda",
    "si_Pa",
    "si_Pha",
    "si_Ba",
    "si_Bha",
    "si_Ma",
    "si_Mba",
    "si_Ya",
    "si_Ra",
    "si_La",
    "si_Va",
    "si_Sha",
    "si_Ssa",
    "si_Sa",
    "si_Ha",
    "si_Lla",
    "si_Fa",
    "si_Halant",
    "si_MatraAa",
    "si_MatraAe",
    "si_MatraAae",
    "si_MatraI",
    "si_MatraIi",
    "si_MatraU",
    "si_MatraUu",
    "si_MatraR",
    "si_MatraE",
    "si_MatraEe",
    "si_MatraAi",
    "si_MatraO",
    "si_MatraOo",
    "si_MatraAu",
    "si_MatraLs",
    "si_MatraLl",
    "si_MatraRr",
    "si_kundaliya",
    zwnj,
    zwj,
    dottedcircle,
    "si_MatraAa.halant",
    "si_MatraU.alt",
    "si_MatraUu.alt",
    "si_Reph",
    "si_Rakar",
    "si_K.halant",
    "si_KI",
    "si_KIi",
    "si_KU",
    "si_KUu",
    "si_Ka.reph",
    "si_KU.reph",
    "si_KRa",
    "si_KRI",
    "si_KRIi",
    "si_Kh.halant",
    "si_KhI",

glyphs = (
{
color = 3;
glyphname = A;
lastChange = "2016-01-15 18:16:33 +0000";
layers = (
{
anchors = (
{
name = ogonek;
position = "{495, 0}";
},
{
name = top;
position = "{270, 615}";
}
);
background = {
paths = (
{
closed = 1;
nodes = (
"92 180 LINE",
"417 180 LINE",
"407 220 LINE",
"102 220 LINE"
);
},
{
closed = 1;
nodes = (
"205 635 OFFCURVE",
"198 621 OFFCURVE",
"178 554 CURVE SMOOTH",
"15 0 LINE",
"59 0 LINE",
"228 588 LINE SMOOTH",
"229 592 OFFCURVE",
"231 595 OFFCURVE",
"236 595 CURVE SMOOTH",
"294 595 LINE",
"448 0 LINE",
"494 0 LINE",
"327 635 LINE",
"273 635 LINE SMOOTH"
);
}
);
};
layerId = "15B61E68-7076-43EF-9E3D-3B783472E8B2";
name = "Light SemiExtended";
paths = (
{
closed = 1;
nodes = (
"495 0 LINE",
"328 635 LINE",
"273 635 LINE SMOOTH",
"205 635 OFFCURVE",
"198 621 OFFCURVE",
"178 554 CURVE SMOOTH",
"15 0 LINE",
"59 0 LINE",
"113 190 LINE",
"100 180 LINE",
"411 180 LINE",
"399 190 LINE",
"448 0 LINE"
);
},
{
closed = 1;
nodes = (
"228 588 LINE SMOOTH",
"229 592 OFFCURVE",
"231 595 OFFCURVE",
"236 595 CURVE SMOOTH",
"294 595 LINE",
"393 210 LINE",
"401 220 LINE",
"112 220 LINE",
"119 210 LINE"
);
}
);
width = 509;
},
{
anchors = (
{
name = ogonek;
position = "{552, 0}";
},
{
name = top;
position = "{286, 625}";
}
);
layerId = "522BF62C-3FFD-47FE-9DEE-94F66EB24849";
name = "Bold SemiExtended";
paths = (
{
closed = 1;
nodes = (
"552 0 LINE",
"418 635 LINE",
"279 640 LINE SMOOTH",
"187 643 OFFCURVE",
"160 614 OFFCURVE",
"137 520 CURVE SMOOTH",
"7 0 LINE",
"145 0 LINE",
"179 151 LINE",
"167 141 LINE",
"387 141 LINE",
"375 151 LINE",
"405 0 LINE"
);
},
{
closed = 1;
nodes = (
"258 494 LINE SMOOTH",
"260 504 OFFCURVE",
"262 508 OFFCURVE",
"272 508 CURVE SMOOTH",
"305 508 LINE",
"354 258 LINE",
"362 268 LINE",
"196 268 LINE",
"204 258 LINE"
);
}
);
width = 557;
}
);
unicode = 0041;
},
{
color = 3;
glyphname = AE;
lastChange = "2016-01-15 18:16:33 +0000";
layers = (
{
background = {
paths = (
{
closed = 1;
nodes = (
"127 200 LINE",
"387 200 LINE",
"387 240 LINE",
"137 240 LINE"
);
},
{
closed = 1;
nodes = (
"708 635 LINE",
"708 595 LINE",
"416 595 LINE",
"426 605 LINE",
"426 329 LINE",
"416 340 LINE",
"692 340 LINE",
"692 300 LINE",
"416 300 LINE",
"426 310 LINE",
"426 30 LINE",
"416 40 LINE",
"713 40 LINE",
"713 0 LINE",
"380 0 LINE",
"380 605 LINE",
"390 595 LINE",
"316 595 LINE SMOOTH",
"311 595 OFFCURVE",
"309 593 OFFCURVE",
"307 588 CURVE SMOOTH",
"51 0 LINE",
"5 0 LINE",
"249 554 LINE SMOOTH",
"278 620 OFFCURVE",
"283 635 OFFCURVE",
"351 635 CURVE"
);
}
);
};
layerId = "15B61E68-7076-43EF-9E3D-3B783472E8B2";
name = "Light SemiExtended";
paths = (
{
closed = 1;
nodes = (
"51 0 LINE",
"142 210 LINE",
"128 200 LINE",
"390 200 LINE",
"380 210 LINE",
"380 0 LINE",
"713 0 LINE",
"713 40 LINE",
"416 40 LINE",
"426 30 LINE",
"426 310 LINE",
"416 300 LINE",
"692 300 LINE",
"692 340 LINE",
"416 340 LINE",
"426 329 LINE",
"426 605 LINE",
"416 595 LINE",
"708 595 LINE",
"708 635 LINE",
"350 635 LINE SMOOTH",
"282 635 OFFCURVE",
"277 620 OFFCURVE",
"248 554 CURVE SMOOTH",
"4 0 LINE"
);
},
{
closed = 1;
nodes = (
"307 588 LINE SMOOTH",
"309 593 OFFCURVE",
"311 595 OFFCURVE",
"316 595 CURVE SMOOTH",
"390 595 LINE",
"380 605 LINE",
"380 230 LINE",
"390 240 LINE",
"145 240 LINE",
"151 230 LINE"
);
}
);
width = 753;
},
{
layerId = "522BF62C-3FFD-47FE-9DEE-94F66EB24849";
name = "Bold SemiExtended";
paths = (
{
closed = 1;
nodes = (
"145 0 LINE",
"216 176 LINE",
"188 157 LINE",
"419 157 LINE",
"399 177 LINE",
"399 0 LINE",
"788 0 LINE",
"788 129 LINE",
"527 129 LINE",
"547 109 LINE",
"547 276 LINE",
"527 256 LINE",
"763 256 LINE",
"763 383 LINE",
"527 383 LINE",
"547 363 LINE",
"547 526 LINE",
"527 506 LINE",
"783 506 LINE",
"783 635 LINE",
"360 637 LINE SMOOTH",
"268 637 OFFCURVE",
"254 608 OFFCURVE",
"218 520 CURVE SMOOTH",
"2 0 LINE"
);
},
{
closed = 1;
nodes = (
"344 493 LINE SMOOTH",
"348 503 OFFCURVE",
"348 507 OFFCURVE",
"358 507 CURVE SMOOTH",
"419 507 LINE",
"399 527 LINE",
"399 264 LINE",
"419 284 LINE",
"237 284 LINE",
"251 264 LINE"
);
}
);
width = 818;
}
);
unicode = 00C6;
},
{
color = 3;
glyphname = B;
lastChange = "2016-01-15 18:16:33 +0000";
layers = (
{
background = {
paths = (
{
closed = 1;
nodes = (
"510 329 LINE",
"523 342 LINE",
"128 342 LINE",
"141 329 LINE",
"141 635 LINE",
"95 635 LINE",
"95 0 LINE",
"141 0 LINE",
"141 314 LINE",
"128 302 LINE",
"523 302 LINE",
"510 314 LINE",
"510 0 LINE",
"556 0 LINE",
"556 635 LINE",
"510 635 LINE"
);
}
);
};
layerId = "15B61E68-7076-43EF-9E3D-3B783472E8B2";
name = "Light SemiExtended";
paths = (
{
closed = 1;
nodes = (
"415 -4 OFFCURVE",
"455 33 OFFCURVE",
"455 103 CURVE SMOOTH",
"455 241 LINE SMOOTH",
"455 316 OFFCURVE",
"420 335 OFFCURVE",
"345 334 CURVE",
"325 314 LINE",
"400 314 OFFCURVE",
"440 337 OFFCURVE",
"440 407 CURVE SMOOTH",
"440 535 LINE SMOOTH",
"440 610 OFFCURVE",
"405 639 OFFCURVE",
"330 638 CURVE SMOOTH",
"75 635 LINE",
"75 0 LINE",
"340 -3 LINE SMOOTH"
);
},
{
closed = 1;
nodes = (
"121 316 LINE",
"110 304 LINE",
"394 304 LINE SMOOTH",
"402 304 OFFCURVE",
"406 300 OFFCURVE",
"406 292 CURVE SMOOTH",
"406 52 LINE SMOOTH",
"406 44 OFFCURVE",
"401 40 OFFCURVE",
"394 40 CURVE SMOOTH",
"108 40 LINE",
"121 27 LINE"
);
},
{
closed = 1;
nodes = (
"121 610 LINE",
"111 598 LINE",
"379 598 LINE SMOOTH",
"387 598 OFFCURVE",
"391 594 OFFCURVE",
"391 586 CURVE SMOOTH",
"391 356 LINE SMOOTH",
"391 348 OFFCURVE",
"386 344 OFFCURVE",
"379 344 CURVE SMOOTH",
"110 344 LINE",
"121 331 LINE"
);
}
);
width = 525;
},
{
layerId = "522BF62C-3FFD-47FE-9DEE-94F66EB24849";
name = "Bold SemiExtended";
paths = (
{
closed = 1;
nodes = (
"469 -7 OFFCURVE",
"534 55 OFFCURVE",
"534 160 CURVE SMOOTH",
"534 198 LINE SMOOTH",
"534 298 OFFCURVE",
"468 343 OFFCURVE",
"334 343 CURVE",
"334 296 LINE",
"454 296 OFFCURVE",
"519 341 OFFCURVE",
"519 436 CURVE SMOOTH",
"519 475 LINE SMOOTH",
"519 580 OFFCURVE",
"454 642 OFFCURVE",
"334 640 CURVE SMOOTH",
"65 635 LINE",
"65 0 LINE",
"349 -5 LINE SMOOTH"
);
},
{
closed = 1;
nodes = (
"213 285 LINE",
"193 262 LINE",
"370 262 LINE SMOOTH",
"379 262 OFFCURVE",
"384 258 OFFCURVE",
"384 248 CURVE SMOOTH",
"384 135 LINE SMOOTH",
"384 125 OFFCURVE",
"379 121 OFFCURVE",
"370 121 CURVE SMOOTH",
"193 121 LINE",
"213 104 LINE"
);
},
{
closed = 1;
nodes = (
"213 538 LINE",
"193 514 LINE",
"355 514 LINE SMOOTH",
"364 514 OFFCURVE",
"369 510 OFFCURVE",
"369 500 CURVE SMOOTH",
"369 396 LINE SMOOTH",
"369 386 OFFCURVE",
"364 382 OFFCURVE",
"355 382 CURVE SMOOTH",
"193 382 LINE",
"213 362 LINE"
);
}
);
width = 584;
}
);
unicode = 0042;
},
{
color = 3;
glyphname = C;
lastChange = "2016-01-15 18:16:33 +0000";
layers = (
{
anchors = (
{
name = bottom;
position = "{244, 0}";
},
{
name = top;
position = "{254, 615}";
}
);
background = {
paths = (
{
closed = 1;
nodes = (
"414 598 LINE SMOOTH",
"418 598 OFFCURVE",
"421 596 OFFCURVE",
"421 591 CURVE SMOOTH",
"421 44 LINE SMOOTH",
"421 39 OFFCURVE",
"418 37 OFFCURVE",
"414 37 CURVE SMOOTH",
"121 37 LINE SMOOTH",
"117 37 OFFCURVE",
"114 39 OFFCURVE",
"114 44 CURVE SMOOTH",
"114 591 LINE SMOOTH",
"114 596 OFFCURVE",
"117 598 OFFCURVE",
"121 598 CURVE SMOOTH"
);
},
{
closed = 1;
nodes = (
"65 85 LINE SMOOTH",
"65 15 OFFCURVE",
"95 -5 OFFCURVE",
"165 -5 CURVE SMOOTH",
"370 -5 LINE SMOOTH",
"440 -5 OFFCURVE",
"470 15 OFFCURVE",
"470 85 CURVE SMOOTH",
"470 550 LINE SMOOTH",
"470 620 OFFCURVE",
"440 640 OFFCURVE",
"370 640 CURVE SMOOTH",
"165 640 LINE SMOOTH",
"95 640 OFFCURVE",
"65 620 OFFCURVE",
"65 550 CURVE SMOOTH"
);
}
);
};
guideLines = (
{
angle = 90;
position = "{463, 389}";
}
);
layerId = "15B61E68-7076-43EF-9E3D-3B783472E8B2";
name = "Light SemiExtended";
paths = (
{
closed = 1;
nodes = (
"397 42 LINE",
"121 42 LINE SMOOTH",
"117 42 OFFCURVE",
"114 44 OFFCURVE",
"114 49 CURVE SMOOTH",
"114 586 LINE SMOOTH",
"114 591 OFFCURVE",
"117 593 OFFCURVE",
"121 593 CURVE SMOOTH",
"397 593 LINE",
"397 635 LINE",
"165 635 LINE SMOOTH",
"95 635 OFFCURVE",
"65 615 OFFCURVE",
"65 545 CURVE SMOOTH",
"65 90 LINE SMOOTH",
"65 20 OFFCURVE",
"95 0 OFFCURVE",
"165 0 CURVE SMOOTH",
"397 0 LINE"
);
}
);
width = 422;
},
{
anchors = (
{
name = bottom;
position = "{286, 0}";
},
{
name = top;
position = "{256, 625}";
}
);
layerId = "522BF62C-3FFD-47FE-9DEE-94F66EB24849";
name = "Bold SemiExtended";
paths = (
{
closed = 1;
nodes = (
"435 133 LINE",
"217 133 LINE SMOOTH",
"208 133 OFFCURVE",
"203 137 OFFCURVE",
"203 147 CURVE SMOOTH",
"203 488 LINE SMOOTH",
"203 498 OFFCURVE",
"208 502 OFFCURVE",
"217 502 CURVE SMOOTH",
"435 502 LINE",
"435 635 LINE",
"233 635 LINE SMOOTH",
"113 635 OFFCURVE",
"53 580 OFFCURVE",
"53 475 CURVE SMOOTH",
"53 160 LINE SMOOTH",
"53 55 OFFCURVE",
"113 0 OFFCURVE",
"233 0 CURVE SMOOTH",
"435 0 LINE"
);
}
);
width = 447;
}
);
unicode = 0043;
},
{
color = 3;
glyphname = D;
lastChange = "2016-01-15 18:16:33 +0000";
layers = (
{
anchors = (
{
name = center;
position = "{260, 318}";
},
{
name = top;
position = "{260, 615}";
}
);
background = {
paths = (
{
closed = 1;
nodes = (
"399 598 LINE SMOOTH",
"403 598 OFFCURVE",
"406 596 OFFCURVE",
"406 591 CURVE SMOOTH",
"406 44 LINE SMOOTH",
"406 39 OFFCURVE",
"403 37 OFFCURVE",
"399 37 CURVE SMOOTH",
"106 37 LINE SMOOTH",
"102 37 OFFCURVE",
"99 39 OFFCURVE",
"99 44 CURVE SMOOTH",
"99 591 LINE SMOOTH",
"99 596 OFFCURVE",
"102 598 OFFCURVE",
"106 598 CURVE SMOOTH"
);
},
{
closed = 1;
nodes = (
"50 85 LINE SMOOTH",
"50 15 OFFCURVE",
"80 -5 OFFCURVE",
"150 -5 CURVE SMOOTH",
"355 -5 LINE SMOOTH",
"425 -5 OFFCURVE",
"455 15 OFFCURVE",
"455 85 CURVE SMOOTH",
"455 550 LINE SMOOTH",
"455 620 OFFCURVE",
"425 640 OFFCURVE",
"355 640 CURVE SMOOTH",
"150 640 LINE SMOOTH",
"80 640 OFFCURVE",
"50 620 OFFCURVE",
"50 550 CURVE SMOOTH"
);
}
);
};
layerId = "15B61E68-7076-43EF-9E3D-3B783472E8B2";
name = "Light SemiExtended";
paths = (
{
closed = 1;
nodes = (
"394 598 LINE SMOOTH",
"402 598 OFFCURVE",
"406 594 OFFCURVE",
"406 586 CURVE SMOOTH",
"406 49 LINE SMOOTH",
"406 41 OFFCURVE",
"401 37 OFFCURVE",
"394 37 CURVE SMOOTH",
"121 37 LINE",
"121 598 LINE"
);
},
{
closed = 1;
nodes = (
"75 -1 LINE",
"340 -5 LINE SMOOTH",
"415 -6 OFFCURVE",
"455 25 OFFCURVE",
"455 100 CURVE SMOOTH",
"455 535 LINE SMOOTH",
"455 610 OFFCURVE",
"420 641 OFFCURVE",
"345 640 CURVE SMOOTH",
"75 635 LINE"
);
}
);
width = 520;
},
{
anchors = (
{
name = center;
position = "{295, 318}";
},
{
name = top;
position = "{285, 625}";
}
);
layerId = "522BF62C-3FFD-47FE-9DEE-94F66EB24849";
name = "Bold SemiExtended";
paths = (
{
closed = 1;
nodes = (
"370 512 LINE SMOOTH",
"379 512 OFFCURVE",
"384 508 OFFCURVE",
"384 498 CURVE SMOOTH",
"384 137 LINE SMOOTH",
"384 127 OFFCURVE",
"379 123 OFFCURVE",
"370 123 CURVE SMOOTH",
"213 123 LINE",
"213 512 LINE"
);
},
{
closed = 1;
nodes = (
"65 0 LINE",
"349 -5 LINE SMOOTH",
"474 -7 OFFCURVE",
"534 45 OFFCURVE",
"534 160 CURVE SMOOTH",
"534 475 LINE SMOOTH",
"534 590 OFFCURVE",
"474 642 OFFCURVE",
"349 640 CURVE SMOOTH",
"65 635 LINE"
);
}
);
width = 589;
}
);
unicode = 0044;
},
{
color = 3;
glyphname = E;
lastChange = "2016-01-15 18:16:33 +0000";
layers = (
{
anchors = (
{
name = bottom;
position = "{224, 0}";
},
{
name = ogonek;
position = "{413, 0}";
},
{
name = top;
position = "{250, 615}";
}
);
background = {
paths = (
{
closed = 1;
nodes = (
"415 388 LINE",
"159 388 LINE",
"179 368 LINE",
"179 635 LINE",
"31 635 LINE",
"31 0 LINE",
"179 0 LINE",
"179 279 LINE",
"159 259 LINE",
"415 259 LINE"
);
},
{
closed = 1;
nodes = (
"115 0 LINE",
"440 0 LINE",
"440 129 LINE",
"115 129 LINE"
);
},
{
closed = 1;
nodes = (
"115 506 LINE",
"435 506 LINE",
"435 635 LINE",
"115 635 LINE"
);
}
);
};
layerId = "15B61E68-7076-43EF-9E3D-3B783472E8B2";
name = "Light SemiExtended";
paths = (
{
closed = 1;
nodes = (
"413 0 LINE",
"413 40 LINE",
"111 40 LINE",
"121 30 LINE",
"121 314 LINE",
"111 304 LINE",
"392 304 LINE",
"392 344 LINE",
"111 344 LINE",
"121 334 LINE",
"121 605 LINE",
"111 595 LINE",
"408 595 LINE",
"408 635 LINE",
"75 635 LINE",
"75 0 LINE"
);
}
);
width = 448;
},
{
anchors = (
{
name = bottom;
position = "{242, 0}";
},
{
name = ogonek;
position = "{454, 0}";
},
{
name = top;
position = "{254, 625}";
}
);
layerId = "522BF62C-3FFD-47FE-9DEE-94F66EB24849";
name = "Bold SemiExtended";
paths = (
{
closed = 1;
nodes = (
"454 0 LINE",
"454 129 LINE",
"193 129 LINE",
"213 109 LINE",
"213 278 LINE",
"193 258 LINE",
"429 258 LINE",
"429 385 LINE",
"193 385 LINE",
"213 365 LINE",
"213 526 LINE",
"193 506 LINE",
"449 506 LINE",
"449 635 LINE",
"65 635 LINE",
"65 0 LINE"
);
}
);
width = 484;
}
);
unicode = 0045;
},
{
color = 3;
glyphname = F;
lastChange = "2016-01-15 18:16:33 +0000";
layers = (
{
background = {
paths = (
{
closed = 1;
nodes = (
"437 344 LINE",
"108 344 LINE",
"121 331 LINE",
"121 635 LINE",
"75 635 LINE",
"75 0 LINE",
"121 0 LINE",
"121 316 LINE",
"108 304 LINE",
"437 304 LINE"
);
},
{
closed = 1;
nodes = (
"113 0 LINE",
"458 0 LINE",
"458 40 LINE",
"113 40 LINE"
);
},
{
closed = 1;
nodes = (
"113 595 LINE",
"453 595 LINE",
"453 635 LINE",
"113 635 LINE"
);
}
);
};
layerId = "15B61E68-7076-43EF-9E3D-3B783472E8B2";
name = "Light SemiExtended";
paths = (
{
closed = 1;
nodes = (
"386 334 LINE",
"108 334 LINE",
"121 321 LINE",
"121 635 LINE",
"75 635 LINE",
"75 0 LINE",
"121 0 LINE",
"121 306 LINE",
"108 294 LINE",
"386 294 LINE"
);
},
{
closed = 1;
nodes = (
"113 595 LINE",
"402 595 LINE",
"402 635 LINE",
"113 635 LINE"
);
}
);
width = 432;
},
{
layerId = "522BF62C-3FFD-47FE-9DEE-94F66EB24849";
name = "Bold SemiExtended";
paths = (
{
closed = 1;
nodes = (
"419 376 LINE",
"193 376 LINE",
"213 356 LINE",
"213 635 LINE",
"65 635 LINE",
"65 0 LINE",
"213 0 LINE",
"213 269 LINE",
"193 249 LINE",
"419 249 LINE"
);
},
{
closed = 1;
nodes = (
"149 506 LINE",
"439 506 LINE",
"439 635 LINE",
"149 635 LINE"
);
}
);
width = 449;
}
);
unicode = 0046;
},
{
color = 3;
glyphname = G;
lastChange = "2016-01-15 18:16:33 +0000";
layers = (
{
anchors = (
{
name = bottom;
position = "{258, 0}";
},
{
name = top;
position = "{269, 615}";
}
);
background = {
paths = (
{
closed = 1;
nodes = (
"470 550 LINE",
"470 620 OFFCURVE",
"440 640 OFFCURVE",
"370 640 CURVE SMOOTH",
"165 640 LINE SMOOTH",
"95 640 OFFCURVE",
"65 620 OFFCURVE",
"65 550 CURVE SMOOTH",
"65 85 LINE SMOOTH",
"65 15 OFFCURVE",
"95 -5 OFFCURVE",
"165 -5 CURVE SMOOTH",
"370 -5 LINE SMOOTH",
"440 -5 OFFCURVE",
"470 15 OFFCURVE",
"470 85 CURVE SMOOTH",
"470 289 LINE",
"271 289 LINE",
"271 249 LINE",
"430 249 LINE",
"421 257 LINE",
"421 44 LINE SMOOTH",
"421 39 OFFCURVE",
"418 37 OFFCURVE",
"414 37 CURVE SMOOTH",
"121 37 LINE SMOOTH",
"117 37 OFFCURVE",
"114 39 OFFCURVE",
"114 44 CURVE SMOOTH",
"114 591 LINE SMOOTH",
"114 596 OFFCURVE",
"117 598 OFFCURVE",
"121 598 CURVE SMOOTH",
"414 598 LINE SMOOTH",
"418 598 OFFCURVE",
"421 596 OFFCURVE",
"421 591 CURVE SMOOTH",
"421 545 LINE",
"470 545 LINE"
);
}
);
};
layerId = "15B61E68-7076-43EF-9E3D-3B783472E8B2";
name = "Light SemiExtended";
paths = (
{
closed = 1;
nodes = (
"360 -5 LINE SMOOTH",
"430 -5 OFFCURVE",
"460 15 OFFCURVE",
"460 85 CURVE SMOOTH",
"460 320 LINE",
"276 320 LINE",
"276 280 LINE",
"420 280 LINE",
"411 288 LINE",
"411 44 LINE SMOOTH",
"411 39 OFFCURVE",
"408 37 OFFCURVE",
"404 37 CURVE SMOOTH",
"121 37 LINE SMOOTH",
"117 37 OFFCURVE",
"114 39 OFFCURVE",
"114 44 CURVE SMOOTH",
"114 591 LINE SMOOTH",
"114 596 OFFCURVE",
"117 598 OFFCURVE",
"121 598 CURVE SMOOTH",
"450 598 LINE",
"450 640 LINE",
"165 640 LINE SMOOTH",
"95 640 OFFCURVE",
"65 620 OFFCURVE",
"65 550 CURVE SMOOTH",
"65 85 LINE SMOOTH",
"65 15 OFFCURVE",
"95 -5 OFFCURVE",
"165 -5 CURVE SMOOTH"
);
}
);
width = 515;
},
{
anchors = (
{
name = bottom;
position = "{278, 0}";
},
{
name = top;
position = "{289, 625}";
}
);
layerId = "522BF62C-3FFD-47FE-9DEE-94F66EB24849";
name = "Bold SemiExtended";
paths = (
{
closed = 1;
nodes = (
"330 -10 LINE SMOOTH",
"450 -10 OFFCURVE",
"510 45 OFFCURVE",
"510 150 CURVE SMOOTH",
"510 358 LINE",
"300 358 LINE",
"300 235 LINE",
"383 235 LINE",
"370 258 LINE",
"370 137 LINE SMOOTH",
"370 127 OFFCURVE",
"365 123 OFFCURVE",
"356 123 CURVE SMOOTH",
"219 123 LINE SMOOTH",
"210 123 OFFCURVE",
"205 127 OFFCURVE",
"205 137 CURVE SMOOTH",
"205 498 LINE SMOOTH",
"205 508 OFFCURVE",
"210 512 OFFCURVE",
"219 512 CURVE SMOOTH",
"497 512 LINE",
"497 645 LINE",
"235 645 LINE SMOOTH",
"115 645 OFFCURVE",
"55 590 OFFCURVE",
"55 485 CURVE SMOOTH",
"55 150 LINE SMOOTH",
"55 45 OFFCURVE",
"115 -10 OFFCURVE",
"235 -10 CURVE SMOOTH"
);
}
);
width = 555;
}
);
unicode = 0047;
},
{
color = 3;
glyphname = H;
lastChange = "2016-01-15 18:16:33 +0000";
layers = (
{
background = {
paths = (
{
closed = 1;
nodes = (
"532 319 LINE",
"545 329 LINE",
"85 329 LINE",
"98 319 LINE",
"98 635 LINE",
"56 635 LINE",
"56 0 LINE",
"98 0 LINE",
"98 304 LINE",
"85 294 LINE",
"545 294 LINE",
"532 304 LINE",
"532 0 LINE",
"574 0 LINE",
"574 635 LINE",
"532 635 LINE"
);
}
);
};
guideLines = (
{
position = "{317, 342}";
}
);
layerId = "15B61E68-7076-43EF-9E3D-3B783472E8B2";
name = "Light SemiExtended";
paths = (
{
closed = 1;
nodes = (
"434 329 LINE",
"447 342 LINE",
"108 342 LINE",
"121 329 LINE",
"121 635 LINE",
"75 635 LINE",
"75 0 LINE",
"121 0 LINE",
"121 314 LINE",
"108 302 LINE",
"447 302 LINE",
"434 314 LINE",
"434 0 LINE",
"480 0 LINE",
"480 635 LINE",
"434 635 LINE"
);
}
);
width = 555;
},
{
guideLines = (
{
position = "{317, 387}";
}
);
layerId = "522BF62C-3FFD-47FE-9DEE-94F66EB24849";
name = "Bold SemiExtended";
paths = (
{
closed = 1;
nodes = (
"402 367 LINE",
"422 387 LINE",
"193 387 LINE",
"213 367 LINE",
"213 635 LINE",
"65 635 LINE",
"65 0 LINE",
"213 0 LINE",
"213 278 LINE",
"193 258 LINE",
"422 258 LINE",
"402 278 LINE",
"402 0 LINE",
"550 0 LINE",
"550 635 LINE",
"402 635 LINE"
);
}
);
width = 615;
}
);
unicode = 0048;
},
{
color = 3;
glyphname = I;
lastChange = "2016-01-15 18:16:33 +0000";
layers = (
{
anchors = (
{
name = ogonek;
position = "{136, 0}";
},
{
name = top;
position = "{113, 615}";
}
);
layerId = "15B61E68-7076-43EF-9E3D-3B783472E8B2";
name = "Light SemiExtended";
paths = (
{
closed = 1;
nodes = (
"136 0 LINE",
"136 635 LINE",
"90 635 LINE",
"90 0 LINE"
);
}
);
width = 226;
},
{
anchors = (
{
name = ogonek;
position = "{223, 0}";
},
{
name = top;
position = "{149, 625}";
}
);
layerId = "522BF62C-3FFD-47FE-9DEE-94F66EB24849";
name = "Bold SemiExtended";
paths = (
{
closed = 1;
nodes = (
"223 0 LINE",
"223 635 LINE",
"75 635 LINE",
"75 0 LINE"
);
}
);
width = 298;
}
);
unicode = 0049;
},
{
color = 3;
glyphname = J;
lastChange = "2016-01-15 18:16:33 +0000";
layers = (
{
layerId = "15B61E68-7076-43EF-9E3D-3B783472E8B2";
name = "Light SemiExtended";
paths = (
{
closed = 1;
nodes = (
"170 635 LINE",
"124 635 LINE",
"124 44 LINE SMOOTH",
"124 39 OFFCURVE",
"121 37 OFFCURVE",
"117 37 CURVE SMOOTH",
"15 37 LINE",
"15 -5 LINE",
"84 -5 LINE SMOOTH",
"144 -5 OFFCURVE",
"170 11 OFFCURVE",
"170 81 CURVE SMOOTH"
);
}
);
width = 250;
},
{
layerId = "522BF62C-3FFD-47FE-9DEE-94F66EB24849";
name = "Bold SemiExtended";
paths = (
{
closed = 1;
nodes = (
"258 635 LINE",
"110 635 LINE",
"110 137 LINE SMOOTH",
"110 127 OFFCURVE",
"105 123 OFFCURVE",
"96 123 CURVE SMOOTH",
"0 123 LINE",
"0 -10 LINE",
"80 -10 LINE SMOOTH",
"200 -10 OFFCURVE",
"258 45 OFFCURVE",
"258 150 CURVE SMOOTH"
);
}
);
width = 318;
}
);
unicode = 004A;
},
{
color = 3;
glyphname = K;
lastChange = "2016-01-15 18:16:33 +0000";
layers = (
{
background = {
paths = (
{
closed = 1;
nodes = (
"126 0 LINE",
"126 635 LINE",
"80 635 LINE",
"80 0 LINE"
);
},
{
closed = 1;
nodes = (
"257 316 LINE SMOOTH",
"327 316 OFFCURVE",
"341 334 OFFCURVE",
"365 396 CURVE SMOOTH",
"458 635 LINE",
"412 635 LINE",
"301 351 LINE SMOOTH",
"299 346 OFFCURVE",
"298 344 OFFCURVE",
"294 344 CURVE SMOOTH",
"110 344 LINE",
"110 316 LINE"
);
},
{
closed = 1;
nodes = (
"303 304 LINE SMOOTH",
"307 304 OFFCURVE",
"308 302 OFFCURVE",
"310 297 CURVE SMOOTH",
"445 0 LINE",
"495 0 LINE",
"378 252 LINE SMOOTH",
"350 313 OFFCURVE",
"341 332 OFFCURVE",
"271 332 CURVE SMOOTH",
"110 332 LINE",
"110 304 LINE"
);
}
);
};
guideLines = (
{
position = "{307, 342}";
}
);
layerId = "15B61E68-7076-43EF-9E3D-3B783472E8B2";
name = "Light SemiExtended";
paths = (
{
closed = 1;
nodes = (
"126 0 LINE",
"126 635 LINE",
"80 635 LINE",
"80 0 LINE"
);
},
{
closed = 1;
nodes = (
"266 315 LINE SMOOTH",
"336 315 OFFCURVE",
"348 334 OFFCURVE",
"375 395 CURVE SMOOTH",
"483 635 LINE",
"435 635 LINE",
"308 350 LINE SMOOTH",
"306 345 OFFCURVE",
"305 343 OFFCURVE",
"301 343 CURVE SMOOTH",
"119 343 LINE",
"119 315 LINE"
);
},
{
closed = 1;
nodes = (
"300 303 LINE SMOOTH",
"304 303 OFFCURVE",
"305 301 OFFCURVE",
"307 296 CURVE SMOOTH",
"458 0 LINE",
"509 0 LINE",
"379 251 LINE SMOOTH",
"348 311 OFFCURVE",
"341 331 OFFCURVE",
"271 331 CURVE SMOOTH",
"110 331 LINE",
"110 303 LINE"
);
}
);
width = 520;
},
{
guideLines = (
{
position = "{312, 384}";
}
);
layerId = "522BF62C-3FFD-47FE-9DEE-94F66EB24849";
name = "Bold SemiExtended";
paths = (
{
closed = 1;
nodes = (
"218 0 LINE",
"218 635 LINE",
"70 635 LINE",
"70 0 LINE"
);
},
{
closed = 1;
nodes = (
"319 307 LINE SMOOTH",
"424 308 OFFCURVE",
"438 322 OFFCURVE",
"476 414 CURVE SMOOTH",
"567 635 LINE",
"420 635 LINE",
"325 398 LINE SMOOTH",
"321 388 OFFCURVE",
"320 384 OFFCURVE",
"310 384 CURVE SMOOTH",
"192 384 LINE",
"192 307 LINE"
);
},
{
closed = 1;
nodes = (
"311 255 LINE SMOOTH",
"321 255 OFFCURVE",
"322 251 OFFCURVE",
"326 241 CURVE SMOOTH",
"433 0 LINE",
"589 0 LINE",
"487 224 LINE SMOOTH",
"447 311 OFFCURVE",
"430 331 OFFCURVE",
"325 331 CURVE SMOOTH",
"192 331 LINE",
"192 255 LINE"
);
}
);
width = 589;
}
);
unicode = 004B;
},
{
color = 3;
glyphname = L;
lastChange = "2016-01-15 18:16:33 +0000";
layers = (
{
anchors = (
{
name = bottom;
position = "{193, 0}";
},
{
name = top;
position = "{103, 615}";
},
{
name = topright;
position = "{366, 615}";
}
);
background = {
paths = (
{
closed = 1;
nodes = (
"425 129 LINE",
"159 129 LINE",
"179 109 LINE",
"179 635 LINE",
"31 635 LINE",
"31 0 LINE",
"425 0 LINE"
);
}
);
};
layerId = "15B61E68-7076-43EF-9E3D-3B783472E8B2";
name = "Light SemiExtended";
paths = (
{
closed = 1;
nodes = (
"381 40 LINE",
"108 40 LINE",
"121 27 LINE",
"121 635 LINE",
"75 635 LINE",
"75 0 LINE",
"381 0 LINE"
);
}
);
width = 386;
},
{
anchors = (
{
name = bottom;
position = "{245, 0}";
},
{
name = top;
position = "{123, 625}";
},
{
name = topright;
position = "{409, 625}";
}
);
layerId = "522BF62C-3FFD-47FE-9DEE-94F66EB24849";
name = "Bold SemiExtended";
paths = (
{
closed = 1;
nodes = (
"429 129 LINE",
"193 129 LINE",
"213 109 LINE",
"213 635 LINE",
"65 635 LINE",
"65 0 LINE",
"429 0 LINE"
);
}
);
width = 434;
}
);
unicode = 004C;
},
{
color = 3;
glyphname = M;
lastChange = "2016-01-15 18:16:33 +0000";
layers = (
{
layerId = "15B61E68-7076-43EF-9E3D-3B783472E8B2";
name = "Light SemiExtended";
paths = (
{
closed = 1;
nodes = (
"543 635 OFFCURVE",
"514 635 CURVE SMOOTH",
"500 635 LINE",
"303 255 LINE",
"324 255 LINE",
"151 599 LINE SMOOTH",
"137 628 OFFCURVE",
"125 635 OFFCURVE",
"103 635 CURVE SMOOTH",
"75 635 LINE",
"75 0 LINE",
"118 0 LINE",
"118 587 LINE",
"106 587 LINE",
"298 211 LINE",
"324 211 LINE",
"527 597 LINE",
"507 597 LINE",
"507 0 LINE",
"552 0 LINE",
"552 592 LINE SMOOTH",
"552 622 OFFCURVE"
);
}
);
width = 624;
},
{
layerId = "522BF62C-3FFD-47FE-9DEE-94F66EB24849";
name = "Bold SemiExtended";
paths = (
{
closed = 1;
nodes = (
"614 635 OFFCURVE",
"549 635 CURVE SMOOTH",
"505 635 LINE",
"335 305 LINE",
"362 305 LINE",
"207 594 LINE SMOOTH",
"191 623 OFFCURVE",
"180 635 OFFCURVE",
"134 635 CURVE SMOOTH",
"55 635 LINE",
"55 0 LINE",
"185 0 LINE",
"185 437 LINE",
"165 437 LINE",
"293 181 LINE",
"381 181 LINE",
"517 447 LINE",
"497 447 LINE",
"497 0 LINE",
"639 0 LINE",
"639 550 LINE SMOOTH",
"639 610 OFFCURVE"
);
}
);
width = 694;
}
);
unicode = 004D;
},
{
color = 3;
glyphname = N;
lastChange = "2016-01-15 18:16:33 +0000";
layers = (
{
anchors = (
{
name = bottom;
position = "{278, 0}";
},
{
name = top;
position = "{279, 615}";
}
);
background = {
paths = (
{
closed = 1;
nodes = (
"429 329 LINE",
"442 342 LINE",
"108 342 LINE",
"121 329 LINE",
"121 635 LINE",
"75 635 LINE",
"75 0 LINE",
"121 0 LINE",
"121 314 LINE",
"108 302 LINE",
"442 302 LINE",
"429 314 LINE",
"429 0 LINE",
"475 0 LINE",
"475 635 LINE",
"429 635 LINE"
);
}
);
};
layerId = "15B61E68-7076-43EF-9E3D-3B783472E8B2";
name = "Light SemiExtended";
paths = (
{
closed = 1;
nodes = (
"439 59 LINE",
"456 73 LINE",
"105 635 LINE",
"74 635 LINE",
"74 0 LINE",
"116 0 LINE",
"116 576 LINE",
"99 562 LINE",
"450 0 LINE",
"481 0 LINE",
"481 635 LINE",
"439 635 LINE"
);
}
);
width = 555;
},
{
anchors = (
{
name = bottom;
position = "{300, 0}";
},
{
name = top;
position = "{290, 625}";
}
);
layerId = "522BF62C-3FFD-47FE-9DEE-94F66EB24849";
name = "Bold SemiExtended";
paths = (
{
closed = 1;
nodes = (
"418 225 LINE",
"438 225 LINE",
"159 635 LINE",
"55 635 LINE",
"55 0 LINE",
"182 0 LINE",
"182 412 LINE",
"161 412 LINE",
"440 0 LINE",
"545 0 LINE",
"545 635 LINE",
"418 635 LINE"
);
}
);
width = 600;
}
);
unicode = 004E;
},
{
color = 3;
glyphname = O;
lastChange = "2016-01-15 18:16:33 +0000";
layers = (
{
anchors = (
{
name = top;
position = "{270, 615}";
}
);
background = {
paths = (
{
closed = 1;
nodes = (
"124 642 OFFCURVE",
"85 571 OFFCURVE",
"85 311 CURVE SMOOTH",
"85 43 OFFCURVE",
"124 -7 OFFCURVE",
"328 -7 CURVE SMOOTH",
"543 -7 OFFCURVE",
"584 64 OFFCURVE",
"584 323 CURVE SMOOTH",
"584 589 OFFCURVE",
"543 642 OFFCURVE",
"340 642 CURVE SMOOTH"
);
},
{
closed = 1;
nodes = (
"489 600 OFFCURVE",
"535 582 OFFCURVE",
"535 317 CURVE SMOOTH",
"535 78 OFFCURVE",
"499 35 OFFCURVE",
"334 35 CURVE SMOOTH",
"177 35 OFFCURVE",
"134 60 OFFCURVE",
"134 317 CURVE SMOOTH",
"134 549 OFFCURVE",
"164 600 OFFCURVE",
"334 600 CURVE SMOOTH"
);
}
);
};
layerId = "15B61E68-7076-43EF-9E3D-3B783472E8B2";
name = "Light SemiExtended";
paths = (
{
closed = 1;
nodes = (
"414 598 LINE SMOOTH",
"418 598 OFFCURVE",
"421 596 OFFCURVE",
"421 591 CURVE SMOOTH",
"421 44 LINE SMOOTH",
"421 39 OFFCURVE",
"418 37 OFFCURVE",
"414 37 CURVE SMOOTH",
"121 37 LINE SMOOTH",
"117 37 OFFCURVE",
"114 39 OFFCURVE",
"114 44 CURVE SMOOTH",
"114 591 LINE SMOOTH",
"114 596 OFFCURVE",
"117 598 OFFCURVE",
"121 598 CURVE SMOOTH"
);
},
{
closed = 1;
nodes = (
"65 85 LINE SMOOTH",
"65 15 OFFCURVE",
"95 -5 OFFCURVE",
"165 -5 CURVE SMOOTH",
"370 -5 LINE SMOOTH",
"440 -5 OFFCURVE",
"470 15 OFFCURVE",
"470 85 CURVE SMOOTH",
"470 550 LINE SMOOTH",
"470 620 OFFCURVE",
"440 640 OFFCURVE",
"370 640 CURVE SMOOTH",
"165 640 LINE SMOOTH",
"95 640 OFFCURVE",
"65 620 OFFCURVE",
"65 550 CURVE SMOOTH"
);
}
);
width = 535;
},
{
anchors = (
{
name = top;
position = "{302, 625}";
}
);
layerId = "522BF62C-3FFD-47FE-9DEE-94F66EB24849";
name = "Bold SemiExtended";
paths = (
{
closed = 1;
nodes = (
"381 512 LINE SMOOTH",
"390 512 OFFCURVE",
"395 508 OFFCURVE",
"395 498 CURVE SMOOTH",
"395 137 LINE SMOOTH",
"395 127 OFFCURVE",
"390 123 OFFCURVE",
"381 123 CURVE SMOOTH",
"219 123 LINE SMOOTH",
"210 123 OFFCURVE",
"205 127 OFFCURVE",
"205 137 CURVE SMOOTH",
"205 498 LINE SMOOTH",
"205 508 OFFCURVE",
"210 512 OFFCURVE",
"219 512 CURVE SMOOTH"
);
},
{
closed = 1;
nodes = (
"55 150 LINE SMOOTH",
"55 45 OFFCURVE",
"115 -10 OFFCURVE",
"235 -10 CURVE SMOOTH",
"365 -10 LINE SMOOTH",
"485 -10 OFFCURVE",
"545 45 OFFCURVE",
"545 150 CURVE SMOOTH",
"545 485 LINE SMOOTH",
"545 590 OFFCURVE",
"485 645 OFFCURVE",
"365 645 CURVE SMOOTH",
"235 645 LINE SMOOTH",
"115 645 OFFCURVE",
"55 590 OFFCURVE",
"55 485 CURVE SMOOTH"
);
}
);
width = 600;
}
);
unicode = 004F;
},
{
color = 3;
glyphname = Oslash;
lastChange = "2016-01-15 18:16:33 +0000";
layers = (
{
background = {
paths = (
{
closed = 1;
nodes = (
"437 680 LINE",
"58 -48 LINE",
"101 -48 LINE",
"480 680 LINE"
);
}
);
};
components = (
{
name = O;
}
);
layerId = "15B61E68-7076-43EF-9E3D-3B783472E8B2";
name = "Light SemiExtended";
paths = (
{
closed = 1;
nodes = (
"427 680 LINE",
"71 -48 LINE",
"111 -48 LINE",
"467 680 LINE"
);
}
);
width = 535;
},
{
components = (
{
name = O;
}
);
layerId = "522BF62C-3FFD-47FE-9DEE-94F66EB24849";
name = "Bold SemiExtended";
paths = (
{
closed = 1;
nodes = (
"435 690 LINE",
"75 -58 LINE",
"160 -58 LINE",
"520 690 LINE"
);
}
);
width = 600;
}
);
unicode = 00D8;
},
{
color = 3;
glyphname = OE;
lastChange = "2016-01-15 18:16:33 +0000";
layers = (
{
guideLines = (
{
position = "{410, 40}";
}
);
layerId = "15B61E68-7076-43EF-9E3D-3B783472E8B2";
name = "Light SemiExtended";
paths = (
{
closed = 1;
nodes = (
"733 0 LINE",
"733 40 LINE",
"434 40 LINE",
"444 30 LINE",
"444 313 LINE",
"433 304 LINE",
"712 304 LINE",
"712 344 LINE",
"434 344 LINE",
"444 334 LINE",
"444 605 LINE",
"434 595 LINE",
"728 595 LINE",
"728 635 LINE",
"152 637 LINE SMOOTH",
"82 637 OFFCURVE",
"52 617 OFFCURVE",
"52 547 CURVE SMOOTH",
"52 88 LINE SMOOTH",
"52 18 OFFCURVE",
"82 -2 OFFCURVE",
"152 -2 CURVE SMOOTH"
);
},
{
closed = 1;
nodes = (
"408 40 LINE",
"108 40 LINE SMOOTH",
"104 40 OFFCURVE",
"101 42 OFFCURVE",
"101 47 CURVE SMOOTH",
"101 588 LINE SMOOTH",
"101 593 OFFCURVE",
"104 595 OFFCURVE",
"108 595 CURVE SMOOTH",
"409 595 LINE",
"398 605 LINE",
"398 30 LINE"
);
}
);
width = 773;
},
{
guideLines = (
{
position = "{476, 129}";
}
);
layerId = "522BF62C-3FFD-47FE-9DEE-94F66EB24849";
name = "Bold SemiExtended";
paths = (
{
closed = 1;
nodes = (
"787 0 LINE",
"787 129 LINE",
"526 129 LINE",
"546 109 LINE",
"546 278 LINE",
"526 258 LINE",
"762 258 LINE",
"762 385 LINE",
"526 385 LINE",
"546 365 LINE",
"546 526 LINE",
"526 506 LINE",
"782 506 LINE",
"782 635 LINE",
"238 640 LINE SMOOTH",
"117 641 OFFCURVE",
"58 585 OFFCURVE",
"58 480 CURVE SMOOTH",
"58 155 LINE SMOOTH",
"58 50 OFFCURVE",
"118 -6 OFFCURVE",
"238 -5 CURVE SMOOTH"
);
},
{
closed = 1;
nodes = (
"418 128 LINE",
"222 128 LINE SMOOTH",
"213 128 OFFCURVE",
"208 132 OFFCURVE",
"208 142 CURVE SMOOTH",
"208 493 LINE SMOOTH",
"208 503 OFFCURVE",
"213 507 OFFCURVE",
"222 507 CURVE SMOOTH",
"418 507 LINE",
"398 527 LINE",
"398 104 LINE"
);
}
);
width = 817;
}
);
unicode = 0152;
},
{
color = 3;
glyphname = P;
lastChange = "2016-01-15 18:16:33 +0000";
layers = (
{
background = {
paths = (
{
closed = 1;
nodes = (
"510 329 LINE",
"523 342 LINE",
"128 342 LINE",
"141 329 LINE",
"141 635 LINE",
"95 635 LINE",
"95 0 LINE",
"141 0 LINE",
"141 314 LINE",
"128 302 LINE",
"523 302 LINE",
"510 314 LINE",
"510 0 LINE",
"556 0 LINE",
"556 635 LINE",
"510 635 LINE"
);
}
);
};
layerId = "15B61E68-7076-43EF-9E3D-3B783472E8B2";
name = "Light SemiExtended";
paths = (
{
closed = 1;
nodes = (
"122 0 LINE",
"121 276 LINE",
"103 264 LINE",
"340 264 LINE SMOOTH",
"415 264 OFFCURVE",
"450 292 OFFCURVE",
"450 367 CURVE SMOOTH",
"450 535 LINE SMOOTH",
"450 610 OFFCURVE",
"415 639 OFFCURVE",
"340 638 CURVE SMOOTH",
"75 635 LINE",
"75 0 LINE"
);
},
{
closed = 1;
nodes = (
"121 610 LINE",
"111 598 LINE",
"389 598 LINE SMOOTH",
"397 598 OFFCURVE",
"401 594 OFFCURVE",
"401 586 CURVE SMOOTH",
"401 316 LINE SMOOTH",
"401 308 OFFCURVE",
"396 304 OFFCURVE",
"389 304 CURVE SMOOTH",
"110 304 LINE",
"121 291 LINE"
);
}
);
width = 489;
},
{
layerId = "522BF62C-3FFD-47FE-9DEE-94F66EB24849";
name = "Bold SemiExtended";
paths = (
{
closed = 1;
nodes = (
"218 0 LINE",
"218 232 LINE",
"198 209 LINE",
"341 209 LINE SMOOTH",
"461 209 OFFCURVE",
"526 284 OFFCURVE",
"526 379 CURVE SMOOTH",
"526 475 LINE SMOOTH",
"526 580 OFFCURVE",
"461 642 OFFCURVE",
"341 640 CURVE SMOOTH",
"70 635 LINE SMOOTH",
"70 0 LINE"
);
},
{
closed = 1;
nodes = (
"218 535 LINE",
"198 511 LINE",
"362 511 LINE SMOOTH",
"371 511 OFFCURVE",
"376 507 OFFCURVE",
"376 497 CURVE SMOOTH",
"376 352 LINE SMOOTH",
"376 342 OFFCURVE",
"371 338 OFFCURVE",
"362 338 CURVE SMOOTH",
"198 338 LINE",
"218 318 LINE"
);
}
);
width = 541;
}
);
unicode = 0050;
},
{
color = 3;
glyphname = Thorn;
lastChange = "2016-01-15 18:16:33 +0000";
layers = (
{
layerId = "15B61E68-7076-43EF-9E3D-3B783472E8B2";
name = "Light SemiExtended";
paths = (
{
closed = 1;
nodes = (
"122 0 LINE",
"121 156 LINE",
"109 144 LINE",
"337 144 LINE SMOOTH",
"412 144 OFFCURVE",
"447 172 OFFCURVE",
"447 247 CURVE SMOOTH",
"447 417 LINE SMOOTH",
"447 492 OFFCURVE",
"412 518 OFFCURVE",
"337 518 CURVE SMOOTH",
"109 518 LINE",
"121 509 LINE",
"121 635 LINE",
"75 635 LINE",
"75 0 LINE"
);
},
{
closed = 1;
nodes = (
"121 490 LINE",
"109 478 LINE",
"386 478 LINE SMOOTH",
"394 478 OFFCURVE",
"398 474 OFFCURVE",
"398 466 CURVE SMOOTH",
"398 196 LINE SMOOTH",
"398 188 OFFCURVE",
"393 184 OFFCURVE",
"386 184 CURVE SMOOTH",
"109 184 LINE",
"121 171 LINE"
);
}
);
width = 492;
},
{
layerId = "522BF62C-3FFD-47FE-9DEE-94F66EB24849";
name = "Bold SemiExtended";
paths = (
{
closed = 1;
nodes = (
"218 0 LINE",
"218 138 LINE",
"198 115 LINE",
"341 115 LINE SMOOTH",
"461 115 OFFCURVE",
"526 190 OFFCURVE",
"526 285 CURVE SMOOTH",
"526 376 LINE SMOOTH",
"526 481 OFFCURVE",
"461 541 OFFCURVE",
"341 541 CURVE SMOOTH",
"193 541 LINE",
"218 519 LINE",
"218 635 LINE",
"70 635 LINE",
"70 0 LINE"
);
},
{
closed = 1;
nodes = (
"218 436 LINE",
"198 412 LINE",
"362 412 LINE SMOOTH",
"371 412 OFFCURVE",
"376 408 OFFCURVE",
"376 398 CURVE SMOOTH",
"376 258 LINE SMOOTH",
"376 248 OFFCURVE",
"371 244 OFFCURVE",
"362 244 CURVE SMOOTH",
"198 244 LINE",
"218 224 LINE"
);
}
);
width = 571;
}
);
unicode = 00DE;
},
{
color = 3;
glyphname = Q;
lastChange = "2016-01-15 18:16:33 +0000";
layers = (
{
layerId = "15B61E68-7076-43EF-9E3D-3B783472E8B2";
name = "Light SemiExtended";
paths = (
{
closed = 1;
nodes = (
"414 598 LINE SMOOTH",
"418 598 OFFCURVE",
"421 596 OFFCURVE",
"421 591 CURVE SMOOTH",
"421 44 LINE SMOOTH",
"421 39 OFFCURVE",
"418 37 OFFCURVE",
"414 37 CURVE SMOOTH",
"121 37 LINE SMOOTH",
"117 37 OFFCURVE",
"114 39 OFFCURVE",
"114 44 CURVE SMOOTH",
"114 591 LINE SMOOTH",
"114 596 OFFCURVE",
"117 598 OFFCURVE",
"121 598 CURVE SMOOTH"
);
},
{
closed = 1;
nodes = (
"65 85 LINE SMOOTH",
"65 15 OFFCURVE",
"95 -5 OFFCURVE",
"165 -5 CURVE SMOOTH",
"370 -5 LINE SMOOTH",
"440 -5 OFFCURVE",
"470 15 OFFCURVE",
"470 85 CURVE SMOOTH",
"470 550 LINE SMOOTH",
"470 620 OFFCURVE",
"440 640 OFFCURVE",
"370 640 CURVE SMOOTH",
"165 640 LINE SMOOTH",
"95 640 OFFCURVE",
"65 620 OFFCURVE",
"65 550 CURVE SMOOTH"
);
},
{
closed = 1;
nodes = (
"312 -110 LINE",
"357 -110 LINE",
"315 25 LINE",
"273 25 LINE"
);
}
);
width = 540;
},
{
layerId = "522BF62C-3FFD-47FE-9DEE-94F66EB24849";
name = "Bold SemiExtended";
paths = (
{
closed = 1;
nodes = (
"381 512 LINE SMOOTH",
"390 512 OFFCURVE",
"395 508 OFFCURVE",
"395 498 CURVE SMOOTH",
"395 137 LINE SMOOTH",
"395 127 OFFCURVE",
"390 123 OFFCURVE",
"381 123 CURVE SMOOTH",
"219 123 LINE SMOOTH",
"210 123 OFFCURVE",
"205 127 OFFCURVE",
"205 137 CURVE SMOOTH",
"205 498 LINE SMOOTH",
"205 508 OFFCURVE",
"210 512 OFFCURVE",
"219 512 CURVE SMOOTH"
);
},
{
closed = 1;
nodes = (
"55 150 LINE SMOOTH",
"55 45 OFFCURVE",
"115 -10 OFFCURVE",
"235 -10 CURVE SMOOTH",
"365 -10 LINE SMOOTH",
"485 -10 OFFCURVE",
"545 45 OFFCURVE",
"545 150 CURVE SMOOTH",
"545 485 LINE SMOOTH",
"545 590 OFFCURVE",
"485 645 OFFCURVE",
"365 645 CURVE SMOOTH",
"235 645 LINE SMOOTH",
"115 645 OFFCURVE",
"55 590 OFFCURVE",
"55 485 CURVE SMOOTH"
);
},
{
closed = 1;
nodes = (
"302 -125 LINE",
"442 -125 LINE",
"399 40 LINE",
"270 40 LINE"
);
}
);
width = 600;
}
);
unicode = 0051;
},
{
color = 3;
glyphname = R;
lastChange = "2016-01-15 18:16:33 +0000";
layers = (
{
anchors = (
{
name = bottom;
position = "{256, 0}";
},
{
name = top;
position = "{255, 615}";
}
);
background = {
paths = (
{
closed = 1;
nodes = (
"122 0 LINE",
"121 288 LINE",
"103 276 LINE",
"340 276 LINE SMOOTH",
"415 276 OFFCURVE",
"450 304 OFFCURVE",
"450 379 CURVE SMOOTH",
"450 535 LINE SMOOTH",
"450 610 OFFCURVE",
"415 639 OFFCURVE",
"340 638 CURVE SMOOTH",
"75 635 LINE",
"75 0 LINE"
);
},
{
closed = 1;
nodes = (
"121 610 LINE",
"111 598 LINE",
"389 598 LINE SMOOTH",
"397 598 OFFCURVE",
"401 594 OFFCURVE",
"401 586 CURVE SMOOTH",
"401 326 LINE SMOOTH",
"401 318 OFFCURVE",
"396 314 OFFCURVE",
"389 314 CURVE SMOOTH",
"110 314 LINE",
"121 301 LINE"
);
},
{
closed = 1;
nodes = (
"310 276 LINE SMOOTH",
"320 276 OFFCURVE",
"323 274 OFFCURVE",
"326 266 CURVE SMOOTH",
"419 0 LINE",
"466 0 LINE",
"389 222 LINE SMOOTH",
"366 287 OFFCURVE",
"355 292 OFFCURVE",
"285 292 CURVE SMOOTH",
"130 292 LINE",
"130 276 LINE"
);
}
);
};
layerId = "15B61E68-7076-43EF-9E3D-3B783472E8B2";
name = "Light SemiExtended";
paths = (
{
closed = 1;
nodes = (
"122 0 LINE",
"121 288 LINE",
"103 276 LINE",
"310 276 LINE SMOOTH",
"320 276 OFFCURVE",
"323 274 OFFCURVE",
"326 266 CURVE SMOOTH",
"419 0 LINE",
"466 0 LINE",
"389 222 LINE SMOOTH",
"375 262 OFFCURVE",
"365 280 OFFCURVE",
"341 287 CURVE",
"340 276 LINE",
"415 276 OFFCURVE",
"450 304 OFFCURVE",
"450 379 CURVE SMOOTH",
"450 535 LINE SMOOTH",
"450 610 OFFCURVE",
"415 639 OFFCURVE",
"340 638 CURVE SMOOTH",
"75 635 LINE",
"75 0 LINE"
);
},
{
closed = 1;
nodes = (
"121 610 LINE",
"111 598 LINE",
"389 598 LINE SMOOTH",
"397 598 OFFCURVE",
"401 594 OFFCURVE",
"401 586 CURVE SMOOTH",
"401 326 LINE SMOOTH",
"401 318 OFFCURVE",
"396 314 OFFCURVE",
"389 314 CURVE SMOOTH",
"110 314 LINE",
"121 301 LINE"
);
}
);
width = 511;
},
{
anchors = (
{
name = bottom;
position = "{286, 0}";
},
{
name = top;
position = "{266, 625}";
}
);
layerId = "522BF62C-3FFD-47FE-9DEE-94F66EB24849";
name = "Bold SemiExtended";
paths = (
{
closed = 1;
nodes = (
"218 0 LINE",
"218 250 LINE",
"198 227 LINE",
"317 227 LINE SMOOTH",
"329 227 OFFCURVE",
"330 222 OFFCURVE",
"334 211 CURVE SMOOTH",
"403 0 LINE",
"551 0 LINE",
"489 176 LINE SMOOTH",
"470 229 OFFCURVE",
"444 253 OFFCURVE",
"395 262 CURVE",
"395 233 LINE",
"480 253 OFFCURVE",
"525 319 OFFCURVE",
"525 398 CURVE SMOOTH",
"525 475 LINE SMOOTH",
"525 580 OFFCURVE",
"460 642 OFFCURVE",
"340 640 CURVE SMOOTH",
"70 635 LINE",
"70 0 LINE"
);
},
{
closed = 1;
nodes = (
"218 535 LINE",
"198 511 LINE",
"361 511 LINE SMOOTH",
"370 511 OFFCURVE",
"375 507 OFFCURVE",
"375 497 CURVE SMOOTH",
"375 369 LINE SMOOTH",
"375 359 OFFCURVE",
"370 355 OFFCURVE",
"361 355 CURVE SMOOTH",
"198 355 LINE",
"218 335 LINE"
);
}
);
width = 571;
}
);
unicode = 0052;
},
{
color = 3;
glyphname = S;
lastChange = "2016-01-15 18:16:33 +0000";
layers = (
{
anchors = (
{
name = bottom;
position = "{237, -2}";
},
{
name = top;
position = "{242, 615}";
}
);
guideLines = (
{
angle = 90;
position = "{50, 469}";
},
{
angle = 90;
position = "{430, 469}";
}
);
layerId = "15B61E68-7076-43EF-9E3D-3B783472E8B2";
name = "Light SemiExtended";
paths = (
{
closed = 1;
nodes = (
"111 340 LINE SMOOTH",
"103 340 OFFCURVE",
"99 344 OFFCURVE",
"99 352 CURVE SMOOTH",
"99 583 LINE SMOOTH",
"99 591 OFFCURVE",
"104 595 OFFCURVE",
"111 595 CURVE SMOOTH",
"405 595 LINE",
"405 635 LINE",
"165 638 LINE SMOOTH",
"90 639 OFFCURVE",
"50 602 OFFCURVE",
"50 532 CURVE SMOOTH",
"50 392 LINE SMOOTH",
"50 317 OFFCURVE",
"85 298 OFFCURVE",
"160 298 CURVE SMOOTH",
"365 298 LINE SMOOTH",
"372 298 OFFCURVE",
"377 294 OFFCURVE",
"377 286 CURVE SMOOTH",
"377 52 LINE SMOOTH",
"377 44 OFFCURVE",
"373 40 OFFCURVE",
"365 40 CURVE SMOOTH",
"61 40 LINE",
"61 0 LINE",
"316 -3 LINE SMOOTH",
"391 -4 OFFCURVE",
"426 25 OFFCURVE",
"426 100 CURVE SMOOTH",
"426 244 LINE SMOOTH",
"426 314 OFFCURVE",
"386 340 OFFCURVE",
"311 340 CURVE SMOOTH"
);
}
);
width = 476;
},
{
anchors = (
{
name = bottom;
position = "{250, 0}";
},
{
name = top;
position = "{242, 625}";
}
);
guideLines = (
{
angle = 90;
position = "{26, 469}";
},
{
angle = 90;
position = "{465, 469}";
}
);
layerId = "522BF62C-3FFD-47FE-9DEE-94F66EB24849";
name = "Bold SemiExtended";
paths = (
{
closed = 1;
nodes = (
"191 386 LINE SMOOTH",
"182 386 OFFCURVE",
"177 390 OFFCURVE",
"177 400 CURVE SMOOTH",
"177 492 LINE SMOOTH",
"177 502 OFFCURVE",
"182 506 OFFCURVE",
"191 506 CURVE SMOOTH",
"441 506 LINE",
"441 635 LINE",
"212 640 LINE SMOOTH",
"92 643 OFFCURVE",
"27 580 OFFCURVE",
"27 475 CURVE SMOOTH",
"27 420 LINE SMOOTH",
"27 315 OFFCURVE",
"92 252 OFFCURVE",
"212 252 CURVE SMOOTH",
"301 252 LINE SMOOTH",
"310 252 OFFCURVE",
"315 248 OFFCURVE",
"315 238 CURVE SMOOTH",
"315 143 LINE SMOOTH",
"315 133 OFFCURVE",
"310 129 OFFCURVE",
"301 129 CURVE SMOOTH",
"43 129 LINE",
"43 0 LINE",
"280 -5 LINE SMOOTH",
"400 -8 OFFCURVE",
"465 55 OFFCURVE",
"465 160 CURVE SMOOTH",
"465 218 LINE SMOOTH",
"465 323 OFFCURVE",
"400 386 OFFCURVE",
"280 386 CURVE SMOOTH"
);
}
);
width = 490;
}
);
unicode = 0053;
},
{
color = 3;
glyphname = T;
lastChange = "2016-01-15 18:16:33 +0000";
layers = (
{
anchors = (
{
name = bottom;
position = "{204, 0}";
},
{
name = center;
position = "{195, 318}";
},
{
name = top;
position = "{195, 615}";
}
);
layerId = "15B61E68-7076-43EF-9E3D-3B783472E8B2";
name = "Light SemiExtended";
paths = (
{
closed = 1;
nodes = (
"218 0 LINE",
"218 605 LINE",
"208 595 LINE",
"385 595 LINE",
"385 635 LINE",
"5 635 LINE",
"5 595 LINE",
"182 595 LINE",
"172 605 LINE",
"172 0 LINE"
);
}
);
width = 390;
},
{
anchors = (
{
name = bottom;
position = "{234, 0}";
},
{
name = center;
position = "{223, 318}";
},
{
name = top;
position = "{223, 615}";
}
);
layerId = "522BF62C-3FFD-47FE-9DEE-94F66EB24849";
name = "Bold SemiExtended";
paths = (
{
closed = 1;
nodes = (
"297 0 LINE",
"297 526 LINE",
"277 506 LINE",
"441 506 LINE",
"441 635 LINE",
"5 635 LINE",
"5 506 LINE",
"169 506 LINE",
"149 526 LINE",
"149 0 LINE"
);
}
);
width = 446;
}
);
unicode = 0054;
},
{
color = 3;
glyphname = U;
lastChange = "2016-01-15 18:16:33 +0000";
layers = (
{
anchors = (
{
name = ogonek;
position = "{319, 0}";
},
{
name = top;
position = "{269, 615}";
}
);
layerId = "15B61E68-7076-43EF-9E3D-3B783472E8B2";
name = "Light SemiExtended";
paths = (
{
closed = 1;
nodes = (
"370 -5 LINE SMOOTH",
"440 -5 OFFCURVE",
"470 15 OFFCURVE",
"470 85 CURVE SMOOTH",
"470 635 LINE",
"421 635 LINE",
"421 44 LINE SMOOTH",
"421 39 OFFCURVE",
"418 37 OFFCURVE",
"414 37 CURVE SMOOTH",
"121 37 LINE SMOOTH",
"117 37 OFFCURVE",
"114 39 OFFCURVE",
"114 44 CURVE SMOOTH",
"114 635 LINE",
"65 635 LINE",
"65 85 LINE SMOOTH",
"65 15 OFFCURVE",
"95 -5 OFFCURVE",
"165 -5 CURVE SMOOTH"
);
}
);
width = 535;
},
{
anchors = (
{
name = ogonek;
position = "{372, -3}";
},
{
name = top;
position = "{298, 625}";
}
);
layerId = "522BF62C-3FFD-47FE-9DEE-94F66EB24849";
name = "Bold SemiExtended";
paths = (
{
closed = 1;
nodes = (
"361 -10 LINE SMOOTH",
"481 -10 OFFCURVE",
"541 45 OFFCURVE",
"541 150 CURVE SMOOTH",
"541 635 LINE",
"391 635 LINE",
"391 137 LINE SMOOTH",
"391 127 OFFCURVE",
"386 123 OFFCURVE",
"377 123 CURVE SMOOTH",
"219 123 LINE SMOOTH",
"210 123 OFFCURVE",
"205 127 OFFCURVE",
"205 137 CURVE SMOOTH",
"205 635 LINE",
"55 635 LINE",
"55 150 LINE SMOOTH",
"55 45 OFFCURVE",
"115 -10 OFFCURVE",
"235 -10 CURVE SMOOTH"
);
}
);
width = 596;
}
);
unicode = 0055;
},
{
color = 3;
glyphname = V;
lastChange = "2016-01-15 18:16:33 +0000";
layers = (
{
background = {
paths = (
{
closed = 1;
nodes = (
"296 0 OFFCURVE",
"303 14 OFFCURVE",
"323 81 CURVE SMOOTH",
"488 635 LINE",
"444 635 LINE",
"273 47 LINE SMOOTH",
"272 42 OFFCURVE",
"270 40 OFFCURVE",
"266 40 CURVE SMOOTH",
"207 40 LINE",
"55 635 LINE",
"9 635 LINE",
"174 0 LINE",
"228 0 LINE SMOOTH"
);
}
);
};
layerId = "15B61E68-7076-43EF-9E3D-3B783472E8B2";
name = "Light SemiExtended";
paths = (
{
closed = 1;
nodes = (
"295 0 OFFCURVE",
"305 6 OFFCURVE",
"328 86 CURVE SMOOTH",
"488 635 LINE",
"444 635 LINE",
"275 47 LINE SMOOTH",
"274 42 OFFCURVE",
"272 40 OFFCURVE",
"268 40 CURVE SMOOTH",
"219 40 LINE",
"58 635 LINE",
"12 635 LINE",
"185 0 LINE",
"232 0 LINE SMOOTH"
);
}
);
width = 498;
},
{
layerId = "522BF62C-3FFD-47FE-9DEE-94F66EB24849";
name = "Bold SemiExtended";
paths = (
{
closed = 1;
nodes = (
"375 -6 OFFCURVE",
"395 25 OFFCURVE",
"415 115 CURVE SMOOTH",
"531 635 LINE",
"393 635 LINE",
"292 143 LINE SMOOTH",
"290 133 OFFCURVE",
"288 129 OFFCURVE",
"278 129 CURVE SMOOTH",
"245 129 LINE",
"153 635 LINE",
"8 635 LINE",
"131 0 LINE",
"285 -4 LINE SMOOTH"
);
}
);
width = 538;
}
);
unicode = 0056;
},
{
color = 3;
glyphname = W;
lastChange = "2016-01-15 18:16:33 +0000";
layers = (
{
background = {
paths = (
{
closed = 1;
nodes = (
"252 0 OFFCURVE",
"273 6 OFFCURVE",
"285 86 CURVE SMOOTH",
"368 635 LINE",
"326 635 LINE",
"234 47 LINE SMOOTH",
"233 42 OFFCURVE",
"231 40 OFFCURVE",
"227 40 CURVE SMOOTH",
"178 40 LINE",
"70 635 LINE",
"24 635 LINE",
"144 0 LINE",
"189 0 LINE SMOOTH"
);
},
{
closed = 1;
nodes = (
"529 0 OFFCURVE",
"546 6 OFFCURVE",
"562 86 CURVE SMOOTH",
"669 635 LINE",
"625 635 LINE",
"509 47 LINE SMOOTH",
"508 42 OFFCURVE",
"506 40 OFFCURVE",
"502 40 CURVE SMOOTH",
"453 40 LINE",
"368 635 LINE",
"326 635 LINE",
"420 0 LINE",
"466 0 LINE SMOOTH"
);
}
);
};
layerId = "15B61E68-7076-43EF-9E3D-3B783472E8B2";
name = "Light SemiExtended";
paths = (
{
closed = 1;
nodes = (
"291 -5 LINE SMOOTH",
"351 -5 OFFCURVE",
"379 25 OFFCURVE",
"381 85 CURVE",
"356 85 LINE",
"356 25 OFFCURVE",
"386 -5 OFFCURVE",
"446 -5 CURVE SMOOTH",
"567 -5 LINE SMOOTH",
"637 -5 OFFCURVE",
"667 16 OFFCURVE",
"667 86 CURVE SMOOTH",
"667 635 LINE",
"618 635 LINE",
"618 44 LINE SMOOTH",
"618 39 OFFCURVE",
"615 37 OFFCURVE",
"611 37 CURVE SMOOTH",
"400 37 LINE SMOOTH",
"396 37 OFFCURVE",
"393 38 OFFCURVE",
"393 44 CURVE SMOOTH",
"393 635 LINE",
"344 635 LINE",
"344 44 LINE SMOOTH",
"344 39 OFFCURVE",
"341 37 OFFCURVE",
"337 37 CURVE SMOOTH",
"126 37 LINE SMOOTH",
"122 37 OFFCURVE",
"119 38 OFFCURVE",
"119 44 CURVE SMOOTH",
"119 635 LINE",
"70 635 LINE",
"70 84 LINE SMOOTH",
"70 14 OFFCURVE",
"100 -5 OFFCURVE",
"174 -5 CURVE SMOOTH"
);
}
);
width = 737;
},
{
layerId = "522BF62C-3FFD-47FE-9DEE-94F66EB24849";
name = "Bold SemiExtended";
paths = (
{
closed = 1;
nodes = (
"287 -10 LINE SMOOTH",
"377 -10 OFFCURVE",
"415 25 OFFCURVE",
"415 115 CURVE",
"411 115 LINE",
"411 25 OFFCURVE",
"449 -10 OFFCURVE",
"539 -10 CURVE SMOOTH",
"633 -10 LINE SMOOTH",
"722 -10 OFFCURVE",
"762 25 OFFCURVE",
"762 115 CURVE SMOOTH",
"760 635 LINE",
"613 635 LINE",
"615 137 LINE SMOOTH",
"615 128 OFFCURVE",
"611 123 OFFCURVE",
"601 123 CURVE SMOOTH",
"497 123 LINE SMOOTH",
"487 123 OFFCURVE",
"483 127 OFFCURVE",
"483 137 CURVE SMOOTH",
"483 635 LINE",
"343 635 LINE",
"343 137 LINE SMOOTH",
"343 128 OFFCURVE",
"339 123 OFFCURVE",
"329 123 CURVE SMOOTH",
"227 123 LINE SMOOTH",
"217 123 OFFCURVE",
"213 127 OFFCURVE",
"213 137 CURVE SMOOTH",
"213 635 LINE",
"66 635 LINE",
"66 115 LINE SMOOTH",
"66 25 OFFCURVE",
"106 -10 OFFCURVE",
"195 -10 CURVE SMOOTH"
);
}
);
width = 828;
}
);
unicode = 0057;
},
{
color = 3;
glyphname = X;
lastChange = "2016-01-15 18:16:33 +0000";
layers = (
{
background = {
paths = (
{
closed = 1;
nodes = (
"299 315 LINE SMOOTH",
"369 315 OFFCURVE",
"381 334 OFFCURVE",
"408 395 CURVE SMOOTH",
"516 635 LINE",
"468 635 LINE",
"341 350 LINE SMOOTH",
"339 345 OFFCURVE",
"338 343 OFFCURVE",
"334 343 CURVE SMOOTH",
"268 343 LINE",
"268 315 LINE"
);
},
{
closed = 1;
nodes = (
"333 303 LINE SMOOTH",
"337 303 OFFCURVE",
"338 301 OFFCURVE",
"340 296 CURVE SMOOTH",
"491 0 LINE",
"542 0 LINE",
"412 251 LINE SMOOTH",
"381 311 OFFCURVE",
"374 331 OFFCURVE",
"304 331 CURVE SMOOTH",
"268 331 LINE",
"268 303 LINE"
);
},
{
closed = 1;
nodes = (
"236 331 LINE SMOOTH",
"166 331 OFFCURVE",
"154 312 OFFCURVE",
"127 251 CURVE SMOOTH",
"19 11 LINE",
"67 11 LINE",
"194 296 LINE SMOOTH",
"196 301 OFFCURVE",
"197 303 OFFCURVE",
"201 303 CURVE SMOOTH",
"268 303 LINE",
"268 331 LINE"
);
},
{
closed = 1;
nodes = (
"202 343 LINE SMOOTH",
"198 343 OFFCURVE",
"197 345 OFFCURVE",
"195 350 CURVE SMOOTH",
"44 646 LINE",
"-7 646 LINE",
"123 395 LINE SMOOTH",
"154 335 OFFCURVE",
"161 315 OFFCURVE",
"231 315 CURVE SMOOTH",
"268 315 LINE",
"268 343 LINE"
);
}
);
};
guideLines = (
{
angle = 90;
position = "{211, 653}";
},
{
angle = 90;
position = "{341, 653}";
}
);
layerId = "15B61E68-7076-43EF-9E3D-3B783472E8B2";
name = "Light SemiExtended";
paths = (
{
closed = 1;
nodes = (
"326 350 LINE SMOOTH",
"324 345 OFFCURVE",
"322 343 OFFCURVE",
"317 343 CURVE SMOOTH",
"228 343 LINE SMOOTH",
"223 343 OFFCURVE",
"222 345 OFFCURVE",
"219 350 CURVE SMOOTH",
"78 636 LINE",
"25 636 LINE",
"145 395 LINE SMOOTH",
"175 335 OFFCURVE",
"183 315 OFFCURVE",
"253 315 CURVE SMOOTH",
"287 315 LINE SMOOTH",
"357 315 OFFCURVE",
"364 334 OFFCURVE",
"394 395 CURVE SMOOTH",
"513 635 LINE",
"464 635 LINE"
);
},
{
closed = 1;
nodes = (
"363 312 OFFCURVE",
"357 331 OFFCURVE",
"287 331 CURVE SMOOTH",
"253 331 LINE SMOOTH",
"183 331 OFFCURVE",
"175 310 OFFCURVE",
"144 251 CURVE SMOOTH",
"15 1 LINE",
"65 1 LINE",
"216 296 LINE SMOOTH",
"219 301 OFFCURVE",
"220 303 OFFCURVE",
"226 303 CURVE SMOOTH",
"315 303 LINE SMOOTH",
"320 303 OFFCURVE",
"322 301 OFFCURVE",
"324 296 CURVE SMOOTH",
"475 0 LINE",
"528 0 LINE",
"395 251 LINE SMOOTH"
);
}
);
width = 543;
},
{
guideLines = (
{
angle = 90;
position = "{258, 653}";
},
{
angle = 90;
position = "{319, 653}";
}
);
layerId = "522BF62C-3FFD-47FE-9DEE-94F66EB24849";
name = "Bold SemiExtended";
paths = (
{
closed = 1;
nodes = (
"320 396 LINE SMOOTH",
"316 386 OFFCURVE",
"313 383 OFFCURVE",
"304 383 CURVE SMOOTH",
"278 383 LINE SMOOTH",
"268 383 OFFCURVE",
"266 386 OFFCURVE",
"262 396 CURVE SMOOTH",
"167 635 LINE",
"12 635 LINE",
"103 414 LINE SMOOTH",
"138 328 OFFCURVE",
"160 304 OFFCURVE",
"265 304 CURVE SMOOTH",
"314 304 LINE SMOOTH",
"419 304 OFFCURVE",
"429 323 OFFCURVE",
"470 413 CURVE SMOOTH",
"571 635 LINE",
"424 635 LINE"
);
},
{
closed = 1;
nodes = (
"429 309 OFFCURVE",
"414 334 OFFCURVE",
"309 334 CURVE SMOOTH",
"261 334 LINE SMOOTH",
"156 334 OFFCURVE",
"147 313 OFFCURVE",
"105 224 CURVE SMOOTH",
"-2 0 LINE",
"146 0 LINE",
"255 241 LINE SMOOTH",
"260 251 OFFCURVE",
"262 254 OFFCURVE",
"271 254 CURVE SMOOTH",
"297 254 LINE SMOOTH",
"306 254 OFFCURVE",
"308 252 OFFCURVE",
"313 241 CURVE SMOOTH",
"423 0 LINE",
"579 0 LINE",
"471 223 LINE SMOOTH"
);
}
);
width = 577;
}
);
unicode = 0058;
},
{
color = 3;
glyphname = Y;
lastChange = "2016-01-15 18:16:33 +0000";
layers = (
{
anchors = (
{
name = top;
position = "{254, 615}";
}
);
background = {
paths = (
{
closed = 1;
nodes = (
"310 350 LINE SMOOTH",
"308 345 OFFCURVE",
"306 343 OFFCURVE",
"301 343 CURVE SMOOTH",
"212 343 LINE SMOOTH",
"207 343 OFFCURVE",
"206 345 OFFCURVE",
"203 350 CURVE SMOOTH",
"56 636 LINE",
"3 636 LINE",
"129 395 LINE SMOOTH",
"160 335 OFFCURVE",
"167 313 OFFCURVE",
"237 313 CURVE SMOOTH",
"271 313 LINE SMOOTH",
"341 313 OFFCURVE",
"348 334 OFFCURVE",
"378 395 CURVE SMOOTH",
"498 635 LINE",
"449 635 LINE"
);
},
{
closed = 1;
nodes = (
"278 0 LINE",
"278 330 LINE",
"232 330 LINE",
"232 0 LINE"
);
}
);
};
guideLines = (
{
position = "{336, 235}";
}
);
layerId = "15B61E68-7076-43EF-9E3D-3B783472E8B2";
name = "Light SemiExtended";
paths = (
{
closed = 1;
nodes = (
"300 282 LINE SMOOTH",
"298 277 OFFCURVE",
"296 275 OFFCURVE",
"291 275 CURVE SMOOTH",
"222 275 LINE SMOOTH",
"217 275 OFFCURVE",
"215 277 OFFCURVE",
"213 282 CURVE SMOOTH",
"66 636 LINE",
"15 636 LINE",
"149 313 LINE SMOOTH",
"174 253 OFFCURVE",
"185 235 OFFCURVE",
"244 235 CURVE SMOOTH",
"267 235 LINE SMOOTH",
"327 235 OFFCURVE",
"335 253 OFFCURVE",
"360 313 CURVE SMOOTH",
"493 635 LINE",
"444 635 LINE"
);
},
{
closed = 1;
nodes = (
"278 0 LINE",
"278 262 LINE",
"232 262 LINE",
"232 0 LINE"
);
}
);
width = 508;
},
{
anchors = (
{
name = top;
position = "{279, 625}";
}
);
guideLines = (
{
position = "{335, 235}";
}
);
layerId = "522BF62C-3FFD-47FE-9DEE-94F66EB24849";
name = "Bold SemiExtended";
paths = (
{
closed = 1;
nodes = (
"306 358 LINE SMOOTH",
"302 348 OFFCURVE",
"299 345 OFFCURVE",
"290 345 CURVE SMOOTH",
"269 345 LINE SMOOTH",
"259 345 OFFCURVE",
"256 348 OFFCURVE",
"253 358 CURVE SMOOTH",
"160 635 LINE",
"5 635 LINE",
"114 326 LINE SMOOTH",
"144 241 OFFCURVE",
"171 216 OFFCURVE",
"276 216 CURVE SMOOTH",
"279 216 LINE SMOOTH",
"384 216 OFFCURVE",
"401 233 OFFCURVE",
"435 325 CURVE SMOOTH",
"550 635 LINE",
"403 635 LINE"
);
},
{
closed = 1;
nodes = (
"348 0 LINE",
"348 308 LINE",
"200 308 LINE",
"200 0 LINE"
);
}
);
width = 557;
}
);
unicode = 0059;
},
{
color = 3;
glyphname = Z;
lastChange = "2016-01-15 18:16:33 +0000";
layers = (
{
anchors = (
{
name = top;
position = "{239, 615}";
}
);
layerId = "15B61E68-7076-43EF-9E3D-3B783472E8B2";
name = "Light SemiExtended";
paths = (
{
closed = 1;
nodes = (
"428 38 LINE",
"102 38 LINE SMOOTH",
"96 38 OFFCURVE",
"94 43 OFFCURVE",
"98 50 CURVE SMOOTH",
"430 578 LINE",
"430 618 OFFCURVE",
"409 635 OFFCURVE",
"367 635 CURVE SMOOTH",
"63 635 LINE",
"63 597 LINE",
"378 597 LINE SMOOTH",
"384 597 OFFCURVE",
"387 594 OFFCURVE",
"383 587 CURVE SMOOTH",
"45 50 LINE",
"45 10 OFFCURVE",
"70 0 OFFCURVE",
"110 0 CURVE SMOOTH",
"428 0 LINE"
);
}
);
width = 473;
},
{
anchors = (
{
name = top;
position = "{246, 625}";
}
);
layerId = "522BF62C-3FFD-47FE-9DEE-94F66EB24849";
name = "Bold SemiExtended";
paths = (
{
closed = 1;
nodes = (
"465 119 LINE",
"205 119 LINE SMOOTH",
"194 119 OFFCURVE",
"192 131 OFFCURVE",
"198 139 CURVE SMOOTH",
"481 517 LINE",
"481 587 OFFCURVE",
"450 637 OFFCURVE",
"375 637 CURVE SMOOTH",
"40 636 LINE",
"40 516 LINE",
"289 517 LINE SMOOTH",
"300 517 OFFCURVE",
"304 507 OFFCURVE",
"298 498 CURVE SMOOTH",
"10 109 LINE",
"10 44 OFFCURVE",
"40 -1 OFFCURVE",
"105 -1 CURVE SMOOTH",
"464 -1 LINE"
);
}
);
width = 486;
}
);
unicode = 005A;
},
{
color = 3;
glyphname = a;
lastChange = "2016-01-15 18:16:33 +0000";
layers = (
{
anchors = (
{
name = ogonek;
position = "{346, 0}";
},
{
name = top;
position = "{197, 490}";
}
);
layerId = "15B61E68-7076-43EF-9E3D-3B783472E8B2";
name = "Light SemiExtended";
paths = (
{
closed = 1;
nodes = (
"227 -5 LINE SMOOTH",
"287 -5 OFFCURVE",
"307 15 OFFCURVE",
"307 75 CURVE",
"300 32 LINE",
"308 0 LINE",
"346 0 LINE",
"346 400 LINE SMOOTH",
"346 470 OFFCURVE",
"316 490 OFFCURVE",
"246 490 CURVE SMOOTH",
"58 490 LINE",
"58 453 LINE",
"293 453 LINE SMOOTH",
"297 453 OFFCURVE",
"300 451 OFFCURVE",
"300 446 CURVE SMOOTH",
"300 32 LINE",
"88 32 LINE SMOOTH",
"84 32 OFFCURVE",
"81 34 OFFCURVE",
"81 39 CURVE SMOOTH",
"81 232 LINE SMOOTH",
"81 237 OFFCURVE",
"84 239 OFFCURVE",
"88 239 CURVE SMOOTH",
"307 239 LINE",
"307 275 LINE",
"135 275 LINE SMOOTH",
"65 275 OFFCURVE",
"35 255 OFFCURVE",
"35 185 CURVE SMOOTH",
"35 85 LINE SMOOTH",
"35 15 OFFCURVE",
"65 -5 OFFCURVE",
"135 -5 CURVE SMOOTH"
);
}
);
width = 399;
},
{
anchors = (
{
name = ogonek;
position = "{409, 0}";
},
{
name = top;
position = "{229, 490}";
}
);
layerId = "522BF62C-3FFD-47FE-9DEE-94F66EB24849";
name = "Bold SemiExtended";
paths = (
{
closed = 1;
nodes = (
"170 -10 LINE SMOOTH",
"240 -10 OFFCURVE",
"271 35 OFFCURVE",
"271 105 CURVE",
"266 105 LINE",
"279 0 LINE",
"409 0 LINE",
"409 347 LINE SMOOTH",
"409 452 OFFCURVE",
"364 493 OFFCURVE",
"254 492 CURVE SMOOTH",
"61 491 LINE",
"61 371 LINE",
"252 372 LINE SMOOTH",
"262 372 OFFCURVE",
"266 368 OFFCURVE",
"266 358 CURVE SMOOTH",
"266 105 LINE",
"179 105 LINE SMOOTH",
"169 105 OFFCURVE",
"165 109 OFFCURVE",
"165 119 CURVE SMOOTH",
"165 184 LINE SMOOTH",
"165 194 OFFCURVE",
"169 198 OFFCURVE",
"179 198 CURVE SMOOTH",
"282 198 LINE",
"282 298 LINE",
"175 298 LINE SMOOTH",
"65 298 OFFCURVE",
"25 263 OFFCURVE",
"25 163 CURVE SMOOTH",
"25 115 LINE SMOOTH",
"25 25 OFFCURVE",
"65 -10 OFFCURVE",
"155 -10 CURVE SMOOTH"
);
}
);
width = 449;
}
);
unicode = 0061;
},
{
color = 3;
glyphname = ae;
lastChange = "2016-01-15 18:16:33 +0000";
layers = (
{
background = {
paths = (
{
closed = 1;
nodes = (
"227 -5 LINE SMOOTH",
"287 -5 OFFCURVE",
"307 15 OFFCURVE",
"307 75 CURVE",
"300 32 LINE",
"346 32 LINE",
"346 400 LINE SMOOTH",
"346 470 OFFCURVE",
"316 490 OFFCURVE",
"246 490 CURVE SMOOTH",
"58 490 LINE",
"58 453 LINE",
"293 453 LINE SMOOTH",
"297 453 OFFCURVE",
"300 451 OFFCURVE",
"300 446 CURVE SMOOTH",
"300 32 LINE",
"88 32 LINE SMOOTH",
"84 32 OFFCURVE",
"81 34 OFFCURVE",
"81 39 CURVE SMOOTH",
"81 232 LINE SMOOTH",
"81 237 OFFCURVE",
"84 239 OFFCURVE",
"88 239 CURVE SMOOTH",
"307 239 LINE",
"307 275 LINE",
"135 275 LINE SMOOTH",
"65 275 OFFCURVE",
"35 255 OFFCURVE",
"35 185 CURVE SMOOTH",
"35 85 LINE SMOOTH",
"35 15 OFFCURVE",
"65 -5 OFFCURVE",
"135 -5 CURVE SMOOTH"
);
}
);
};
guideLines = (
{
position = "{315, 255}";
}
);
layerId = "15B61E68-7076-43EF-9E3D-3B783472E8B2";
name = "Light SemiExtended";
paths = (
{
closed = 1;
nodes = (
"601 -5 LINE",
"601 32 LINE",
"353 32 LINE SMOOTH",
"349 32 OFFCURVE",
"346 34 OFFCURVE",
"346 39 CURVE SMOOTH",
"346 451 LINE SMOOTH",
"346 456 OFFCURVE",
"349 458 OFFCURVE",
"353 458 CURVE SMOOTH",
"558 458 LINE SMOOTH",
"562 458 OFFCURVE",
"565 456 OFFCURVE",
"565 451 CURVE SMOOTH",
"565 255 LINE",
"339 255 LINE",
"339 219 LINE",
"611 219 LINE",
"611 405 LINE SMOOTH",
"611 475 OFFCURVE",
"581 495 OFFCURVE",
"511 495 CURVE SMOOTH",
"394 495 LINE SMOOTH",
"336 495 OFFCURVE",
"318 481 OFFCURVE",
"312 436 CURVE",
"334 436 LINE",
"327 475 OFFCURVE",
"301 490 OFFCURVE",
"246 490 CURVE SMOOTH",
"58 490 LINE",
"58 453 LINE",
"293 453 LINE SMOOTH",
"297 453 OFFCURVE",
"300 451 OFFCURVE",
"300 446 CURVE SMOOTH",
"300 65 LINE SMOOTH",
"300 15 OFFCURVE",
"329 -5 OFFCURVE",
"389 -5 CURVE SMOOTH"
);
},
{
closed = 1;
nodes = (
"234 -5 LINE SMOOTH",
"276 -5 OFFCURVE",
"300 5 OFFCURVE",
"307 32 CURVE",
"88 32 LINE SMOOTH",
"84 32 OFFCURVE",
"81 34 OFFCURVE",
"81 39 CURVE SMOOTH",
"81 212 LINE SMOOTH",
"81 217 OFFCURVE",
"84 219 OFFCURVE",
"88 219 CURVE SMOOTH",
"307 219 LINE",
"307 255 LINE",
"135 255 LINE SMOOTH",
"65 255 OFFCURVE",
"35 235 OFFCURVE",
"35 165 CURVE SMOOTH",
"35 85 LINE SMOOTH",
"35 15 OFFCURVE",
"65 -5 OFFCURVE",
"135 -5 CURVE SMOOTH"
);
}
);
width = 656;
},
{
layerId = "522BF62C-3FFD-47FE-9DEE-94F66EB24849";
name = "Bold SemiExtended";
paths = (
{
closed = 1;
nodes = (
"632 -6 LINE",
"632 114 LINE",
"422 114 LINE SMOOTH",
"412 114 OFFCURVE",
"408 118 OFFCURVE",
"408 128 CURVE SMOOTH",
"408 371 LINE SMOOTH",
"408 380 OFFCURVE",
"412 385 OFFCURVE",
"422 385 CURVE SMOOTH",
"493 385 LINE SMOOTH",
"503 385 OFFCURVE",
"507 380 OFFCURVE",
"507 371 CURVE SMOOTH",
"507 282 LINE",
"392 282 LINE",
"392 182 LINE",
"647 182 LINE",
"647 360 LINE SMOOTH",
"647 465 OFFCURVE",
"607 500 OFFCURVE",
"497 500 CURVE SMOOTH",
"446 500 LINE SMOOTH",
"360 500 OFFCURVE",
"335 480 OFFCURVE",
"326 420 CURVE",
"357 420 LINE",
"346 470 OFFCURVE",
"312 491 OFFCURVE",
"234 490 CURVE SMOOTH",
"61 489 LINE",
"61 369 LINE",
"254 370 LINE SMOOTH",
"264 370 OFFCURVE",
"268 366 OFFCURVE",
"268 356 CURVE SMOOTH",
"268 146 LINE SMOOTH",
"268 41 OFFCURVE",
"328 -6 OFFCURVE",
"446 -6 CURVE SMOOTH"
);
},
{
closed = 1;
nodes = (
"178 -10 LINE SMOOTH",
"248 -10 OFFCURVE",
"279 35 OFFCURVE",
"279 105 CURVE",
"179 105 LINE SMOOTH",
"169 105 OFFCURVE",
"165 109 OFFCURVE",
"165 119 CURVE SMOOTH",
"165 184 LINE SMOOTH",
"165 194 OFFCURVE",
"169 198 OFFCURVE",
"179 198 CURVE SMOOTH",
"284 198 LINE",
"284 298 LINE",
"175 298 LINE SMOOTH",
"65 298 OFFCURVE",
"25 263 OFFCURVE",
"25 163 CURVE SMOOTH",
"25 115 LINE SMOOTH",
"25 25 OFFCURVE",
"65 -10 OFFCURVE",
"155 -10 CURVE SMOOTH"
);
}
);
width = 682;
}
);
unicode = 00E6;
},
{
color = 3;
glyphname = b;
lastChange = "2016-01-15 18:16:33 +0000";
layers = (
{
background = {
paths = (
{
closed = 0;
nodes = (
"59 115 LINE",
"59 58 OFFCURVE",
"119 13 OFFCURVE",
"174 13 CURVE SMOOTH",
"359 13 LINE SMOOTH",
"414 13 OFFCURVE",
"459 58 OFFCURVE",
"459 115 CURVE SMOOTH",
"459 359 LINE SMOOTH",
"459 415 OFFCURVE",
"414 461 OFFCURVE",
"359 461 CURVE SMOOTH",
"174 461 LINE SMOOTH",
"119 461 OFFCURVE",
"59 415 OFFCURVE",
"59 359 CURVE SMOOTH"
);
},
{
closed = 0;
nodes = (
"59 676 LINE",
"59 -5 LINE"
);
},
{
closed = 1;
nodes = (
"80 423 OFFCURVE",
"136 463 OFFCURVE",
"246 463 CURVE SMOOTH",
"346 463 OFFCURVE",
"379 440 OFFCURVE",
"379 340 CURVE",
"422 345 LINE",
"422 465 OFFCURVE",
"371 497 OFFCURVE",
"251 497 CURVE SMOOTH",
"131 497 OFFCURVE",
"63 459 OFFCURVE",
"63 353 CURVE",
"80 358 LINE"
);
},
{
closed = 1;
nodes = (
"38 130 LINE",
"80 135 LINE",
"80 490 LINE",
"39 490 LINE"
);
}
);
};
layerId = "15B61E68-7076-43EF-9E3D-3B783472E8B2";
name = "Light SemiExtended";
paths = (
{
closed = 1;
nodes = (
"270 -3 LINE SMOOTH",
"340 -4 OFFCURVE",
"370 17 OFFCURVE",
"370 87 CURVE SMOOTH",
"370 405 LINE SMOOTH",
"370 475 OFFCURVE",
"340 495 OFFCURVE",
"270 495 CURVE SMOOTH",
"178 495 LINE SMOOTH",
"118 495 OFFCURVE",
"98 475 OFFCURVE",
"98 415 CURVE",
"105 458 LINE",
"105 675 LINE",
"60 675 LINE",
"60 0 LINE"
);
},
{
closed = 1;
nodes = (
"105 451 LINE SMOOTH",
"105 456 OFFCURVE",
"108 458 OFFCURVE",
"112 458 CURVE SMOOTH",
"317 458 LINE SMOOTH",
"321 458 OFFCURVE",
"324 456 OFFCURVE",
"324 451 CURVE SMOOTH",
"324 40 LINE SMOOTH",
"324 35 OFFCURVE",
"321 33 OFFCURVE",
"317 33 CURVE SMOOTH",
"98 36 LINE",
"105 29 LINE"
);
}
);
width = 420;
},
{
layerId = "522BF62C-3FFD-47FE-9DEE-94F66EB24849";
name = "Bold SemiExtended";
paths = (
{
closed = 1;
nodes = (
"300 -6 LINE SMOOTH",
"410 -9 OFFCURVE",
"450 29 OFFCURVE",
"450 129 CURVE SMOOTH",
"450 375 LINE SMOOTH",
"450 465 OFFCURVE",
"410 500 OFFCURVE",
"320 500 CURVE SMOOTH",
"295 500 LINE SMOOTH",
"225 500 OFFCURVE",
"194 455 OFFCURVE",
"194 385 CURVE",
"198 385 LINE",
"198 675 LINE",
"55 675 LINE",
"55 0 LINE"
);
},
{
closed = 1;
nodes = (
"198 371 LINE SMOOTH",
"198 380 OFFCURVE",
"202 385 OFFCURVE",
"212 385 CURVE SMOOTH",
"296 385 LINE SMOOTH",
"306 385 OFFCURVE",
"310 381 OFFCURVE",
"310 371 CURVE SMOOTH",
"310 128 LINE SMOOTH",
"310 118 OFFCURVE",
"306 114 OFFCURVE",
"296 114 CURVE SMOOTH",
"183 114 LINE",
"198 98 LINE"
);
}
);
width = 490;
}
);
unicode = 0062;
},
{
color = 3;
glyphname = c;
lastChange = "2016-01-15 18:16:33 +0000";
layers = (
{
anchors = (
{
name = bottom;
position = "{196, 0}";
},
{
name = top;
position = "{177, 490}";
}
);
background = {
paths = (
{
closed = 1;
nodes = (
"253 -5 LINE SMOOTH",
"323 -5 OFFCURVE",
"353 15 OFFCURVE",
"353 85 CURVE SMOOTH",
"353 119 LINE",
"307 119 LINE",
"307 39 LINE SMOOTH",
"307 34 OFFCURVE",
"304 32 OFFCURVE",
"300 32 CURVE SMOOTH",
"103 32 LINE SMOOTH",
"99 32 OFFCURVE",
"96 34 OFFCURVE",
"96 39 CURVE SMOOTH",
"96 451 LINE SMOOTH",
"96 456 OFFCURVE",
"99 458 OFFCURVE",
"103 458 CURVE SMOOTH",
"300 458 LINE SMOOTH",
"304 458 OFFCURVE",
"307 456 OFFCURVE",
"307 451 CURVE SMOOTH",
"307 359 LINE",
"353 359 LINE",
"353 405 LINE SMOOTH",
"353 475 OFFCURVE",
"323 495 OFFCURVE",
"253 495 CURVE SMOOTH",
"150 495 LINE SMOOTH",
"80 495 OFFCURVE",
"50 475 OFFCURVE",
"50 405 CURVE SMOOTH",
"50 85 LINE SMOOTH",
"50 15 OFFCURVE",
"80 -5 OFFCURVE",
"150 -5 CURVE SMOOTH"
);
}
);
};
layerId = "15B61E68-7076-43EF-9E3D-3B783472E8B2";
name = "Light SemiExtended";
paths = (
{
closed = 1;
nodes = (
"306 -5 LINE",
"306 32 LINE",
"103 32 LINE SMOOTH",
"99 32 OFFCURVE",
"96 34 OFFCURVE",
"96 39 CURVE SMOOTH",
"96 451 LINE SMOOTH",
"96 456 OFFCURVE",
"99 458 OFFCURVE",
"103 458 CURVE SMOOTH",
"306 458 LINE",
"306 495 LINE",
"150 495 LINE SMOOTH",
"80 495 OFFCURVE",
"50 475 OFFCURVE",
"50 405 CURVE SMOOTH",
"50 85 LINE SMOOTH",
"50 15 OFFCURVE",
"80 -5 OFFCURVE",
"150 -5 CURVE SMOOTH"
);
}
);
width = 324;
},
{
anchors = (
{
name = bottom;
position = "{226, 0}";
},
{
name = top;
position = "{189, 490}";
}
);
layerId = "522BF62C-3FFD-47FE-9DEE-94F66EB24849";
name = "Bold SemiExtended";
paths = (
{
closed = 1;
nodes = (
"356 -10 LINE",
"356 110 LINE",
"197 110 LINE SMOOTH",
"188 110 OFFCURVE",
"183 114 OFFCURVE",
"183 124 CURVE SMOOTH",
"183 366 LINE SMOOTH",
"183 376 OFFCURVE",
"188 380 OFFCURVE",
"197 380 CURVE SMOOTH",
"356 380 LINE",
"356 500 LINE",
"210 500 LINE SMOOTH",
"90 500 OFFCURVE",
"40 455 OFFCURVE",
"40 350 CURVE SMOOTH",
"40 140 LINE SMOOTH",
"40 35 OFFCURVE",
"90 -10 OFFCURVE",
"210 -10 CURVE SMOOTH"
);
}
);
width = 371;
}
);
unicode = 0063;
},
{
color = 3;
glyphname = d;
lastChange = "2016-01-15 18:16:33 +0000";
layers = (
{
anchors = (
{
name = center;
position = "{210, 245}";
},
{
name = topright;
position = "{400, 490}";
}
);
background = {
paths = (
{
closed = 1;
nodes = (
"260 -3 LINE SMOOTH",
"330 -4 OFFCURVE",
"360 17 OFFCURVE",
"360 87 CURVE SMOOTH",
"360 405 LINE SMOOTH",
"360 475 OFFCURVE",
"330 495 OFFCURVE",
"260 495 CURVE SMOOTH",
"168 495 LINE SMOOTH",
"108 495 OFFCURVE",
"88 475 OFFCURVE",
"88 415 CURVE",
"95 458 LINE",
"95 675 LINE",
"50 675 LINE",
"50 0 LINE"
);
},
{
closed = 1;
nodes = (
"95 451 LINE SMOOTH",
"95 456 OFFCURVE",
"98 458 OFFCURVE",
"102 458 CURVE SMOOTH",
"307 458 LINE SMOOTH",
"311 458 OFFCURVE",
"314 456 OFFCURVE",
"314 451 CURVE SMOOTH",
"314 40 LINE SMOOTH",
"314 35 OFFCURVE",
"311 33 OFFCURVE",
"307 33 CURVE SMOOTH",
"88 36 LINE",
"95 29 LINE"
);
}
);
};
layerId = "15B61E68-7076-43EF-9E3D-3B783472E8B2";
name = "Light SemiExtended";
paths = (
{
closed = 1;
nodes = (
"315 675 LINE",
"315 491 LINE",
"150 493 LINE SMOOTH",
"80 494 OFFCURVE",
"50 473 OFFCURVE",
"50 403 CURVE SMOOTH",
"50 85 LINE SMOOTH",
"50 15 OFFCURVE",
"80 -5 OFFCURVE",
"150 -5 CURVE SMOOTH",
"242 -5 LINE SMOOTH",
"302 -5 OFFCURVE",
"322 15 OFFCURVE",
"322 75 CURVE",
"315 32 LINE",
"323 0 LINE",
"360 0 LINE",
"360 675 LINE"
);
},
{
closed = 1;
nodes = (
"315 39 LINE SMOOTH",
"315 34 OFFCURVE",
"312 32 OFFCURVE",
"308 32 CURVE SMOOTH",
"103 32 LINE SMOOTH",
"99 32 OFFCURVE",
"96 34 OFFCURVE",
"96 39 CURVE SMOOTH",
"96 450 LINE SMOOTH",
"96 455 OFFCURVE",
"99 457 OFFCURVE",
"103 457 CURVE SMOOTH",
"322 454 LINE",
"315 461 LINE"
);
}
);
width = 420;
},
{
anchors = (
{
name = center;
position = "{245, 245}";
},
{
name = topright;
position = "{470, 490}";
}
);
layerId = "522BF62C-3FFD-47FE-9DEE-94F66EB24849";
name = "Bold SemiExtended";
paths = (
{
closed = 1;
nodes = (
"292 675 LINE",
"292 493 LINE",
"190 493 LINE SMOOTH",
"80 493 OFFCURVE",
"40 458 OFFCURVE",
"40 358 CURVE SMOOTH",
"40 115 LINE SMOOTH",
"40 25 OFFCURVE",
"80 -10 OFFCURVE",
"170 -10 CURVE SMOOTH",
"195 -10 LINE SMOOTH",
"265 -10 OFFCURVE",
"296 35 OFFCURVE",
"296 105 CURVE",
"292 105 LINE",
"306 0 LINE",
"435 0 LINE",
"435 675 LINE"
);
},
{
closed = 1;
nodes = (
"292 119 LINE SMOOTH",
"292 110 OFFCURVE",
"288 105 OFFCURVE",
"278 105 CURVE SMOOTH",
"194 105 LINE SMOOTH",
"184 105 OFFCURVE",
"180 109 OFFCURVE",
"180 119 CURVE SMOOTH",
"180 364 LINE SMOOTH",
"180 374 OFFCURVE",
"184 378 OFFCURVE",
"194 378 CURVE SMOOTH",
"307 378 LINE",
"292 394 LINE"
);
}
);
width = 490;
}
);
unicode = 0064;
},
{
color = 3;
glyphname = eth;
lastChange = "2016-01-15 18:16:33 +0000";
layers = (
{
background = {
paths = (
{
closed = 1;
nodes = (
"315 675 LINE",
"315 491 LINE",
"150 493 LINE SMOOTH",
"80 494 OFFCURVE",
"50 473 OFFCURVE",
"50 403 CURVE SMOOTH",
"50 85 LINE SMOOTH",
"50 15 OFFCURVE",
"80 -5 OFFCURVE",
"150 -5 CURVE SMOOTH",
"242 -5 LINE SMOOTH",
"302 -5 OFFCURVE",
"322 15 OFFCURVE",
"322 75 CURVE",
"315 32 LINE",
"323 0 LINE",
"360 0 LINE",
"360 675 LINE"
);
},
{
closed = 1;
nodes = (
"315 39 LINE SMOOTH",
"315 34 OFFCURVE",
"312 32 OFFCURVE",
"308 32 CURVE SMOOTH",
"103 32 LINE SMOOTH",
"99 32 OFFCURVE",
"96 34 OFFCURVE",
"96 39 CURVE SMOOTH",
"96 450 LINE SMOOTH",
"96 455 OFFCURVE",
"99 457 OFFCURVE",
"103 457 CURVE SMOOTH",
"322 454 LINE",
"315 461 LINE"
);
},
{
closed = 1;
nodes = (
"223 510 LINE",
"206 578 LINE",
"464 647 LINE",
"480 580 LINE"
);
}
);
};
layerId = "15B61E68-7076-43EF-9E3D-3B783472E8B2";
name = "Light SemiExtended";
paths = (
{
closed = 1;
nodes = (
"261 -5 LINE SMOOTH",
"331 -5 OFFCURVE",
"361 15 OFFCURVE",
"361 85 CURVE SMOOTH",
"361 582 LINE SMOOTH",
"361 652 OFFCURVE",
"331 672 OFFCURVE",
"261 672 CURVE SMOOTH",
"117 672 LINE",
"117 635 LINE",
"308 635 LINE SMOOTH",
"312 635 OFFCURVE",
"315 633 OFFCURVE",
"315 628 CURVE SMOOTH",
"315 469 LINE",
"326 480 LINE",
"150 480 LINE SMOOTH",
"80 480 OFFCURVE",
"50 460 OFFCURVE",
"50 390 CURVE SMOOTH",
"50 85 LINE SMOOTH",
"50 15 OFFCURVE",
"80 -5 OFFCURVE",
"150 -5 CURVE SMOOTH"
);
},
{
closed = 1;
nodes = (
"99 32 OFFCURVE",
"96 34 OFFCURVE",
"96 39 CURVE SMOOTH",
"96 436 LINE SMOOTH",
"96 441 OFFCURVE",
"99 443 OFFCURVE",
"103 443 CURVE SMOOTH",
"325 443 LINE",
"315 453 LINE",
"315 39 LINE SMOOTH",
"315 34 OFFCURVE",
"312 32 OFFCURVE",
"308 32 CURVE SMOOTH",
"103 32 LINE SMOOTH"
);
},
{
closed = 1;
nodes = (
"401 655 LINE",
"384 682 LINE",
"210 571 LINE",
"227 544 LINE"
);
}
);
width = 422;
},
{
layerId = "522BF62C-3FFD-47FE-9DEE-94F66EB24849";
name = "Bold SemiExtended";
paths = (
{
closed = 1;
nodes = (
"268 -10 LINE SMOOTH",
"388 -10 OFFCURVE",
"435 35 OFFCURVE",
"435 140 CURVE SMOOTH",
"435 541 LINE SMOOTH",
"435 646 OFFCURVE",
"390 687 OFFCURVE",
"280 686 CURVE SMOOTH",
"120 685 LINE",
"120 582 LINE",
"280 583 LINE SMOOTH",
"290 583 OFFCURVE",
"294 579 OFFCURVE",
"294 569 CURVE SMOOTH",
"294 460 LINE",
"300 460 LINE",
"205 460 LINE SMOOTH",
"85 460 OFFCURVE",
"40 415 OFFCURVE",
"40 310 CURVE SMOOTH",
"40 140 LINE SMOOTH",
"40 35 OFFCURVE",
"90 -10 OFFCURVE",
"210 -10 CURVE SMOOTH"
);
},
{
closed = 1;
nodes = (
"186 110 OFFCURVE",
"181 114 OFFCURVE",
"181 124 CURVE SMOOTH",
"181 341 LINE SMOOTH",
"181 351 OFFCURVE",
"186 355 OFFCURVE",
"195 355 CURVE SMOOTH",
"307 355 LINE",
"295 365 LINE",
"295 124 LINE SMOOTH",
"295 114 OFFCURVE",
"290 110 OFFCURVE",
"281 110 CURVE SMOOTH",
"195 110 LINE SMOOTH"
);
},
{
closed = 1;
nodes = (
"488 607 LINE",
"463 667 LINE",
"187 542 LINE",
"214 481 LINE"
);
}
);
width = 478;
}
);
unicode = 00F0;
},
{
color = 3;
glyphname = e;
lastChange = "2016-01-15 18:16:33 +0000";
layers = (
{
anchors = (
{
name = bottom;
position = "{205, 0}";
},
{
name = ogonek;
position = "{354, -5}";
},
{
name = top;
position = "{209, 490}";
}
);
background = {
paths = (
{
closed = 1;
nodes = (
"147 495 LINE SMOOTH",
"77 495 OFFCURVE",
"53 475 OFFCURVE",
"53 405 CURVE SMOOTH",
"53 85 LINE SMOOTH",
"53 15 OFFCURVE",
"83 -5 OFFCURVE",
"153 -5 CURVE SMOOTH",
"351 -5 LINE",
"351 32 LINE",
"106 32 LINE SMOOTH",
"102 32 OFFCURVE",
"99 34 OFFCURVE",
"99 39 CURVE SMOOTH",
"99 451 LINE SMOOTH",
"99 456 OFFCURVE",
"102 458 OFFCURVE",
"106 458 CURVE SMOOTH",
"311 458 LINE SMOOTH",
"315 458 OFFCURVE",
"318 456 OFFCURVE",
"318 451 CURVE SMOOTH",
"318 241 LINE SMOOTH",
"318 236 OFFCURVE",
"315 234 OFFCURVE",
"311 234 CURVE SMOOTH",
"92 234 LINE",
"92 198 LINE",
"264 198 LINE SMOOTH",
"334 198 OFFCURVE",
"364 218 OFFCURVE",
"364 288 CURVE SMOOTH",
"364 405 LINE SMOOTH",
"364 475 OFFCURVE",
"334 495 OFFCURVE",
"264 495 CURVE SMOOTH"
);
}
);
};
guideLines = (
{
angle = 90;
position = "{456, 140}";
}
);
layerId = "15B61E68-7076-43EF-9E3D-3B783472E8B2";
name = "Light SemiExtended";
paths = (
{
closed = 1;
nodes = (
"354 -5 LINE",
"354 32 LINE",
"106 32 LINE SMOOTH",
"102 32 OFFCURVE",
"99 34 OFFCURVE",
"99 39 CURVE SMOOTH",
"99 451 LINE SMOOTH",
"99 456 OFFCURVE",
"102 458 OFFCURVE",
"106 458 CURVE SMOOTH",
"311 458 LINE SMOOTH",
"315 458 OFFCURVE",
"318 456 OFFCURVE",
"318 451 CURVE SMOOTH",
"318 234 LINE",
"92 234 LINE",
"92 198 LINE",
"364 198 LINE",
"364 405 LINE SMOOTH",
"364 475 OFFCURVE",
"334 495 OFFCURVE",
"264 495 CURVE SMOOTH",
"147 495 LINE SMOOTH",
"77 495 OFFCURVE",
"53 475 OFFCURVE",
"53 405 CURVE SMOOTH",
"53 85 LINE SMOOTH",
"53 15 OFFCURVE",
"83 -5 OFFCURVE",
"153 -5 CURVE SMOOTH"
);
}
);
width = 409;
},
{
anchors = (
{
name = bottom;
position = "{229, 0}";
},
{
name = ogonek;
position = "{408, -6}";
},
{
name = top;
position = "{230, 490}";
}
);
layerId = "522BF62C-3FFD-47FE-9DEE-94F66EB24849";
name = "Bold SemiExtended";
paths = (
{
closed = 1;
nodes = (
"408 -6 LINE",
"408 114 LINE",
"196 114 LINE SMOOTH",
"186 114 OFFCURVE",
"182 118 OFFCURVE",
"182 128 CURVE SMOOTH",
"182 371 LINE SMOOTH",
"182 380 OFFCURVE",
"186 385 OFFCURVE",
"196 385 CURVE SMOOTH",
"269 385 LINE SMOOTH",
"279 385 OFFCURVE",
"283 380 OFFCURVE",
"283 371 CURVE SMOOTH",
"283 282 LINE",
"166 282 LINE",
"166 182 LINE",
"423 182 LINE",
"423 360 LINE SMOOTH",
"423 465 OFFCURVE",
"383 500 OFFCURVE",
"273 500 CURVE SMOOTH",
"190 500 LINE SMOOTH",
"80 500 OFFCURVE",
"40 465 OFFCURVE",
"40 360 CURVE SMOOTH",
"40 144 LINE SMOOTH",
"40 39 OFFCURVE",
"90 -6 OFFCURVE",
"210 -6 CURVE SMOOTH"
);
}
);
width = 458;
}
);
unicode = 0065;
},
{
color = 3;
glyphname = f;
lastChange = "2016-01-15 18:16:33 +0000";
layers = (
{
background = {
paths = (
{
closed = 1;
nodes = (
"91 -2 LINE",
"135 -2 LINE",
"135 537 LINE SMOOTH",
"135 626 OFFCURVE",
"157 645 OFFCURVE",
"246 645 CURVE SMOOTH",
"267 645 OFFCURVE",
"285 644 OFFCURVE",
"314 641 CURVE",
"318 676 LINE",
"287 680 OFFCURVE",
"265 682 OFFCURVE",
"241 682 CURVE SMOOTH",
"124 682 OFFCURVE",
"91 651 OFFCURVE",
"91 542 CURVE SMOOTH"
);
},
{
closed = 1;
nodes = (
"25 490 LINE",
"25 454 LINE",
"303 454 LINE",
"303 490 LINE"
);
}
);
};
layerId = "15B61E68-7076-43EF-9E3D-3B783472E8B2";
name = "Light SemiExtended";
paths = (
{
closed = 1;
nodes = (
"287 643 LINE",
"287 680 LINE",
"191 680 LINE SMOOTH",
"121 680 OFFCURVE",
"91 660 OFFCURVE",
"91 590 CURVE SMOOTH",
"91 480 LINE",
"101 490 LINE",
"26 490 LINE",
"26 454 LINE",
"101 454 LINE",
"91 464 LINE",
"91 0 LINE",
"136 0 LINE",
"136 464 LINE",
"126 454 LINE",
"272 454 LINE",
"272 490 LINE",
"126 490 LINE",
"136 480 LINE",
"136 636 LINE SMOOTH",
"136 641 OFFCURVE",
"139 643 OFFCURVE",
"143 643 CURVE SMOOTH"
);
}
);
width = 277;
},
{
layerId = "522BF62C-3FFD-47FE-9DEE-94F66EB24849";
name = "Bold SemiExtended";
paths = (
{
closed = 1;
nodes = (
"341 564 LINE",
"341 684 LINE",
"224 685 LINE SMOOTH",
"114 686 OFFCURVE",
"69 645 OFFCURVE",
"69 540 CURVE SMOOTH",
"69 470 LINE",
"89 490 LINE",
"19 490 LINE",
"19 380 LINE",
"89 380 LINE",
"69 400 LINE",
"69 0 LINE",
"211 0 LINE",
"211 400 LINE",
"191 380 LINE",
"321 380 LINE",
"321 490 LINE",
"191 490 LINE",
"211 470 LINE",
"211 551 LINE SMOOTH",
"211 561 OFFCURVE",
"215 565 OFFCURVE",
"225 565 CURVE SMOOTH"
);
}
);
width = 321;
}
);
unicode = 0066;
},
{
color = 3;
glyphname = g;
lastChange = "2016-01-15 18:16:33 +0000";
layers = (
{
anchors = (
{
name = top;
position = "{203, 490}";
}
);
background = {
paths = (
{
closed = 1;
nodes = (
"372 -197 OFFCURVE",
"435 -189 OFFCURVE",
"435 -59 CURVE SMOOTH",
"435 490 LINE",
"394 490 LINE",
"391 368 LINE",
"416 368 LINE",
"411 468 OFFCURVE",
"377 497 OFFCURVE",
"247 497 CURVE SMOOTH",
"84 497 OFFCURVE",
"52 435 OFFCURVE",
"52 240 CURVE SMOOTH",
"52 43 OFFCURVE",
"81 -7 OFFCURVE",
"237 -7 CURVE SMOOTH",
"358 -7 OFFCURVE",
"402 36 OFFCURVE",
"408 120 CURVE",
"391 120 LINE",
"391 -54 LINE SMOOTH",
"391 -153 OFFCURVE",
"358 -160 OFFCURVE",
"254 -160 CURVE SMOOTH",
"202 -160 OFFCURVE",
"143 -156 OFFCURVE",
"97 -150 CURVE",
"92 -189 LINE",
"134 -194 OFFCURVE",
"186 -197 OFFCURVE",
"237 -197 CURVE SMOOTH"
);
},
{
closed = 1;
nodes = (
"131 30 OFFCURVE",
"98 46 OFFCURVE",
"98 245 CURVE SMOOTH",
"98 417 OFFCURVE",
"123 460 OFFCURVE",
"242 460 CURVE SMOOTH",
"355 460 OFFCURVE",
"391 441 OFFCURVE",
"391 345 CURVE SMOOTH",
"391 148 LINE SMOOTH",
"391 70 OFFCURVE",
"349 30 OFFCURVE",
"242 30 CURVE SMOOTH"
);
}
);
};
layerId = "15B61E68-7076-43EF-9E3D-3B783472E8B2";
name = "Light SemiExtended";
paths = (
{
closed = 1;
nodes = (
"315 39 LINE SMOOTH",
"315 34 OFFCURVE",
"312 32 OFFCURVE",
"308 32 CURVE SMOOTH",
"103 32 LINE SMOOTH",
"99 32 OFFCURVE",
"96 34 OFFCURVE",
"96 39 CURVE SMOOTH",
"96 450 LINE SMOOTH",
"96 455 OFFCURVE",
"99 457 OFFCURVE",
"103 457 CURVE SMOOTH",
"322 454 LINE",
"315 461 LINE"
);
},
{
closed = 1;
nodes = (
"315 -156 OFFCURVE",
"312 -158 OFFCURVE",
"308 -158 CURVE SMOOTH",
"59 -158 LINE",
"59 -195 LINE",
"260 -195 LINE SMOOTH",
"330 -195 OFFCURVE",
"360 -175 OFFCURVE",
"360 -105 CURVE SMOOTH",
"360 490 LINE",
"150 493 LINE SMOOTH",
"80 494 OFFCURVE",
"50 473 OFFCURVE",
"50 403 CURVE SMOOTH",
"50 85 LINE SMOOTH",
"50 15 OFFCURVE",
"80 -5 OFFCURVE",
"150 -5 CURVE SMOOTH",
"242 -5 LINE SMOOTH",
"302 -5 OFFCURVE",
"322 15 OFFCURVE",
"322 75 CURVE",
"315 32 LINE",
"315 -151 LINE SMOOTH"
);
}
);
width = 405;
},
{
anchors = (
{
name = top;
position = "{240, 490}";
}
);
layerId = "522BF62C-3FFD-47FE-9DEE-94F66EB24849";
name = "Bold SemiExtended";
paths = (
{
closed = 1;
nodes = (
"292 119 LINE SMOOTH",
"292 110 OFFCURVE",
"288 105 OFFCURVE",
"278 105 CURVE SMOOTH",
"194 105 LINE SMOOTH",
"184 105 OFFCURVE",
"180 109 OFFCURVE",
"180 119 CURVE SMOOTH",
"180 359 LINE SMOOTH",
"180 369 OFFCURVE",
"184 373 OFFCURVE",
"194 373 CURVE SMOOTH",
"307 373 LINE",
"292 389 LINE"
);
},
{
closed = 1;
nodes = (
"292 -76 OFFCURVE",
"288 -80 OFFCURVE",
"278 -80 CURVE SMOOTH",
"60 -80 LINE",
"60 -200 LINE",
"265 -200 LINE SMOOTH",
"385 -200 OFFCURVE",
"435 -155 OFFCURVE",
"435 -50 CURVE SMOOTH",
"435 490 LINE",
"190 493 LINE SMOOTH",
"80 494 OFFCURVE",
"40 458 OFFCURVE",
"40 358 CURVE SMOOTH",
"40 115 LINE SMOOTH",
"40 25 OFFCURVE",
"80 -10 OFFCURVE",
"170 -10 CURVE SMOOTH",
"195 -10 LINE SMOOTH",
"265 -10 OFFCURVE",
"296 35 OFFCURVE",
"296 105 CURVE",
"292 105 LINE",
"292 -66 LINE SMOOTH"
);
}
);
width = 479;
}
);
unicode = 0067;
},
{
color = 3;
glyphname = h;
lastChange = "2016-01-15 18:16:33 +0000";
layers = (
{
layerId = "15B61E68-7076-43EF-9E3D-3B783472E8B2";
name = "Light SemiExtended";
paths = (
{
closed = 1;
nodes = (
"178 495 LINE SMOOTH",
"118 495 OFFCURVE",
"93 475 OFFCURVE",
"93 415 CURVE",
"105 458 LINE",
"105 675 LINE",
"60 675 LINE",
"60 0 LINE",
"105 0 LINE",
"105 451 LINE SMOOTH",
"105 457 OFFCURVE",
"108 458 OFFCURVE",
"112 458 CURVE SMOOTH",
"318 458 LINE SMOOTH",
"322 458 OFFCURVE",
"325 456 OFFCURVE",
"325 451 CURVE SMOOTH",
"325 0 LINE",
"370 0 LINE",
"370 405 LINE SMOOTH",
"370 475 OFFCURVE",
"340 495 OFFCURVE",
"270 495 CURVE SMOOTH"
);
}
);
width = 423;
},
{
layerId = "522BF62C-3FFD-47FE-9DEE-94F66EB24849";
name = "Bold SemiExtended";
paths = (
{
closed = 1;
nodes = (
"282 500 LINE SMOOTH",
"211 500 OFFCURVE",
"180 455 OFFCURVE",
"180 385 CURVE",
"185 385 LINE",
"185 675 LINE",
"43 675 LINE",
"45 0 LINE",
"187 0 LINE",
"185 371 LINE SMOOTH",
"185 380 OFFCURVE",
"189 385 OFFCURVE",
"199 385 CURVE SMOOTH",
"282 385 LINE SMOOTH",
"292 385 OFFCURVE",
"296 381 OFFCURVE",
"296 371 CURVE SMOOTH",
"296 0 LINE",
"438 0 LINE",
"438 375 LINE SMOOTH",
"438 465 OFFCURVE",
"398 500 OFFCURVE",
"308 500 CURVE SMOOTH"
);
}
);
width = 478;
}
);
unicode = 0068;
},
{
color = 3;
glyphname = i;
lastChange = "2016-01-15 18:16:33 +0000";
layers = (
{
background = {
paths = (
{
closed = 0;
nodes = (
"91 484 LINE",
"91 -1 LINE"
);
}
);
};
guideLines = (
{
angle = 90;
position = "{111, 560}";
}
);
layerId = "15B61E68-7076-43EF-9E3D-3B783472E8B2";
name = "Light SemiExtended";
paths = (
{
closed = 1;
nodes = (
"115 0 LINE",
"115 490 LINE",
"70 490 LINE",
"70 0 LINE"
);
},
{
closed = 1;
nodes = (
"115 607 LINE",
"115 662 LINE",
"70 662 LINE",
"70 607 LINE"
);
}
);
width = 185;
},
{
layerId = "522BF62C-3FFD-47FE-9DEE-94F66EB24849";
name = "Bold SemiExtended";
paths = (
{
closed = 1;
nodes = (
"200 0 LINE",
"200 490 LINE",
"58 490 LINE",
"58 0 LINE"
);
},
{
closed = 1;
nodes = (
"200 552 LINE",
"200 672 LINE",
"58 672 LINE",
"58 552 LINE"
);
}
);
width = 258;
}
);
unicode = 0069;
},
{
color = 3;
glyphname = dotlessi;
lastChange = "2016-01-15 18:16:33 +0000";
layers = (
{
anchors = (
{
name = ogonek;
position = "{115, 0}";
},
{
name = top;
position = "{93, 490}";
}
);
layerId = "15B61E68-7076-43EF-9E3D-3B783472E8B2";
name = "Light SemiExtended";
paths = (
{
closed = 1;
nodes = (
"115 0 LINE",
"115 490 LINE",
"70 490 LINE",
"70 0 LINE"
);
}
);
width = 185;
},
{
anchors = (
{
name = ogonek;
position = "{200, 0}";
},
{
name = top;
position = "{129, 490}";
}
);
layerId = "522BF62C-3FFD-47FE-9DEE-94F66EB24849";
name = "Bold SemiExtended";
paths = (
{
closed = 1;
nodes = (
"200 0 LINE",
"200 490 LINE",
"58 490 LINE",
"58 0 LINE"
);
}
);
width = 258;
}
);
unicode = 0131;
},
{
color = 3;
glyphname = j;
lastChange = "2016-01-15 18:16:33 +0000";
layers = (
{
background = {
paths = (
{
closed = 1;
nodes = (
"112 607 LINE",
"112 662 LINE",
"68 662 LINE",
"68 607 LINE"
);
},
{
closed = 1;
nodes = (
"112 490 LINE",
"68 490 LINE",
"68 -59 LINE SMOOTH",
"68 -134 OFFCURVE",
"48 -160 OFFCURVE",
"-32 -160 CURVE",
"-33 -197 LINE",
"78 -197 OFFCURVE",
"112 -163 OFFCURVE",
"112 -64 CURVE SMOOTH"
);
}
);
};
layerId = "15B61E68-7076-43EF-9E3D-3B783472E8B2";
name = "Light SemiExtended";
paths = (
{
closed = 1;
nodes = (
"115 607 LINE",
"115 662 LINE",
"70 662 LINE",
"70 607 LINE"
);
},
{
closed = 1;
nodes = (
"70 -156 OFFCURVE",
"67 -158 OFFCURVE",
"63 -158 CURVE SMOOTH",
"-31 -158 LINE",
"-31 -195 LINE",
"15 -195 LINE SMOOTH",
"85 -195 OFFCURVE",
"115 -175 OFFCURVE",
"115 -105 CURVE SMOOTH",
"115 490 LINE",
"70 490 LINE",
"70 -151 LINE SMOOTH"
);
}
);
width = 180;
},
{
layerId = "522BF62C-3FFD-47FE-9DEE-94F66EB24849";
name = "Bold SemiExtended";
paths = (
{
closed = 1;
nodes = (
"192 552 LINE",
"192 672 LINE",
"50 672 LINE",
"50 552 LINE"
);
},
{
closed = 1;
nodes = (
"50 -76 OFFCURVE",
"46 -80 OFFCURVE",
"36 -80 CURVE SMOOTH",
"-33 -80 LINE",
"-33 -200 LINE",
"22 -200 LINE SMOOTH",
"142 -200 OFFCURVE",
"192 -155 OFFCURVE",
"192 -50 CURVE SMOOTH",
"192 490 LINE",
"50 490 LINE",
"50 -66 LINE SMOOTH"
);
}
);
width = 237;
}
);
unicode = 006A;
},
{
color = 3;
glyphname = k;
lastChange = "2016-01-15 18:16:33 +0000";
layers = (
{
background = {
paths = (
{
closed = 1;
nodes = (
"68 0 LINE",
"176 221 LINE SMOOTH",
"178 226 OFFCURVE",
"179 228 OFFCURVE",
"183 228 CURVE SMOOTH",
"254 228 LINE SMOOTH",
"258 228 OFFCURVE",
"259 226 OFFCURVE",
"261 221 CURVE SMOOTH",
"374 0 LINE",
"423 0 LINE",
"331 174 LINE SMOOTH",
"297 238 OFFCURVE",
"296 254 OFFCURVE",
"227 254 CURVE",
"227 238 LINE",
"283 240 OFFCURVE",
"289 258 OFFCURVE",
"317 318 CURVE SMOOTH",
"399 490 LINE",
"356 490 LINE",
"254 271 LINE SMOOTH",
"252 266 OFFCURVE",
"251 264 OFFCURVE",
"247 264 CURVE SMOOTH",
"195 264 LINE SMOOTH",
"191 264 OFFCURVE",
"190 266 OFFCURVE",
"188 271 CURVE SMOOTH",
"86 490 LINE",
"40 490 LINE",
"120 318 LINE SMOOTH",
"148 258 OFFCURVE",
"156 240 OFFCURVE",
"212 238 CURVE",
"212 254 LINE",
"143 254 OFFCURVE",
"143 238 OFFCURVE",
"110 174 CURVE SMOOTH",
"20 0 LINE"
);
}
);
};
guideLines = (
{
position = "{178, 264}";
}
);
layerId = "15B61E68-7076-43EF-9E3D-3B783472E8B2";
name = "Light SemiExtended";
paths = (
{
closed = 1;
nodes = (
"117 0 LINE",
"117 675 LINE",
"73 675 LINE",
"73 0 LINE"
);
},
{
closed = 1;
nodes = (
"222 246 LINE SMOOTH",
"292 246 OFFCURVE",
"302 260 OFFCURVE",
"325 326 CURVE SMOOTH",
"382 490 LINE",
"341 490 LINE",
"266 279 LINE SMOOTH",
"264 274 OFFCURVE",
"263 272 OFFCURVE",
"259 272 CURVE SMOOTH",
"105 272 LINE",
"105 246 LINE"
);
},
{
closed = 1;
nodes = (
"274 236 LINE SMOOTH",
"278 236 OFFCURVE",
"279 234 OFFCURVE",
"281 229 CURVE SMOOTH",
"376 0 LINE",
"421 0 LINE",
"344 182 LINE SMOOTH",
"317 246 OFFCURVE",
"311 262 OFFCURVE",
"241 262 CURVE SMOOTH",
"105 262 LINE",
"105 236 LINE"
);
}
);
width = 426;
},
{
guideLines = (
{
position = "{178, 251}";
}
);
layerId = "522BF62C-3FFD-47FE-9DEE-94F66EB24849";
name = "Bold SemiExtended";
paths = (
{
closed = 1;
nodes = (
"190 0 LINE",
"190 675 LINE",
"50 675 LINE",
"50 0 LINE"
);
},
{
closed = 1;
nodes = (
"260 242 LINE SMOOTH",
"365 242 OFFCURVE",
"384 254 OFFCURVE",
"410 352 CURVE SMOOTH",
"447 490 LINE",
"305 490 LINE",
"265 331 LINE SMOOTH",
"263 321 OFFCURVE",
"260 317 OFFCURVE",
"250 317 CURVE SMOOTH",
"142 317 LINE",
"142 242 LINE"
);
},
{
closed = 1;
nodes = (
"271 197 LINE SMOOTH",
"281 197 OFFCURVE",
"283 193 OFFCURVE",
"286 183 CURVE SMOOTH",
"338 0 LINE",
"484 0 LINE",
"436 162 LINE SMOOTH",
"408 257 OFFCURVE",
"386 272 OFFCURVE",
"281 272 CURVE SMOOTH",
"142 272 LINE",
"142 197 LINE"
);
}
);
width = 486;
}
);
unicode = 006B;
},
{
color = 3;
glyphname = l;
lastChange = "2016-01-15 18:16:33 +0000";
layers = (
{
anchors = (
{
name = bottom;
position = "{93, 0}";
},
{
name = top;
position = "{93, 644}";
},
{
name = topright;
position = "{165, 644}";
}
);
layerId = "15B61E68-7076-43EF-9E3D-3B783472E8B2";
name = "Light SemiExtended";
paths = (
{
closed = 1;
nodes = (
"115 0 LINE",
"115 675 LINE",
"70 675 LINE",
"70 0 LINE"
);
}
);
width = 185;
},
{
anchors = (
{
name = bottom;
position = "{126, 0}";
},
{
name = top;
position = "{116, 652}";
},
{
name = topright;
position = "{232, 652}";
}
);
layerId = "522BF62C-3FFD-47FE-9DEE-94F66EB24849";
name = "Bold SemiExtended";
paths = (
{
closed = 1;
nodes = (
"197 0 LINE",
"197 675 LINE",
"55 675 LINE",
"55 0 LINE"
);
}
);
width = 252;
}
);
unicode = 006C;
},
{
color = 3;
glyphname = lslash;
lastChange = "2016-01-15 18:16:33 +0000";
layers = (
{
background = {
paths = (
{
closed = 1;
nodes = (
"244 420 LINE",
"-10 328 LINE",
"18 243 LINE",
"272 336 LINE"
);
}
);
};
components = (
{
name = l;
}
);
layerId = "15B61E68-7076-43EF-9E3D-3B783472E8B2";
name = "Light SemiExtended";
paths = (
{
closed = 1;
nodes = (
"183 388 LINE",
"-8 319 LINE",
"4 282 LINE",
"195 352 LINE"
);
}
);
width = 185;
},
{
components = (
{
name = l;
transform = "{1, 0, 0, 1, 3, 0}";
}
);
layerId = "522BF62C-3FFD-47FE-9DEE-94F66EB24849";
name = "Bold SemiExtended";
paths = (
{
closed = 1;
nodes = (
"244 420 LINE",
"-10 328 LINE",
"18 243 LINE",
"272 336 LINE"
);
}
);
width = 262;
}
);
unicode = 0142;
},
{
color = 3;
glyphname = m;
lastChange = "2016-01-15 18:16:33 +0000";
layers = (
{
background = {
paths = (
{
closed = 1;
nodes = (
"104 0 LINE",
"104 343 LINE SMOOTH",
"104 418 OFFCURVE",
"142 460 OFFCURVE",
"246 460 CURVE SMOOTH",
"349 460 OFFCURVE",
"384 444 OFFCURVE",
"384 341 CURVE SMOOTH",
"384 0 LINE",
"428 0 LINE",
"428 343 LINE",
"428 418 OFFCURVE",
"466 460 OFFCURVE",
"570 460 CURVE SMOOTH",
"670 460 OFFCURVE",
"706 444 OFFCURVE",
"706 341 CURVE SMOOTH",
"706 0 LINE",
"750 0 LINE",
"750 346 LINE SMOOTH",
"750 472 OFFCURVE",
"698 497 OFFCURVE",
"575 497 CURVE SMOOTH",
"467 497 OFFCURVE",
"416 453 OFFCURVE",
"406 376 CURVE",
"427 377 LINE",
"418 476 OFFCURVE",
"362 497 OFFCURVE",
"251 497 CURVE SMOOTH",
"142 497 OFFCURVE",
"95 452 OFFCURVE",
"83 375 CURVE",
"104 375 LINE",
"101 490 LINE",
"60 490 LINE",
"60 0 LINE"
);
}
);
};
layerId = "15B61E68-7076-43EF-9E3D-3B783472E8B2";
name = "Light SemiExtended";
paths = (
{
closed = 1;
nodes = (
"168 495 LINE SMOOTH",
"108 495 OFFCURVE",
"83 475 OFFCURVE",
"83 415 CURVE",
"95 458 LINE",
"87 490 LINE",
"50 490 LINE",
"50 0 LINE",
"95 0 LINE",
"95 451 LINE SMOOTH",
"95 457 OFFCURVE",
"98 458 OFFCURVE",
"102 458 CURVE SMOOTH",
"298 458 LINE SMOOTH",
"302 458 OFFCURVE",
"305 456 OFFCURVE",
"305 451 CURVE SMOOTH",
"305 0 LINE",
"350 0 LINE",
"350 405 LINE SMOOTH",
"350 475 OFFCURVE",
"320 495 OFFCURVE",
"250 495 CURVE SMOOTH"
);
},
{
closed = 1;
nodes = (
"423 495 LINE SMOOTH",
"363 495 OFFCURVE",
"338 475 OFFCURVE",
"338 415 CURVE",
"350 405 LINE",
"350 451 LINE",
"350 457 OFFCURVE",
"353 458 OFFCURVE",
"357 458 CURVE SMOOTH",
"553 458 LINE SMOOTH",
"557 458 OFFCURVE",
"560 456 OFFCURVE",
"560 451 CURVE SMOOTH",
"560 0 LINE",
"605 0 LINE",
"605 405 LINE SMOOTH",
"605 475 OFFCURVE",
"575 495 OFFCURVE",
"505 495 CURVE SMOOTH"
);
}
);
width = 658;
},
{
layerId = "522BF62C-3FFD-47FE-9DEE-94F66EB24849";
name = "Bold SemiExtended";
paths = (
{
closed = 1;
nodes = (
"284 500 LINE SMOOTH",
"213 500 OFFCURVE",
"182 455 OFFCURVE",
"182 385 CURVE",
"187 385 LINE",
"174 490 LINE",
"45 490 LINE",
"47 0 LINE",
"189 0 LINE",
"187 371 LINE SMOOTH",
"187 380 OFFCURVE",
"191 385 OFFCURVE",
"201 385 CURVE SMOOTH",
"274 385 LINE SMOOTH",
"284 385 OFFCURVE",
"288 381 OFFCURVE",
"288 371 CURVE SMOOTH",
"288 0 LINE",
"430 0 LINE",
"430 375 LINE SMOOTH",
"430 465 OFFCURVE",
"390 500 OFFCURVE",
"300 500 CURVE SMOOTH"
);
},
{
closed = 1;
nodes = (
"527 500 LINE SMOOTH",
"456 500 OFFCURVE",
"425 455 OFFCURVE",
"425 385 CURVE",
"425 371 LINE",
"430 371 LINE",
"430 380 OFFCURVE",
"434 385 OFFCURVE",
"444 385 CURVE SMOOTH",
"515 385 LINE SMOOTH",
"525 385 OFFCURVE",
"529 381 OFFCURVE",
"529 371 CURVE SMOOTH",
"529 0 LINE",
"671 0 LINE",
"671 375 LINE SMOOTH",
"671 465 OFFCURVE",
"631 500 OFFCURVE",
"541 500 CURVE SMOOTH"
);
}
);
width = 703;
}
);
unicode = 006D;
},
{
color = 3;
glyphname = n;
lastChange = "2016-01-15 18:16:33 +0000";
layers = (
{
anchors = (
{
name = bottom;
position = "{212, 0}";
},
{
name = top;
position = "{222, 490}";
}
);
background = {
paths = (
{
closed = 1;
nodes = (
"178 495 LINE SMOOTH",
"118 495 OFFCURVE",
"98 475 OFFCURVE",
"98 415 CURVE",
"105 458 LINE",
"97 490 LINE",
"60 490 LINE",
"60 0 LINE",
"105 0 LINE",
"105 458 LINE",
"318 458 LINE SMOOTH",
"322 458 OFFCURVE",
"325 456 OFFCURVE",
"325 451 CURVE SMOOTH",
"325 0 LINE",
"370 0 LINE",
"370 405 LINE SMOOTH",
"370 475 OFFCURVE",
"340 495 OFFCURVE",
"270 495 CURVE SMOOTH"
);
}
);
};
layerId = "15B61E68-7076-43EF-9E3D-3B783472E8B2";
name = "Light SemiExtended";
paths = (
{
closed = 1;
nodes = (
"178 495 LINE SMOOTH",
"118 495 OFFCURVE",
"93 475 OFFCURVE",
"93 415 CURVE",
"105 458 LINE",
"97 490 LINE",
"60 490 LINE",
"60 0 LINE",
"105 0 LINE",
"105 451 LINE SMOOTH",
"105 457 OFFCURVE",
"108 458 OFFCURVE",
"112 458 CURVE SMOOTH",
"318 458 LINE SMOOTH",
"322 458 OFFCURVE",
"325 456 OFFCURVE",
"325 451 CURVE SMOOTH",
"325 0 LINE",
"370 0 LINE",
"370 405 LINE SMOOTH",
"370 475 OFFCURVE",
"340 495 OFFCURVE",
"270 495 CURVE SMOOTH"
);
}
);
width = 423;
},
{
anchors = (
{
name = bottom;
position = "{243, 0}";
},
{
name = top;
position = "{253, 490}";
}
);
layerId = "522BF62C-3FFD-47FE-9DEE-94F66EB24849";
name = "Bold SemiExtended";
paths = (
{
closed = 1;
nodes = (
"289 500 LINE SMOOTH",
"218 500 OFFCURVE",
"187 455 OFFCURVE",
"187 385 CURVE",
"192 385 LINE",
"179 490 LINE",
"50 490 LINE",
"52 0 LINE",
"194 0 LINE",
"192 371 LINE SMOOTH",
"192 380 OFFCURVE",
"196 385 OFFCURVE",
"206 385 CURVE SMOOTH",
"289 385 LINE SMOOTH",
"299 385 OFFCURVE",
"303 381 OFFCURVE",
"303 371 CURVE SMOOTH",
"303 0 LINE",
"445 0 LINE",
"445 375 LINE SMOOTH",
"445 465 OFFCURVE",
"405 500 OFFCURVE",
"315 500 CURVE SMOOTH"
);
}
);
width = 485;
}
);
unicode = 006E;
},
{
color = 3;
glyphname = o;
lastChange = "2016-01-15 18:16:33 +0000";
layers = (
{
anchors = (
{
name = top;
position = "{212, 490}";
}
);
background = {
paths = (
{
closed = 1;
nodes = (
"330 458 LINE SMOOTH",
"334 458 OFFCURVE",
"337 456 OFFCURVE",
"337 451 CURVE SMOOTH",
"337 39 LINE SMOOTH",
"337 34 OFFCURVE",
"334 32 OFFCURVE",
"330 32 CURVE SMOOTH",
"103 32 LINE SMOOTH",
"99 32 OFFCURVE",
"96 34 OFFCURVE",
"96 39 CURVE SMOOTH",
"96 451 LINE SMOOTH",
"96 456 OFFCURVE",
"99 458 OFFCURVE",
"103 458 CURVE SMOOTH"
);
},
{
closed = 1;
nodes = (
"50 85 LINE SMOOTH",
"50 27 OFFCURVE",
"82 -5 OFFCURVE",
"140 -5 CURVE SMOOTH",
"293 -5 LINE SMOOTH",
"351 -5 OFFCURVE",
"383 27 OFFCURVE",
"383 85 CURVE SMOOTH",
"383 405 LINE SMOOTH",
"383 463 OFFCURVE",
"351 495 OFFCURVE",
"293 495 CURVE SMOOTH",
"140 495 LINE SMOOTH",
"82 495 OFFCURVE",
"50 463 OFFCURVE",
"50 405 CURVE SMOOTH"
);
}
);
};
layerId = "15B61E68-7076-43EF-9E3D-3B783472E8B2";
name = "Light SemiExtended";
paths = (
{
closed = 1;
nodes = (
"319 458 LINE SMOOTH",
"323 458 OFFCURVE",
"326 456 OFFCURVE",
"326 451 CURVE SMOOTH",
"326 39 LINE SMOOTH",
"326 34 OFFCURVE",
"323 32 OFFCURVE",
"319 32 CURVE SMOOTH",
"103 32 LINE SMOOTH",
"99 32 OFFCURVE",
"96 34 OFFCURVE",
"96 39 CURVE SMOOTH",
"96 451 LINE SMOOTH",
"96 456 OFFCURVE",
"99 458 OFFCURVE",
"103 458 CURVE SMOOTH"
);
},
{
closed = 1;
nodes = (
"50 85 LINE SMOOTH",
"50 15 OFFCURVE",
"80 -5 OFFCURVE",
"150 -5 CURVE SMOOTH",
"272 -5 LINE SMOOTH",
"342 -5 OFFCURVE",
"372 15 OFFCURVE",
"372 85 CURVE SMOOTH",
"372 405 LINE SMOOTH",
"372 475 OFFCURVE",
"342 495 OFFCURVE",
"272 495 CURVE SMOOTH",
"150 495 LINE SMOOTH",
"80 495 OFFCURVE",
"50 475 OFFCURVE",
"50 405 CURVE SMOOTH"
);
}
);
width = 422;
},
{
anchors = (
{
name = top;
position = "{242, 490}";
}
);
layerId = "522BF62C-3FFD-47FE-9DEE-94F66EB24849";
name = "Bold SemiExtended";
paths = (
{
closed = 1;
nodes = (
"281 380 LINE SMOOTH",
"290 380 OFFCURVE",
"295 376 OFFCURVE",
"295 366 CURVE SMOOTH",
"295 124 LINE SMOOTH",
"295 114 OFFCURVE",
"290 110 OFFCURVE",
"281 110 CURVE SMOOTH",
"197 110 LINE SMOOTH",
"188 110 OFFCURVE",
"183 114 OFFCURVE",
"183 124 CURVE SMOOTH",
"183 366 LINE SMOOTH",
"183 376 OFFCURVE",
"188 380 OFFCURVE",
"197 380 CURVE SMOOTH"
);
},
{
closed = 1;
nodes = (
"40 140 LINE SMOOTH",
"40 35 OFFCURVE",
"90 -10 OFFCURVE",
"210 -10 CURVE SMOOTH",
"268 -10 LINE SMOOTH",
"388 -10 OFFCURVE",
"438 35 OFFCURVE",
"438 140 CURVE SMOOTH",
"438 350 LINE SMOOTH",
"438 455 OFFCURVE",
"388 500 OFFCURVE",
"268 500 CURVE SMOOTH",
"210 500 LINE SMOOTH",
"90 500 OFFCURVE",
"40 455 OFFCURVE",
"40 350 CURVE SMOOTH"
);
}
);
width = 478;
}
);
unicode = 006F;
},
{
color = 3;
glyphname = oslash;
lastChange = "2016-01-15 18:16:33 +0000";
layers = (
{
components = (
{
name = o;
}
);
layerId = "15B61E68-7076-43EF-9E3D-3B783472E8B2";
name = "Light SemiExtended";
paths = (
{
closed = 1;
nodes = (
"334 545 LINE",
"50 -54 LINE",
"89 -54 LINE",
"373 545 LINE"
);
}
);
width = 422;
},
{
components = (
{
name = o;
}
);
layerId = "522BF62C-3FFD-47FE-9DEE-94F66EB24849";
name = "Bold SemiExtended";
paths = (
{
closed = 1;
nodes = (
"347 555 LINE",
"63 -64 LINE",
"132 -64 LINE",
"416 555 LINE"
);
}
);
width = 478;
}
);
unicode = 00F8;
},
{
color = 3;
glyphname = oe;
lastChange = "2016-01-15 18:16:33 +0000";
layers = (
{
background = {
paths = (
{
closed = 1;
nodes = (
"318 458 LINE SMOOTH",
"322 458 OFFCURVE",
"325 456 OFFCURVE",
"325 451 CURVE SMOOTH",
"325 39 LINE SMOOTH",
"325 34 OFFCURVE",
"322 32 OFFCURVE",
"318 32 CURVE SMOOTH",
"102 32 LINE SMOOTH",
"98 32 OFFCURVE",
"95 34 OFFCURVE",
"95 39 CURVE SMOOTH",
"95 451 LINE SMOOTH",
"95 456 OFFCURVE",
"98 458 OFFCURVE",
"102 458 CURVE SMOOTH"
);
},
{
closed = 1;
nodes = (
"49 85 LINE SMOOTH",
"49 15 OFFCURVE",
"79 -5 OFFCURVE",
"149 -5 CURVE SMOOTH",
"271 -5 LINE SMOOTH",
"341 -5 OFFCURVE",
"371 15 OFFCURVE",
"371 85 CURVE SMOOTH",
"371 405 LINE SMOOTH",
"371 475 OFFCURVE",
"341 495 OFFCURVE",
"271 495 CURVE SMOOTH",
"149 495 LINE SMOOTH",
"79 495 OFFCURVE",
"49 475 OFFCURVE",
"49 405 CURVE SMOOTH"
);
},
{
closed = 1;
nodes = (
"626 -5 LINE",
"626 32 LINE",
"378 32 LINE SMOOTH",
"374 32 OFFCURVE",
"371 34 OFFCURVE",
"371 39 CURVE SMOOTH",
"371 451 LINE SMOOTH",
"371 456 OFFCURVE",
"374 458 OFFCURVE",
"378 458 CURVE SMOOTH",
"583 458 LINE SMOOTH",
"587 458 OFFCURVE",
"590 456 OFFCURVE",
"590 451 CURVE SMOOTH",
"590 234 LINE",
"364 234 LINE",
"364 198 LINE",
"636 198 LINE",
"636 405 LINE SMOOTH",
"636 475 OFFCURVE",
"606 495 OFFCURVE",
"536 495 CURVE SMOOTH",
"419 495 LINE SMOOTH",
"349 495 OFFCURVE",
"325 475 OFFCURVE",
"325 405 CURVE SMOOTH",
"325 85 LINE SMOOTH",
"325 15 OFFCURVE",
"355 -5 OFFCURVE",
"425 -5 CURVE SMOOTH"
);
}
);
};
layerId = "15B61E68-7076-43EF-9E3D-3B783472E8B2";
name = "Light SemiExtended";
paths = (
{
closed = 1;
nodes = (
"319 458 LINE SMOOTH",
"323 458 OFFCURVE",
"326 456 OFFCURVE",
"326 451 CURVE SMOOTH",
"326 39 LINE SMOOTH",
"326 34 OFFCURVE",
"323 32 OFFCURVE",
"319 32 CURVE SMOOTH",
"103 32 LINE SMOOTH",
"99 32 OFFCURVE",
"96 34 OFFCURVE",
"96 39 CURVE SMOOTH",
"96 451 LINE SMOOTH",
"96 456 OFFCURVE",
"99 458 OFFCURVE",
"103 458 CURVE SMOOTH"
);
},
{
closed = 1;
nodes = (
"334 85 LINE",
"335 15 OFFCURVE",
"359 -5 OFFCURVE",
"429 -5 CURVE SMOOTH",
"626 -5 LINE",
"626 32 LINE",
"378 32 LINE SMOOTH",
"374 32 OFFCURVE",
"371 34 OFFCURVE",
"371 39 CURVE SMOOTH",
"371 451 LINE SMOOTH",
"371 456 OFFCURVE",
"374 458 OFFCURVE",
"378 458 CURVE SMOOTH",
"583 458 LINE SMOOTH",
"587 458 OFFCURVE",
"590 456 OFFCURVE",
"590 451 CURVE SMOOTH",
"590 234 LINE",
"364 234 LINE",
"364 198 LINE",
"636 198 LINE",
"636 405 LINE SMOOTH",
"636 475 OFFCURVE",
"606 495 OFFCURVE",
"536 495 CURVE SMOOTH",
"423 495 LINE SMOOTH",
"353 495 OFFCURVE",
"335 475 OFFCURVE",
"334 405 CURVE",
"364 405 LINE",
"364 475 OFFCURVE",
"340 495 OFFCURVE",
"270 495 CURVE SMOOTH",
"150 495 LINE SMOOTH",
"80 495 OFFCURVE",
"50 475 OFFCURVE",
"50 405 CURVE SMOOTH",
"50 85 LINE SMOOTH",
"50 15 OFFCURVE",
"80 -5 OFFCURVE",
"150 -5 CURVE SMOOTH",
"270 -5 LINE SMOOTH",
"340 -5 OFFCURVE",
"364 15 OFFCURVE",
"364 85 CURVE"
);
}
);
width = 681;
},
{
guideLines = (
{
position = "{396, 55}";
}
);
layerId = "522BF62C-3FFD-47FE-9DEE-94F66EB24849";
name = "Bold SemiExtended";
paths = (
{
closed = 1;
nodes = (
"283 380 LINE SMOOTH",
"292 380 OFFCURVE",
"297 376 OFFCURVE",
"297 366 CURVE SMOOTH",
"297 124 LINE SMOOTH",
"297 114 OFFCURVE",
"292 110 OFFCURVE",
"283 110 CURVE SMOOTH",
"197 110 LINE SMOOTH",
"188 110 OFFCURVE",
"183 114 OFFCURVE",
"183 124 CURVE SMOOTH",
"183 366 LINE SMOOTH",
"183 376 OFFCURVE",
"188 380 OFFCURVE",
"197 380 CURVE SMOOTH"
);
},
{
closed = 1;
nodes = (
"354 57 LINE",
"375 15 OFFCURVE",
"417 -6 OFFCURVE",
"491 -6 CURVE SMOOTH",
"664 -6 LINE",
"664 114 LINE",
"450 114 LINE SMOOTH",
"440 114 OFFCURVE",
"436 118 OFFCURVE",
"436 128 CURVE SMOOTH",
"436 371 LINE SMOOTH",
"436 380 OFFCURVE",
"440 385 OFFCURVE",
"450 385 CURVE SMOOTH",
"525 385 LINE SMOOTH",
"535 385 OFFCURVE",
"539 380 OFFCURVE",
"539 371 CURVE SMOOTH",
"539 282 LINE",
"420 282 LINE",
"420 182 LINE",
"679 182 LINE",
"679 360 LINE SMOOTH",
"679 465 OFFCURVE",
"639 500 OFFCURVE",
"529 500 CURVE SMOOTH",
"471 500 LINE SMOOTH",
"399 500 OFFCURVE",
"365 484 OFFCURVE",
"350 448 CURVE",
"377 448 LINE",
"357 483 OFFCURVE",
"317 500 OFFCURVE",
"243 500 CURVE SMOOTH",
"210 500 LINE SMOOTH",
"90 500 OFFCURVE",
"40 455 OFFCURVE",
"40 350 CURVE SMOOTH",
"40 140 LINE SMOOTH",
"40 35 OFFCURVE",
"90 -10 OFFCURVE",
"210 -10 CURVE SMOOTH",
"243 -10 LINE SMOOTH",
"320 -10 OFFCURVE",
"362 12 OFFCURVE",
"382 57 CURVE"
);
}
);
width = 714;
}
);
unicode = 0153;
},
{
color = 3;
glyphname = p;
lastChange = "2016-01-15 18:16:33 +0000";
layers = (
{
background = {
paths = (
{
closed = 1;
nodes = (
"270 -3 LINE SMOOTH",
"340 -4 OFFCURVE",
"370 17 OFFCURVE",
"370 87 CURVE SMOOTH",
"370 405 LINE SMOOTH",
"370 475 OFFCURVE",
"340 495 OFFCURVE",
"270 495 CURVE SMOOTH",
"178 495 LINE SMOOTH",
"118 495 OFFCURVE",
"98 475 OFFCURVE",
"98 415 CURVE",
"105 458 LINE",
"105 675 LINE",
"60 675 LINE",
"60 0 LINE"
);
},
{
closed = 1;
nodes = (
"105 451 LINE SMOOTH",
"105 456 OFFCURVE",
"108 458 OFFCURVE",
"112 458 CURVE SMOOTH",
"317 458 LINE SMOOTH",
"321 458 OFFCURVE",
"324 456 OFFCURVE",
"324 451 CURVE SMOOTH",
"324 40 LINE SMOOTH",
"324 35 OFFCURVE",
"321 33 OFFCURVE",
"317 33 CURVE SMOOTH",
"98 36 LINE",
"105 29 LINE"
);
}
);
};
layerId = "15B61E68-7076-43EF-9E3D-3B783472E8B2";
name = "Light SemiExtended";
paths = (
{
closed = 1;
nodes = (
"105 -190 LINE",
"105 0 LINE",
"270 -3 LINE SMOOTH",
"340 -4 OFFCURVE",
"370 17 OFFCURVE",
"370 87 CURVE SMOOTH",
"370 405 LINE SMOOTH",
"370 475 OFFCURVE",
"340 495 OFFCURVE",
"270 495 CURVE SMOOTH",
"178 495 LINE SMOOTH",
"118 495 OFFCURVE",
"98 475 OFFCURVE",
"98 415 CURVE",
"105 458 LINE",
"97 490 LINE",
"60 490 LINE",
"60 -190 LINE"
);
},
{
closed = 1;
nodes = (
"105 451 LINE SMOOTH",
"105 456 OFFCURVE",
"108 458 OFFCURVE",
"112 458 CURVE SMOOTH",
"317 458 LINE SMOOTH",
"321 458 OFFCURVE",
"324 456 OFFCURVE",
"324 451 CURVE SMOOTH",
"324 40 LINE SMOOTH",
"324 35 OFFCURVE",
"321 33 OFFCURVE",
"317 33 CURVE SMOOTH",
"98 36 LINE",
"105 29 LINE"
);
}
);
width = 420;
},
{
layerId = "522BF62C-3FFD-47FE-9DEE-94F66EB24849";
name = "Bold SemiExtended";
paths = (
{
closed = 1;
nodes = (
"198 -190 LINE",
"198 -2 LINE",
"300 -2 LINE SMOOTH",
"410 -2 OFFCURVE",
"450 33 OFFCURVE",
"450 133 CURVE SMOOTH",
"450 375 LINE SMOOTH",
"450 465 OFFCURVE",
"410 500 OFFCURVE",
"320 500 CURVE SMOOTH",
"295 500 LINE SMOOTH",
"225 500 OFFCURVE",
"194 455 OFFCURVE",
"194 385 CURVE",
"198 385 LINE",
"184 490 LINE",
"55 490 LINE",
"55 -190 LINE"
);
},
{
closed = 1;
nodes = (
"198 371 LINE SMOOTH",
"198 380 OFFCURVE",
"202 385 OFFCURVE",
"212 385 CURVE SMOOTH",
"296 385 LINE SMOOTH",
"306 385 OFFCURVE",
"310 381 OFFCURVE",
"310 371 CURVE SMOOTH",
"310 129 LINE SMOOTH",
"310 119 OFFCURVE",
"306 115 OFFCURVE",
"296 115 CURVE SMOOTH",
"183 115 LINE",
"198 99 LINE"
);
}
);
width = 490;
}
);
unicode = 0070;
},
{
color = 3;
glyphname = thorn;
lastChange = "2016-01-15 18:16:33 +0000";
layers = (
{
background = {
paths = (
{
closed = 1;
nodes = (
"105 0 LINE",
"105 675 LINE",
"60 675 LINE",
"60 0 LINE"
);
}
);
};
layerId = "15B61E68-7076-43EF-9E3D-3B783472E8B2";
name = "Light SemiExtended";
paths = (
{
closed = 1;
nodes = (
"105 -190 LINE",
"105 0 LINE",
"270 -3 LINE SMOOTH",
"340 -4 OFFCURVE",
"370 17 OFFCURVE",
"370 87 CURVE SMOOTH",
"370 405 LINE SMOOTH",
"370 475 OFFCURVE",
"340 495 OFFCURVE",
"270 495 CURVE SMOOTH",
"178 495 LINE SMOOTH",
"118 495 OFFCURVE",
"98 475 OFFCURVE",
"98 415 CURVE",
"105 458 LINE",
"105 675 LINE",
"60 675 LINE",
"60 -190 LINE"
);
},
{
closed = 1;
nodes = (
"105 451 LINE SMOOTH",
"105 456 OFFCURVE",
"108 458 OFFCURVE",
"112 458 CURVE SMOOTH",
"317 458 LINE SMOOTH",
"321 458 OFFCURVE",
"324 456 OFFCURVE",
"324 451 CURVE SMOOTH",
"324 40 LINE SMOOTH",
"324 35 OFFCURVE",
"321 33 OFFCURVE",
"317 33 CURVE SMOOTH",
"98 36 LINE",
"105 29 LINE"
);
}
);
width = 420;
},
{
layerId = "522BF62C-3FFD-47FE-9DEE-94F66EB24849";
name = "Bold SemiExtended";
paths = (
{
closed = 1;
nodes = (
"198 -190 LINE",
"198 -2 LINE",
"300 -2 LINE SMOOTH",
"410 -2 OFFCURVE",
"450 33 OFFCURVE",
"450 133 CURVE SMOOTH",
"450 375 LINE SMOOTH",
"450 465 OFFCURVE",
"410 500 OFFCURVE",
"320 500 CURVE SMOOTH",
"295 500 LINE SMOOTH",
"225 500 OFFCURVE",
"194 455 OFFCURVE",
"194 385 CURVE",
"198 385 LINE",
"197 675 LINE",
"55 675 LINE",
"55 -190 LINE"
);
},
{
closed = 1;
nodes = (
"198 371 LINE SMOOTH",
"198 380 OFFCURVE",
"202 385 OFFCURVE",
"212 385 CURVE SMOOTH",
"296 385 LINE SMOOTH",
"306 385 OFFCURVE",
"310 381 OFFCURVE",
"310 371 CURVE SMOOTH",
"310 129 LINE SMOOTH",
"310 119 OFFCURVE",
"306 115 OFFCURVE",
"296 115 CURVE SMOOTH",
"183 115 LINE",
"198 99 LINE"
);
}
);
width = 490;
}
);
unicode = 00FE;
},
{
color = 3;
glyphname = q;
lastChange = "2016-01-15 18:16:33 +0000";
layers = (
{
background = {
paths = (
{
closed = 1;
nodes = (
"315 675 LINE",
"315 491 LINE",
"150 493 LINE SMOOTH",
"80 494 OFFCURVE",
"50 473 OFFCURVE",
"50 403 CURVE SMOOTH",
"50 85 LINE SMOOTH",
"50 15 OFFCURVE",
"80 -5 OFFCURVE",
"150 -5 CURVE SMOOTH",
"242 -5 LINE SMOOTH",
"302 -5 OFFCURVE",
"322 15 OFFCURVE",
"322 75 CURVE",
"315 32 LINE",
"323 0 LINE",
"360 0 LINE",
"360 675 LINE"
);
},
{
closed = 1;
nodes = (
"315 39 LINE SMOOTH",
"315 34 OFFCURVE",
"312 32 OFFCURVE",
"308 32 CURVE SMOOTH",
"103 32 LINE SMOOTH",
"99 32 OFFCURVE",
"96 34 OFFCURVE",
"96 39 CURVE SMOOTH",
"96 450 LINE SMOOTH",
"96 455 OFFCURVE",
"99 457 OFFCURVE",
"103 457 CURVE SMOOTH",
"322 454 LINE",
"315 461 LINE"
);
}
);
};
layerId = "15B61E68-7076-43EF-9E3D-3B783472E8B2";
name = "Light SemiExtended";
paths = (
{
closed = 1;
nodes = (
"150 493 LINE SMOOTH",
"80 494 OFFCURVE",
"50 473 OFFCURVE",
"50 403 CURVE SMOOTH",
"50 85 LINE SMOOTH",
"50 15 OFFCURVE",
"80 -5 OFFCURVE",
"150 -5 CURVE SMOOTH",
"242 -5 LINE SMOOTH",
"302 -5 OFFCURVE",
"322 15 OFFCURVE",
"322 75 CURVE",
"315 32 LINE",
"315 -190 LINE",
"360 -190 LINE",
"360 490 LINE"
);
},
{
closed = 1;
nodes = (
"315 39 LINE SMOOTH",
"315 34 OFFCURVE",
"312 32 OFFCURVE",
"308 32 CURVE SMOOTH",
"103 32 LINE SMOOTH",
"99 32 OFFCURVE",
"96 34 OFFCURVE",
"96 39 CURVE SMOOTH",
"96 450 LINE SMOOTH",
"96 455 OFFCURVE",
"99 457 OFFCURVE",
"103 457 CURVE SMOOTH",
"322 454 LINE",
"315 461 LINE"
);
}
);
width = 420;
},
{
layerId = "522BF62C-3FFD-47FE-9DEE-94F66EB24849";
name = "Bold SemiExtended";
paths = (
{
closed = 1;
nodes = (
"190 493 LINE SMOOTH",
"80 494 OFFCURVE",
"40 458 OFFCURVE",
"40 358 CURVE SMOOTH",
"40 115 LINE SMOOTH",
"40 25 OFFCURVE",
"80 -10 OFFCURVE",
"170 -10 CURVE SMOOTH",
"195 -10 LINE SMOOTH",
"265 -10 OFFCURVE",
"296 35 OFFCURVE",
"296 105 CURVE",
"292 105 LINE",
"292 -190 LINE",
"435 -190 LINE",
"435 490 LINE"
);
},
{
closed = 1;
nodes = (
"292 119 LINE SMOOTH",
"292 110 OFFCURVE",
"288 105 OFFCURVE",
"278 105 CURVE SMOOTH",
"194 105 LINE SMOOTH",
"184 105 OFFCURVE",
"180 109 OFFCURVE",
"180 119 CURVE SMOOTH",
"180 359 LINE SMOOTH",
"180 369 OFFCURVE",
"184 373 OFFCURVE",
"194 373 CURVE SMOOTH",
"307 373 LINE",
"292 389 LINE"
);
}
);
width = 490;
}
);
unicode = 0071;
},
{
color = 3;
glyphname = r;
lastChange = "2016-01-15 18:16:33 +0000";
layers = (
{
anchors = (
{
name = bottom;
position = "{126, 0}";
},
{
name = top;
position = "{121, 490}";
}
);
background = {
paths = (
{
closed = 1;
nodes = (
"104 0 LINE",
"104 343 LINE SMOOTH",
"104 421 OFFCURVE",
"143 460 OFFCURVE",
"236 460 CURVE SMOOTH",
"247 460 OFFCURVE",
"254 460 OFFCURVE",
"265 460 CURVE",
"267 496 LINE",
"258 497 OFFCURVE",
"250 497 OFFCURVE",
"241 497 CURVE SMOOTH",
"143 497 OFFCURVE",
"98 456 OFFCURVE",
"86 375 CURVE",
"104 375 LINE",
"101 490 LINE",
"60 490 LINE",
"60 0 LINE"
);
}
);
};
layerId = "15B61E68-7076-43EF-9E3D-3B783472E8B2";
name = "Light SemiExtended";
paths = (
{
closed = 1;
nodes = (
"178 495 LINE SMOOTH",
"118 495 OFFCURVE",
"93 475 OFFCURVE",
"93 415 CURVE",
"105 458 LINE",
"97 490 LINE",
"60 490 LINE",
"60 0 LINE",
"105 0 LINE",
"105 451 LINE SMOOTH",
"105 457 OFFCURVE",
"108 458 OFFCURVE",
"112 458 CURVE SMOOTH",
"249 458 LINE",
"249 495 LINE"
);
}
);
width = 251;
},
{
anchors = (
{
name = bottom;
position = "{155, 0}";
},
{
name = top;
position = "{125, 490}";
}
);
layerId = "522BF62C-3FFD-47FE-9DEE-94F66EB24849";
name = "Bold SemiExtended";
paths = (
{
closed = 1;
nodes = (
"289 500 LINE SMOOTH",
"218 500 OFFCURVE",
"187 455 OFFCURVE",
"187 385 CURVE",
"192 385 LINE",
"179 490 LINE",
"50 490 LINE",
"52 0 LINE",
"194 0 LINE",
"192 371 LINE SMOOTH",
"192 380 OFFCURVE",
"196 385 OFFCURVE",
"206 385 CURVE SMOOTH",
"314 385 LINE SMOOTH",
"314 500 LINE"
);
}
);
width = 310;
}
);
unicode = 0072;
},
{
color = 3;
glyphname = s;
lastChange = "2016-01-15 18:16:33 +0000";
layers = (
{
anchors = (
{
name = bottom;
position = "{180, 0}";
},
{
name = top;
position = "{184, 490}";
}
);
background = {
paths = (
{
closed = 1;
nodes = (
"315 220 OFFCURVE",
"331 200 OFFCURVE",
"331 126 CURVE SMOOTH",
"331 50 OFFCURVE",
"299 30 OFFCURVE",
"222 30 CURVE SMOOTH",
"156 30 OFFCURVE",
"111 37 OFFCURVE",
"58 44 CURVE",
"52 7 LINE",
"104 0 OFFCURVE",
"156 -7 OFFCURVE",
"221 -7 CURVE SMOOTH",
"325 -7 OFFCURVE",
"376 22 OFFCURVE",
"376 131 CURVE SMOOTH",
"376 223 OFFCURVE",
"345 255 OFFCURVE",
"277 262 CURVE SMOOTH",
"139 277 LINE SMOOTH",
"101 281 OFFCURVE",
"91 301 OFFCURVE",
"91 374 CURVE SMOOTH",
"91 454 OFFCURVE",
"125 460 OFFCURVE",
"206 460 CURVE SMOOTH",
"245 460 OFFCURVE",
"309 453 OFFCURVE",
"343 446 CURVE",
"349 482 LINE",
"307 490 OFFCURVE",
"245 497 OFFCURVE",
"207 497 CURVE SMOOTH",
"99 497 OFFCURVE",
"46 478 OFFCURVE",
"46 369 CURVE SMOOTH",
"46 277 OFFCURVE",
"74 247 OFFCURVE",
"134 240 CURVE SMOOTH",
"268 225 LINE SMOOTH"
);
}
);
};
layerId = "15B61E68-7076-43EF-9E3D-3B783472E8B2";
name = "Light SemiExtended";
paths = (
{
closed = 1;
nodes = (
"235 -5 LINE SMOOTH",
"305 -5 OFFCURVE",
"335 15 OFFCURVE",
"335 85 CURVE SMOOTH",
"335 178 LINE SMOOTH",
"335 248 OFFCURVE",
"305 268 OFFCURVE",
"235 268 CURVE SMOOTH",
"88 268 LINE SMOOTH",
"84 268 OFFCURVE",
"81 270 OFFCURVE",
"81 275 CURVE SMOOTH",
"81 451 LINE SMOOTH",
"81 456 OFFCURVE",
"84 458 OFFCURVE",
"88 458 CURVE SMOOTH",
"315 458 LINE",
"315 495 LINE",
"135 495 LINE SMOOTH",
"65 495 OFFCURVE",
"35 475 OFFCURVE",
"35 405 CURVE SMOOTH",
"35 322 LINE SMOOTH",
"35 252 OFFCURVE",
"65 232 OFFCURVE",
"135 232 CURVE SMOOTH",
"282 232 LINE SMOOTH",
"286 232 OFFCURVE",
"289 230 OFFCURVE",
"289 225 CURVE SMOOTH",
"289 39 LINE SMOOTH",
"289 34 OFFCURVE",
"286 32 OFFCURVE",
"282 32 CURVE SMOOTH",
"41 32 LINE",
"41 -5 LINE"
);
}
);
width = 360;
},
{
anchors = (
{
name = bottom;
position = "{224, 0}";
},
{
name = top;
position = "{203, 490}";
}
);
layerId = "522BF62C-3FFD-47FE-9DEE-94F66EB24849";
name = "Bold SemiExtended";
paths = (
{
closed = 1;
nodes = (
"259 -1 LINE SMOOTH",
"349 -1 OFFCURVE",
"389 34 OFFCURVE",
"389 124 CURVE SMOOTH",
"389 169 LINE SMOOTH",
"389 269 OFFCURVE",
"349 304 OFFCURVE",
"239 304 CURVE SMOOTH",
"187 304 LINE SMOOTH",
"177 304 OFFCURVE",
"173 308 OFFCURVE",
"173 318 CURVE SMOOTH",
"173 366 LINE SMOOTH",
"173 376 OFFCURVE",
"177 380 OFFCURVE",
"187 380 CURVE SMOOTH",
"359 379 LINE",
"359 499 LINE",
"185 500 LINE SMOOTH",
"75 501 OFFCURVE",
"30 460 OFFCURVE",
"30 355 CURVE SMOOTH",
"30 328 LINE SMOOTH",
"30 228 OFFCURVE",
"70 192 OFFCURVE",
"180 192 CURVE SMOOTH",
"235 192 LINE SMOOTH",
"245 192 OFFCURVE",
"249 188 OFFCURVE",
"249 178 CURVE SMOOTH",
"249 128 LINE SMOOTH",
"249 118 OFFCURVE",
"245 114 OFFCURVE",
"235 114 CURVE SMOOTH",
"40 114 LINE",
"41 -1 LINE"
);
}
);
width = 409;
}
);
unicode = 0073;
},
{
color = 3;
glyphname = germandbls;
lastChange = "2016-01-15 18:16:33 +0000";
layers = (
{
layerId = "15B61E68-7076-43EF-9E3D-3B783472E8B2";
name = "Light SemiExtended";
paths = (
{
closed = 1;
nodes = (
"78 464 LINE",
"78 0 LINE",
"123 0 LINE",
"123 589 LINE SMOOTH",
"123 597 OFFCURVE",
"127 601 OFFCURVE",
"135 601 CURVE SMOOTH",
"323 601 LINE SMOOTH",
"331 601 OFFCURVE",
"335 597 OFFCURVE",
"335 589 CURVE SMOOTH",
"335 374 LINE SMOOTH",
"335 366 OFFCURVE",
"331 362 OFFCURVE",
"323 362 CURVE SMOOTH",
"174 362 LINE",
"174 325 LINE",
"338 325 LINE SMOOTH",
"346 325 OFFCURVE",
"350 321 OFFCURVE",
"350 313 CURVE SMOOTH",
"350 46 LINE SMOOTH",
"350 38 OFFCURVE",
"345 34 OFFCURVE",
"338 34 CURVE SMOOTH",
"174 34 LINE",
"174 -3 LINE",
"281 -3 LINE SMOOTH",
"357 -3 OFFCURVE",
"396 33 OFFCURVE",
"396 103 CURVE SMOOTH",
"396 262 LINE SMOOTH",
"396 332 OFFCURVE",
"364 355 OFFCURVE",
"289 354 CURVE",
"269 335 LINE",
"344 335 OFFCURVE",
"381 358 OFFCURVE",
"381 428 CURVE SMOOTH",
"381 535 LINE SMOOTH",
"381 610 OFFCURVE",
"346 638 OFFCURVE",
"271 638 CURVE SMOOTH",
"184 638 LINE SMOOTH",
"113 638 OFFCURVE",
"78 610 OFFCURVE",
"78 535 CURVE SMOOTH",
"78 480 LINE",
"88 490 LINE",
"19 490 LINE",
"19 454 LINE",
"88 454 LINE"
);
}
);
width = 446;
},
{
layerId = "522BF62C-3FFD-47FE-9DEE-94F66EB24849";
name = "Bold SemiExtended";
paths = (
{
closed = 1;
nodes = (
"74 400 LINE",
"74 0 LINE",
"216 0 LINE",
"216 506 LINE SMOOTH",
"216 516 OFFCURVE",
"221 520 OFFCURVE",
"230 520 CURVE SMOOTH",
"333 520 LINE SMOOTH",
"342 520 OFFCURVE",
"347 516 OFFCURVE",
"347 506 CURVE SMOOTH",
"347 397 LINE SMOOTH",
"347 387 OFFCURVE",
"335 383 OFFCURVE",
"326 383 CURVE SMOOTH",
"266 383 LINE",
"266 268 LINE",
"348 268 LINE SMOOTH",
"357 268 OFFCURVE",
"362 264 OFFCURVE",
"362 254 CURVE SMOOTH",
"362 129 LINE SMOOTH",
"362 119 OFFCURVE",
"357 115 OFFCURVE",
"348 115 CURVE SMOOTH",
"266 115 LINE",
"266 -5 LINE",
"320 -5 LINE SMOOTH",
"440 -5 OFFCURVE",
"505 55 OFFCURVE",
"505 160 CURVE SMOOTH",
"505 206 LINE SMOOTH",
"505 306 OFFCURVE",
"439 351 OFFCURVE",
"305 351 CURVE",
"295 304 LINE",
"415 304 OFFCURVE",
"490 349 OFFCURVE",
"490 444 CURVE SMOOTH",
"490 475 LINE SMOOTH",
"490 580 OFFCURVE",
"425 640 OFFCURVE",
"305 640 CURVE SMOOTH",
"259 640 LINE SMOOTH",
"134 640 OFFCURVE",
"74 573 OFFCURVE",
"74 479 CURVE SMOOTH",
"74 470 LINE",
"94 490 LINE",
"25 490 LINE",
"25 380 LINE",
"94 380 LINE"
);
}
);
width = 535;
}
);
unicode = 00DF;
},
{
color = 3;
glyphname = t;
lastChange = "2016-01-15 18:16:33 +0000";
layers = (
{
anchors = (
{
name = bottom;
position = "{166, 0}";
},
{
name = center;
position = "{127, 245}";
},
{
name = topright;
position = "{234, 490}";
}
);
background = {
paths = (
{
closed = 1;
nodes = (
"93 142 LINE SMOOTH",
"93 15 OFFCURVE",
"146 -7 OFFCURVE",
"264 -7 CURVE SMOOTH",
"273 -7 OFFCURVE",
"285 -7 OFFCURVE",
"300 -6 CURVE",
"298 30 LINE",
"269 30 LINE SMOOTH",
"167 30 OFFCURVE",
"137 45 OFFCURVE",
"137 147 CURVE SMOOTH",
"137 585 LINE",
"93 585 LINE"
);
},
{
closed = 1;
nodes = (
"20 490 LINE",
"20 454 LINE",
"299 454 LINE",
"299 490 LINE"
);
}
);
};
guideLines = (
{
angle = 90;
position = "{320, 291}";
}
);
layerId = "15B61E68-7076-43EF-9E3D-3B783472E8B2";
name = "Light SemiExtended";
paths = (
{
closed = 1;
nodes = (
"254 490 LINE",
"124 490 LINE",
"134 480 LINE",
"134 615 LINE",
"89 615 LINE",
"89 480 LINE",
"99 490 LINE",
"24 490 LINE",
"24 454 LINE",
"99 454 LINE",
"89 464 LINE",
"89 90 LINE SMOOTH",
"89 20 OFFCURVE",
"119 0 OFFCURVE",
"189 0 CURVE SMOOTH",
"254 0 LINE",
"254 37 LINE",
"141 37 LINE SMOOTH",
"137 37 OFFCURVE",
"134 39 OFFCURVE",
"134 44 CURVE SMOOTH",
"134 464 LINE",
"124 454 LINE",
"254 454 LINE"
);
}
);
width = 254;
},
{
anchors = (
{
name = bottom;
position = "{208, 0}";
},
{
name = center;
position = "{167, 245}";
},
{
name = topright;
position = "{313, 490}";
}
);
layerId = "522BF62C-3FFD-47FE-9DEE-94F66EB24849";
name = "Bold SemiExtended";
paths = (
{
closed = 1;
nodes = (
"324 490 LINE",
"204 490 LINE",
"214 480 LINE",
"214 615 LINE",
"72 615 LINE",
"72 480 LINE",
"82 490 LINE",
"22 490 LINE",
"22 380 LINE",
"82 380 LINE",
"72 390 LINE",
"72 150 LINE SMOOTH",
"72 45 OFFCURVE",
"122 0 OFFCURVE",
"242 0 CURVE SMOOTH",
"324 0 LINE",
"324 120 LINE",
"228 120 LINE SMOOTH",
"218 120 OFFCURVE",
"214 124 OFFCURVE",
"214 134 CURVE SMOOTH",
"214 390 LINE",
"204 380 LINE",
"324 380 LINE"
);
}
);
width = 333;
}
);
unicode = 0074;
},
{
color = 3;
glyphname = u;
lastChange = "2016-01-15 18:16:33 +0000";
layers = (
{
anchors = (
{
name = ogonek;
position = "{365, 0}";
},
{
name = top;
position = "{209, 490}";
}
);
background = {
paths = (
{
closed = 1;
nodes = (
"430 0 LINE",
"468 0 LINE",
"468 490 LINE",
"427 490 LINE",
"427 140 LINE SMOOTH",
"427 68 OFFCURVE",
"388 28 OFFCURVE",
"259 28 CURVE SMOOTH",
"131 28 OFFCURVE",
"96 45 OFFCURVE",
"96 149 CURVE SMOOTH",
"96 490 LINE",
"55 490 LINE",
"55 144 LINE SMOOTH",
"55 18 OFFCURVE",
"104 -7 OFFCURVE",
"254 -7 CURVE SMOOTH",
"391 -7 OFFCURVE",
"431 34 OFFCURVE",
"441 107 CURVE",
"427 107 LINE"
);
}
);
};
layerId = "15B61E68-7076-43EF-9E3D-3B783472E8B2";
name = "Light SemiExtended";
paths = (
{
closed = 1;
nodes = (
"247 -5 LINE SMOOTH",
"307 -5 OFFCURVE",
"327 15 OFFCURVE",
"327 75 CURVE",
"320 32 LINE",
"328 0 LINE",
"365 0 LINE",
"365 490 LINE",
"320 490 LINE",
"320 32 LINE",
"106 32 LINE SMOOTH",
"102 32 OFFCURVE",
"99 34 OFFCURVE",
"99 39 CURVE SMOOTH",
"99 490 LINE",
"54 490 LINE",
"54 85 LINE SMOOTH",
"54 15 OFFCURVE",
"84 -5 OFFCURVE",
"154 -5 CURVE SMOOTH"
);
}
);
width = 425;
},
{
anchors = (
{
name = ogonek;
position = "{435, 0}";
},
{
name = top;
position = "{230, 490}";
}
);
layerId = "522BF62C-3FFD-47FE-9DEE-94F66EB24849";
name = "Bold SemiExtended";
paths = (
{
closed = 1;
nodes = (
"196 -10 LINE SMOOTH",
"267 -10 OFFCURVE",
"298 35 OFFCURVE",
"298 105 CURVE",
"293 105 LINE",
"306 0 LINE",
"435 0 LINE",
"433 490 LINE",
"291 490 LINE",
"293 105 LINE",
"196 105 LINE SMOOTH",
"186 105 OFFCURVE",
"182 109 OFFCURVE",
"182 119 CURVE SMOOTH",
"182 490 LINE",
"40 490 LINE",
"40 115 LINE SMOOTH",
"40 25 OFFCURVE",
"80 -10 OFFCURVE",
"170 -10 CURVE SMOOTH"
);
}
);
width = 485;
}
);
unicode = 0075;
},
{
color = 3;
glyphname = uni0123;
lastChange = "2016-01-15 18:16:33 +0000";
layers = (
{
background = {
paths = (
{
closed = 1;
nodes = (
"181 603 LINE",
"181 688 LINE",
"243 688 LINE",
"243 616 LINE SMOOTH",
"243 586 OFFCURVE",
"230 547 OFFCURVE",
"202 517 CURVE",
"181 533 LINE",
"198 559 OFFCURVE",
"205 594 OFFCURVE",
"205 607 CURVE",
"208 603 LINE"
);
}
);
};
components = (
{
name = g;
}
);
layerId = "15B61E68-7076-43EF-9E3D-3B783472E8B2";
name = "Light SemiExtended";
paths = (
{
closed = 1;
nodes = (
"183 599 LINE",
"183 683 LINE",
"244 683 LINE",
"244 612 LINE SMOOTH",
"244 582 OFFCURVE",
"234 558 OFFCURVE",
"212 530 CURVE",
"190 544 LINE",
"201 568 OFFCURVE",
"207 590 OFFCURVE",
"207 603 CURVE",
"210 599 LINE"
);
}
);
width = 405;
},
{
components = (
{
name = g;
}
);
layerId = "522BF62C-3FFD-47FE-9DEE-94F66EB24849";
name = "Bold SemiExtended";
paths = (
{
closed = 1;
nodes = (
"189 620 LINE",
"189 746 LINE",
"305 746 LINE",
"305 642 LINE SMOOTH",
"305 591 OFFCURVE",
"284 553 OFFCURVE",
"242 515 CURVE",
"202 547 LINE",
"221 579 OFFCURVE",
"228 600 OFFCURVE",
"228 627 CURVE",
"239 620 LINE"
);
}
);
width = 479;
}
);
unicode = 0123;
},
{
color = 3;
glyphname = v;
lastChange = "2016-01-15 18:16:33 +0000";
layers = (
{
background = {
paths = (
{
closed = 1;
nodes = (
"270 -7 OFFCURVE",
"286 15 OFFCURVE",
"298 81 CURVE SMOOTH",
"370 490 LINE",
"326 490 LINE",
"251 39 LINE SMOOTH",
"250 34 OFFCURVE",
"248 32 OFFCURVE",
"244 32 CURVE SMOOTH",
"147 32 LINE",
"71 490 LINE",
"26 490 LINE",
"107 0 LINE",
"201 -4 LINE SMOOTH"
);
}
);
};
layerId = "15B61E68-7076-43EF-9E3D-3B783472E8B2";
name = "Light SemiExtended";
paths = (
{
closed = 1;
nodes = (
"252 -9 OFFCURVE",
"264 15 OFFCURVE",
"281 81 CURVE SMOOTH",
"384 490 LINE",
"341 490 LINE",
"232 39 LINE SMOOTH",
"231 34 OFFCURVE",
"229 32 OFFCURVE",
"225 32 CURVE SMOOTH",
"159 32 LINE",
"49 490 LINE",
"4 490 LINE",
"124 0 LINE",
"183 -4 LINE SMOOTH"
);
}
);
width = 391;
},
{
layerId = "522BF62C-3FFD-47FE-9DEE-94F66EB24849";
name = "Bold SemiExtended";
paths = (
{
closed = 1;
nodes = (
"336 -10 OFFCURVE",
"359 25 OFFCURVE",
"376 115 CURVE SMOOTH",
"448 490 LINE",
"310 490 LINE",
"248 119 LINE SMOOTH",
"246 109 OFFCURVE",
"244 105 OFFCURVE",
"234 105 CURVE SMOOTH",
"213 105 LINE",
"147 490 LINE",
"5 490 LINE",
"96 0 LINE",
"246 -6 LINE SMOOTH"
);
}
);
width = 448;
}
);
unicode = 0076;
},
{
color = 3;
glyphname = w;
lastChange = "2016-01-15 18:16:33 +0000";
layers = (
{
background = {
paths = (
{
closed = 1;
nodes = (
"559 54 LINE SMOOTH",
"554 34 OFFCURVE",
"542 29 OFFCURVE",
"523 29 CURVE SMOOTH",
"505 29 OFFCURVE",
"492 35 OFFCURVE",
"488 53 CURVE SMOOTH",
"384 473 LINE",
"342 469 LINE",
"223 54 LINE SMOOTH",
"217 34 OFFCURVE",
"206 29 OFFCURVE",
"188 29 CURVE SMOOTH",
"170 29 OFFCURVE",
"158 35 OFFCURVE",
"153 53 CURVE SMOOTH",
"39 495 LINE",
"-2 490 LINE",
"112 41 LINE SMOOTH",
"121 7 OFFCURVE",
"143 -7 OFFCURVE",
"185 -7 CURVE SMOOTH",
"228 -7 OFFCURVE",
"253 9 OFFCURVE",
"262 43 CURVE SMOOTH",
"365 421 LINE",
"358 421 LINE",
"447 41 LINE SMOOTH",
"455 7 OFFCURVE",
"478 -7 OFFCURVE",
"520 -7 CURVE SMOOTH",
"564 -7 OFFCURVE",
"589 9 OFFCURVE",
"598 43 CURVE SMOOTH",
"719 490 LINE",
"680 495 LINE"
);
}
);
};
layerId = "15B61E68-7076-43EF-9E3D-3B783472E8B2";
name = "Light SemiExtended";
paths = (
{
closed = 1;
nodes = (
"255 -5 LINE SMOOTH",
"315 -5 OFFCURVE",
"343 25 OFFCURVE",
"345 85 CURVE",
"320 85 LINE",
"320 25 OFFCURVE",
"350 -5 OFFCURVE",
"410 -5 CURVE SMOOTH",
"505 -5 LINE SMOOTH",
"575 -5 OFFCURVE",
"605 15 OFFCURVE",
"605 85 CURVE SMOOTH",
"605 490 LINE",
"560 490 LINE",
"560 39 LINE SMOOTH",
"560 34 OFFCURVE",
"557 32 OFFCURVE",
"553 32 CURVE SMOOTH",
"362 32 LINE SMOOTH",
"358 32 OFFCURVE",
"355 33 OFFCURVE",
"355 39 CURVE SMOOTH",
"355 490 LINE",
"310 490 LINE",
"310 39 LINE SMOOTH",
"310 34 OFFCURVE",
"307 32 OFFCURVE",
"303 32 CURVE SMOOTH",
"112 32 LINE SMOOTH",
"108 32 OFFCURVE",
"105 33 OFFCURVE",
"105 39 CURVE SMOOTH",
"105 490 LINE",
"60 490 LINE",
"60 75 LINE SMOOTH",
"60 5 OFFCURVE",
"90 -5 OFFCURVE",
"160 -5 CURVE SMOOTH"
);
}
);
width = 665;
},
{
layerId = "522BF62C-3FFD-47FE-9DEE-94F66EB24849";
name = "Bold SemiExtended";
paths = (
{
closed = 1;
nodes = (
"229 -10 LINE SMOOTH",
"319 -10 OFFCURVE",
"359 25 OFFCURVE",
"359 115 CURVE",
"355 115 LINE",
"355 25 OFFCURVE",
"395 -10 OFFCURVE",
"485 -10 CURVE SMOOTH",
"541 -10 LINE SMOOTH",
"631 -10 OFFCURVE",
"671 25 OFFCURVE",
"671 115 CURVE SMOOTH",
"669 490 LINE",
"527 490 LINE",
"529 119 LINE SMOOTH",
"529 110 OFFCURVE",
"525 105 OFFCURVE",
"515 105 CURVE SMOOTH",
"440 105 LINE SMOOTH",
"430 105 OFFCURVE",
"426 109 OFFCURVE",
"426 119 CURVE SMOOTH",
"426 490 LINE",
"288 490 LINE",
"288 119 LINE SMOOTH",
"288 110 OFFCURVE",
"284 105 OFFCURVE",
"274 105 CURVE SMOOTH",
"201 105 LINE SMOOTH",
"191 105 OFFCURVE",
"187 109 OFFCURVE",
"187 119 CURVE SMOOTH",
"187 490 LINE",
"45 490 LINE",
"45 115 LINE SMOOTH",
"45 25 OFFCURVE",
"85 -10 OFFCURVE",
"175 -10 CURVE SMOOTH"
);
}
);
width = 716;
}
);
unicode = 0077;
},
{
color = 3;
glyphname = x;
lastChange = "2016-01-15 18:16:33 +0000";
layers = (
{
background = {
paths = (
{
closed = 1;
nodes = (
"254 244 LINE",
"272 251 OFFCURVE",
"286 268 OFFCURVE",
"292 280 CURVE SMOOTH",
"393 490 LINE",
"352 495 LINE",
"253 291 LINE SMOOTH",
"244 272 OFFCURVE",
"234 266 OFFCURVE",
"215 266 CURVE SMOOTH",
"196 266 OFFCURVE",
"188 271 OFFCURVE",
"179 290 CURVE SMOOTH",
"80 495 LINE",
"35 490 LINE",
"137 278 LINE SMOOTH",
"144 263 OFFCURVE",
"155 250 OFFCURVE",
"175 244 CURVE",
"175 249 LINE",
"158 241 OFFCURVE",
"145 230 OFFCURVE",
"138 216 CURVE SMOOTH",
"35 0 LINE",
"76 -5 LINE",
"177 205 LINE SMOOTH",
"186 224 OFFCURVE",
"195 230 OFFCURVE",
"215 230 CURVE SMOOTH",
"235 230 OFFCURVE",
"242 224 OFFCURVE",
"251 206 CURVE SMOOTH",
"350 -5 LINE",
"395 0 LINE",
"293 218 LINE SMOOTH",
"284 236 OFFCURVE",
"271 245 OFFCURVE",
"254 249 CURVE"
);
}
);
};
guideLines = (
{
position = "{380, 206}";
},
{
position = "{380, 246}";
},
{
angle = 90;
position = "{382, 290}";
},
{
angle = 90;
position = "{218, 290}";
}
);
layerId = "15B61E68-7076-43EF-9E3D-3B783472E8B2";
name = "Light SemiExtended";
paths = (
{
closed = 1;
nodes = (
"58 0 LINE",
"166 221 LINE SMOOTH",
"168 226 OFFCURVE",
"169 228 OFFCURVE",
"173 228 CURVE SMOOTH",
"244 228 LINE SMOOTH",
"248 228 OFFCURVE",
"249 226 OFFCURVE",
"251 221 CURVE SMOOTH",
"364 0 LINE",
"413 0 LINE",
"321 174 LINE SMOOTH",
"287 238 OFFCURVE",
"286 254 OFFCURVE",
"217 254 CURVE",
"217 238 LINE",
"273 240 OFFCURVE",
"279 258 OFFCURVE",
"307 318 CURVE SMOOTH",
"389 490 LINE",
"346 490 LINE",
"244 271 LINE SMOOTH",
"242 266 OFFCURVE",
"241 264 OFFCURVE",
"237 264 CURVE SMOOTH",
"185 264 LINE SMOOTH",
"181 264 OFFCURVE",
"180 266 OFFCURVE",
"178 271 CURVE SMOOTH",
"76 490 LINE",
"30 490 LINE",
"110 318 LINE SMOOTH",
"138 258 OFFCURVE",
"146 240 OFFCURVE",
"202 238 CURVE",
"202 254 LINE",
"133 254 OFFCURVE",
"133 238 OFFCURVE",
"100 174 CURVE SMOOTH",
"10 0 LINE"
);
}
);
width = 420;
},
{
guideLines = (
{
position = "{123, 224}";
},
{
position = "{123, 276}";
}
);
layerId = "522BF62C-3FFD-47FE-9DEE-94F66EB24849";
name = "Bold SemiExtended";
paths = (
{
closed = 1;
nodes = (
"149 0 LINE",
"208 175 LINE SMOOTH",
"211 183 OFFCURVE",
"213 186 OFFCURVE",
"222 186 CURVE SMOOTH",
"253 186 LINE SMOOTH",
"262 186 OFFCURVE",
"264 183 OFFCURVE",
"267 174 CURVE SMOOTH",
"326 0 LINE",
"474 0 LINE",
"417 151 LINE SMOOTH",
"387 231 OFFCURVE",
"366 252 OFFCURVE",
"294 258 CURVE",
"295 235 LINE",
"356 241 OFFCURVE",
"377 263 OFFCURVE",
"405 341 CURVE SMOOTH",
"459 490 LINE",
"319 490 LINE",
"261 317 LINE SMOOTH",
"258 308 OFFCURVE",
"255 306 OFFCURVE",
"245 306 CURVE SMOOTH",
"233 306 LINE SMOOTH",
"223 306 OFFCURVE",
"221 309 OFFCURVE",
"218 318 CURVE SMOOTH",
"162 490 LINE",
"19 490 LINE",
"73 341 LINE SMOOTH",
"103 258 OFFCURVE",
"124 238 OFFCURVE",
"195 234 CURVE",
"194 259 LINE",
"113 255 OFFCURVE",
"93 237 OFFCURVE",
"61 151 CURVE SMOOTH",
"4 0 LINE"
);
}
);
width = 475;
}
);
unicode = 0078;
},
{
color = 3;
glyphname = y;
lastChange = "2016-01-15 18:16:33 +0000";
layers = (
{
anchors = (
{
name = top;
position = "{209, 490}";
}
);
background = {
paths = (
{
closed = 1;
nodes = (
"252 36 LINE",
"212 36 LINE SMOOTH",
"194 36 OFFCURVE",
"183 42 OFFCURVE",
"177 60 CURVE SMOOTH",
"43 495 LINE",
"0 490 LINE",
"134 48 LINE SMOOTH",
"144 14 OFFCURVE",
"167 0 OFFCURVE",
"209 0 CURVE SMOOTH",
"240 0 LINE"
);
},
{
closed = 1;
nodes = (
"431 490 LINE",
"389 495 LINE",
"205 -89 LINE SMOOTH",
"187 -145 OFFCURVE",
"183 -160 OFFCURVE",
"79 -160 CURVE",
"77 -197 LINE",
"202 -197 OFFCURVE",
"220 -179 OFFCURVE",
"247 -94 CURVE SMOOTH"
);
}
);
};
layerId = "15B61E68-7076-43EF-9E3D-3B783472E8B2";
name = "Light SemiExtended";
paths = (
{
closed = 1;
nodes = (
"318 -156 OFFCURVE",
"315 -158 OFFCURVE",
"311 -158 CURVE SMOOTH",
"63 -158 LINE",
"63 -195 LINE",
"263 -195 LINE SMOOTH",
"333 -195 OFFCURVE",
"363 -175 OFFCURVE",
"363 -105 CURVE SMOOTH",
"363 490 LINE",
"318 490 LINE",
"318 32 LINE",
"105 32 LINE SMOOTH",
"101 32 OFFCURVE",
"98 34 OFFCURVE",
"98 39 CURVE SMOOTH",
"98 490 LINE",
"53 490 LINE",
"53 85 LINE SMOOTH",
"53 15 OFFCURVE",
"83 -5 OFFCURVE",
"153 -5 CURVE SMOOTH",
"245 -5 LINE SMOOTH",
"305 -5 OFFCURVE",
"325 15 OFFCURVE",
"325 75 CURVE",
"318 32 LINE",
"318 -151 LINE SMOOTH"
);
}
);
width = 423;
},
{
anchors = (
{
name = top;
position = "{230, 490}";
}
);
layerId = "522BF62C-3FFD-47FE-9DEE-94F66EB24849";
name = "Bold SemiExtended";
paths = (
{
closed = 1;
nodes = (
"293 -76 OFFCURVE",
"289 -80 OFFCURVE",
"279 -80 CURVE SMOOTH",
"60 -80 LINE",
"60 -200 LINE",
"265 -200 LINE SMOOTH",
"385 -200 OFFCURVE",
"435 -155 OFFCURVE",
"435 -50 CURVE SMOOTH",
"433 490 LINE",
"291 490 LINE",
"293 105 LINE",
"196 105 LINE SMOOTH",
"186 105 OFFCURVE",
"182 109 OFFCURVE",
"182 119 CURVE SMOOTH",
"182 490 LINE",
"40 490 LINE",
"40 115 LINE SMOOTH",
"40 25 OFFCURVE",
"80 -10 OFFCURVE",
"170 -10 CURVE SMOOTH",
"196 -10 LINE SMOOTH",
"267 -10 OFFCURVE",
"298 35 OFFCURVE",
"298 105 CURVE",
"293 105 LINE",
"293 -66 LINE SMOOTH"
);
}
);
width = 485;
}
);
unicode = 0079;
},
{
color = 3;
glyphname = z;
lastChange = "2016-01-15 18:16:33 +0000";
layers = (
{
anchors = (
{
name = top;
position = "{178, 490}";
}
);
background = {
paths = (
{
closed = 1;
nodes = (
"319 32 LINE",
"88 32 LINE SMOOTH",
"82 32 OFFCURVE",
"79 37 OFFCURVE",
"84 44 CURVE SMOOTH",
"330 435 LINE",
"330 485 OFFCURVE",
"305 495 OFFCURVE",
"265 495 CURVE SMOOTH",
"65 495 LINE",
"65 458 LINE",
"282 458 LINE SMOOTH",
"286 458 OFFCURVE",
"289 456 OFFCURVE",
"289 451 CURVE",
"41 45 LINE",
"41 5 OFFCURVE",
"65 -5 OFFCURVE",
"105 -5 CURVE SMOOTH",
"319 -5 LINE"
);
}
);
};
layerId = "15B61E68-7076-43EF-9E3D-3B783472E8B2";
name = "Light SemiExtended";
paths = (
{
closed = 1;
nodes = (
"325 36 LINE",
"78 36 LINE SMOOTH",
"72 36 OFFCURVE",
"70 41 OFFCURVE",
"74 48 CURVE SMOOTH",
"323 433 LINE",
"323 473 OFFCURVE",
"299 490 OFFCURVE",
"257 490 CURVE SMOOTH",
"45 490 LINE",
"45 454 LINE",
"274 454 LINE SMOOTH",
"280 454 OFFCURVE",
"283 450 OFFCURVE",
"279 444 CURVE SMOOTH",
"25 50 LINE",
"25 10 OFFCURVE",
"52 0 OFFCURVE",
"92 0 CURVE SMOOTH",
"325 0 LINE"
);
}
);
width = 355;
},
{
anchors = (
{
name = top;
position = "{189, 490}";
}
);
layerId = "522BF62C-3FFD-47FE-9DEE-94F66EB24849";
name = "Bold SemiExtended";
paths = (
{
closed = 1;
nodes = (
"360 110 LINE",
"190 110 LINE SMOOTH",
"179 110 OFFCURVE",
"176 121 OFFCURVE",
"183 130 CURVE SMOOTH",
"370 380 LINE",
"370 450 OFFCURVE",
"339 490 OFFCURVE",
"264 490 CURVE SMOOTH",
"26 490 LINE",
"26 380 LINE",
"187 380 LINE SMOOTH",
"198 380 OFFCURVE",
"202 370 OFFCURVE",
"196 361 CURVE SMOOTH",
"4 100 LINE",
"4 35 OFFCURVE",
"34 0 OFFCURVE",
"99 0 CURVE SMOOTH",
"359 0 LINE"
);
}
);
width = 377;
}
);
unicode = 007A;
},
{
color = 3;
glyphname = fi;
lastChange = "2016-01-15 18:16:33 +0000";
layers = (
{
layerId = "15B61E68-7076-43EF-9E3D-3B783472E8B2";
name = "Light SemiExtended";
paths = (
{
closed = 1;
nodes = (
"136 0 LINE",
"136 631 LINE SMOOTH",
"136 636 OFFCURVE",
"139 638 OFFCURVE",
"143 638 CURVE SMOOTH",
"271 638 LINE",
"271 675 LINE",
"191 675 LINE SMOOTH",
"121 675 OFFCURVE",
"91 655 OFFCURVE",
"91 585 CURVE SMOOTH",
"91 0 LINE"
);
},
{
closed = 1;
nodes = (
"376 0 LINE",
"376 490 LINE",
"331 490 LINE",
"331 0 LINE"
);
},
{
closed = 1;
nodes = (
"256 454 LINE",
"256 490 LINE",
"26 490 LINE",
"26 454 LINE"
);
},
{
closed = 1;
nodes = (
"376 620 LINE",
"376 675 LINE",
"331 675 LINE",
"331 620 LINE"
);
}
);
width = 446;
},
{
layerId = "522BF62C-3FFD-47FE-9DEE-94F66EB24849";
name = "Bold SemiExtended";
paths = (
{
closed = 1;
nodes = (
"214 0 LINE",
"214 551 LINE SMOOTH",
"214 561 OFFCURVE",
"218 565 OFFCURVE",
"228 565 CURVE SMOOTH",
"324 564 LINE",
"324 684 LINE",
"227 685 LINE SMOOTH",
"117 686 OFFCURVE",
"72 645 OFFCURVE",
"72 540 CURVE SMOOTH",
"72 0 LINE"
);
},
{
closed = 1;
nodes = (
"509 0 LINE",
"509 490 LINE",
"367 490 LINE",
"367 0 LINE"
);
},
{
closed = 1;
nodes = (
"308 380 LINE",
"308 490 LINE",
"12 490 LINE",
"12 380 LINE"
);
},
{
closed = 1;
nodes = (
"509 564 LINE",
"509 684 LINE",
"367 684 LINE",
"367 564 LINE"
);
}
);
width = 567;
}
);
leftMetricsKey = f;
rightMetricsKey = i;
unicode = FB01;
},
{
color = 3;
glyphname = fl;
lastChange = "2016-01-15 18:16:33 +0000";
layers = (
{
layerId = "15B61E68-7076-43EF-9E3D-3B783472E8B2";
name = "Light SemiExtended";
paths = (
{
closed = 1;
nodes = (
"136 0 LINE",
"136 636 LINE SMOOTH",
"136 641 OFFCURVE",
"139 643 OFFCURVE",
"143 643 CURVE SMOOTH",
"274 643 LINE",
"274 680 LINE",
"191 680 LINE SMOOTH",
"121 680 OFFCURVE",
"91 660 OFFCURVE",
"91 590 CURVE SMOOTH",
"91 0 LINE"
);
},
{
closed = 1;
nodes = (
"262 454 LINE",
"262 490 LINE",
"26 490 LINE",
"26 454 LINE"
);
},
{
closed = 1;
nodes = (
"382 0 LINE",
"382 675 LINE",
"337 675 LINE",
"337 0 LINE"
);
}
);
width = 452;
},
{
layerId = "522BF62C-3FFD-47FE-9DEE-94F66EB24849";
name = "Bold SemiExtended";
paths = (
{
closed = 1;
nodes = (
"209 0 LINE",
"209 551 LINE SMOOTH",
"209 561 OFFCURVE",
"213 565 OFFCURVE",
"223 565 CURVE SMOOTH",
"324 564 LINE",
"324 684 LINE",
"222 685 LINE SMOOTH",
"112 686 OFFCURVE",
"67 645 OFFCURVE",
"67 540 CURVE SMOOTH",
"67 0 LINE"
);
},
{
closed = 1;
nodes = (
"320 380 LINE",
"320 490 LINE",
"12 490 LINE",
"12 380 LINE"
);
},
{
closed = 1;
nodes = (
"512 0 LINE",
"512 675 LINE",
"370 675 LINE",
"370 0 LINE"
);
}
);
width = 567;
}
);
leftMetricsKey = f;
rightMetricsKey = l;
unicode = FB02;
},
{
color = 3;
glyphname = ordfeminine;
lastChange = "2016-01-15 18:16:33 +0000";
layers = (
{
layerId = "15B61E68-7076-43EF-9E3D-3B783472E8B2";
name = "Light SemiExtended";
paths = (
{
closed = 1;
nodes = (
"157 310 LINE SMOOTH",
"217 310 OFFCURVE",
"237 330 OFFCURVE",
"237 390 CURVE",
"230 344 LINE",
"238 315 LINE",
"270 315 LINE",
"270 575 LINE SMOOTH",
"270 645 OFFCURVE",
"246 665 OFFCURVE",
"176 665 CURVE SMOOTH",
"58 665 LINE",
"58 631 LINE",
"223 631 LINE SMOOTH",
"227 631 OFFCURVE",
"230 629 OFFCURVE",
"230 624 CURVE SMOOTH",
"230 344 LINE",
"88 344 LINE SMOOTH",
"84 344 OFFCURVE",
"81 346 OFFCURVE",
"81 351 CURVE SMOOTH",
"81 480 LINE SMOOTH",
"81 485 OFFCURVE",
"84 487 OFFCURVE",
"88 487 CURVE SMOOTH",
"237 487 LINE",
"237 520 LINE",
"135 520 LINE SMOOTH",
"65 520 OFFCURVE",
"40 500 OFFCURVE",
"40 430 CURVE SMOOTH",
"40 400 LINE SMOOTH",
"40 330 OFFCURVE",
"65 310 OFFCURVE",
"135 310 CURVE SMOOTH"
);
}
);
width = 320;
},
{
layerId = "522BF62C-3FFD-47FE-9DEE-94F66EB24849";
name = "Bold SemiExtended";
paths = (
{
closed = 1;
nodes = (
"155 265 LINE SMOOTH",
"215 265 OFFCURVE",
"226 305 OFFCURVE",
"226 370 CURVE",
"221 370 LINE",
"234 275 LINE",
"345 275 LINE",
"345 545 LINE SMOOTH",
"345 640 OFFCURVE",
"319 670 OFFCURVE",
"209 670 CURVE SMOOTH",
"54 670 LINE",
"54 574 LINE",
"207 575 LINE SMOOTH",
"217 575 OFFCURVE",
"221 571 OFFCURVE",
"221 561 CURVE SMOOTH",
"221 370 LINE",
"159 370 LINE SMOOTH",
"149 370 OFFCURVE",
"145 374 OFFCURVE",
"145 384 CURVE SMOOTH",
"145 424 LINE SMOOTH",
"145 434 OFFCURVE",
"149 438 OFFCURVE",
"159 438 CURVE SMOOTH",
"237 438 LINE",
"237 523 LINE",
"160 523 LINE SMOOTH",
"70 523 OFFCURVE",
"30 498 OFFCURVE",
"30 398 CURVE SMOOTH",
"30 385 LINE SMOOTH",
"30 301 OFFCURVE",
"64 265 OFFCURVE",
"138 265 CURVE SMOOTH"
);
}
);
width = 385;
}
);
unicode = 00AA;
},
{
color = 3;
glyphname = ordmasculine;
lastChange = "2016-01-15 18:16:33 +0000";
layers = (
{
guideLines = (
{
position = "{30, 310}";
},
{
position = "{30, 667}";
}
);
layerId = "15B61E68-7076-43EF-9E3D-3B783472E8B2";
name = "Light SemiExtended";
paths = (
{
closed = 1;
nodes = (
"244 633 LINE SMOOTH",
"248 633 OFFCURVE",
"251 631 OFFCURVE",
"251 626 CURVE SMOOTH",
"251 351 LINE SMOOTH",
"251 346 OFFCURVE",
"248 344 OFFCURVE",
"244 344 CURVE SMOOTH",
"94 344 LINE SMOOTH",
"90 344 OFFCURVE",
"87 346 OFFCURVE",
"87 351 CURVE SMOOTH",
"87 626 LINE SMOOTH",
"87 631 OFFCURVE",
"90 633 OFFCURVE",
"94 633 CURVE SMOOTH"
);
},
{
closed = 1;
nodes = (
"45 400 LINE SMOOTH",
"45 330 OFFCURVE",
"75 310 OFFCURVE",
"141 310 CURVE SMOOTH",
"197 310 LINE SMOOTH",
"263 310 OFFCURVE",
"293 330 OFFCURVE",
"293 400 CURVE SMOOTH",
"293 577 LINE SMOOTH",
"293 647 OFFCURVE",
"263 667 OFFCURVE",
"197 667 CURVE SMOOTH",
"141 667 LINE SMOOTH",
"75 667 OFFCURVE",
"45 647 OFFCURVE",
"45 577 CURVE SMOOTH"
);
}
);
width = 338;
},
{
guideLines = (
{
position = "{39, 267}";
},
{
position = "{39, 672}";
}
);
layerId = "522BF62C-3FFD-47FE-9DEE-94F66EB24849";
name = "Bold SemiExtended";
paths = (
{
closed = 1;
nodes = (
"247 574 LINE SMOOTH",
"256 574 OFFCURVE",
"261 570 OFFCURVE",
"261 560 CURVE SMOOTH",
"261 380 LINE SMOOTH",
"261 370 OFFCURVE",
"256 366 OFFCURVE",
"247 366 CURVE SMOOTH",
"171 366 LINE SMOOTH",
"162 366 OFFCURVE",
"157 370 OFFCURVE",
"157 380 CURVE SMOOTH",
"157 560 LINE SMOOTH",
"157 570 OFFCURVE",
"162 574 OFFCURVE",
"171 574 CURVE SMOOTH"
);
},
{
closed = 1;
nodes = (
"40 405 LINE SMOOTH",
"40 306 OFFCURVE",
"85 266 OFFCURVE",
"193 266 CURVE SMOOTH",
"225 266 LINE SMOOTH",
"333 266 OFFCURVE",
"378 306 OFFCURVE",
"378 405 CURVE SMOOTH",
"378 530 LINE SMOOTH",
"378 634 OFFCURVE",
"333 674 OFFCURVE",
"225 674 CURVE SMOOTH",
"193 674 LINE SMOOTH",
"85 674 OFFCURVE",
"40 634 OFFCURVE",
"40 530 CURVE SMOOTH"
);
}
);
width = 414;
}
);
unicode = 00BA;
},
{
color = 3;
glyphname = pi;
lastChange = "2016-01-15 18:16:33 +0000";
layers = (
{
background = {
paths = (
{
closed = 1;
nodes = (
"204 495 LINE SMOOTH",
"144 495 OFFCURVE",
"119 475 OFFCURVE",
"119 415 CURVE",
"131 458 LINE",
"123 490 LINE",
"86 490 LINE",
"86 0 LINE",
"131 0 LINE",
"131 451 LINE SMOOTH",
"131 457 OFFCURVE",
"134 458 OFFCURVE",
"138 458 CURVE SMOOTH",
"344 458 LINE SMOOTH",
"348 458 OFFCURVE",
"351 456 OFFCURVE",
"351 451 CURVE SMOOTH",
"351 0 LINE",
"396 0 LINE",
"396 405 LINE SMOOTH",
"396 475 OFFCURVE",
"366 495 OFFCURVE",
"296 495 CURVE SMOOTH"
);
}
);
};
layerId = "15B61E68-7076-43EF-9E3D-3B783472E8B2";
name = "Light SemiExtended";
paths = (
{
closed = 1;
nodes = (
"131 0 LINE",
"131 464 LINE",
"121 454 LINE",
"359 454 LINE",
"349 464 LINE",
"349 0 LINE",
"394 0 LINE",
"394 464 LINE",
"384 454 LINE",
"459 454 LINE",
"459 490 LINE",
"21 490 LINE",
"21 454 LINE",
"96 454 LINE",
"86 464 LINE",
"86 0 LINE"
);
}
);
width = 480;
},
{
layerId = "522BF62C-3FFD-47FE-9DEE-94F66EB24849";
name = "Bold SemiExtended";
paths = (
{
closed = 1;
nodes = (
"210 0 LINE",
"210 390 LINE",
"200 380 LINE",
"330 380 LINE",
"320 390 LINE",
"320 0 LINE",
"462 0 LINE",
"462 390 LINE",
"452 380 LINE",
"517 380 LINE",
"517 490 LINE",
"13 490 LINE",
"13 380 LINE",
"78 380 LINE",
"68 390 LINE",
"68 0 LINE"
);
}
);
width = 530;
}
);
unicode = 03C0;
},
{
color = 3;
glyphname = zero;
lastChange = "2016-01-15 18:16:33 +0000";
layers = (
{
layerId = "15B61E68-7076-43EF-9E3D-3B783472E8B2";
name = "Light SemiExtended";
paths = (
{
closed = 1;
nodes = (
"383 598 LINE SMOOTH",
"387 598 OFFCURVE",
"390 596 OFFCURVE",
"390 591 CURVE SMOOTH",
"390 44 LINE SMOOTH",
"390 39 OFFCURVE",
"387 37 OFFCURVE",
"383 37 CURVE SMOOTH",
"131 37 LINE SMOOTH",
"127 37 OFFCURVE",
"124 39 OFFCURVE",
"124 44 CURVE SMOOTH",
"124 591 LINE SMOOTH",
"124 596 OFFCURVE",
"127 598 OFFCURVE",
"131 598 CURVE SMOOTH"
);
},
{
closed = 1;
nodes = (
"75 85 LINE SMOOTH",
"75 15 OFFCURVE",
"105 -5 OFFCURVE",
"175 -5 CURVE SMOOTH",
"339 -5 LINE SMOOTH",
"409 -5 OFFCURVE",
"439 15 OFFCURVE",
"439 85 CURVE SMOOTH",
"439 550 LINE SMOOTH",
"439 620 OFFCURVE",
"409 640 OFFCURVE",
"339 640 CURVE SMOOTH",
"175 640 LINE SMOOTH",
"105 640 OFFCURVE",
"75 620 OFFCURVE",
"75 550 CURVE SMOOTH"
);
}
);
width = 514;
},
{
layerId = "522BF62C-3FFD-47FE-9DEE-94F66EB24849";
name = "Bold SemiExtended";
paths = (
{
closed = 1;
nodes = (
"359 512 LINE SMOOTH",
"368 512 OFFCURVE",
"373 508 OFFCURVE",
"373 498 CURVE SMOOTH",
"373 137 LINE SMOOTH",
"373 127 OFFCURVE",
"368 123 OFFCURVE",
"359 123 CURVE SMOOTH",
"229 123 LINE SMOOTH",
"220 123 OFFCURVE",
"215 127 OFFCURVE",
"215 137 CURVE SMOOTH",
"215 498 LINE SMOOTH",
"215 508 OFFCURVE",
"220 512 OFFCURVE",
"229 512 CURVE SMOOTH"
);
},
{
closed = 1;
nodes = (
"65 150 LINE SMOOTH",
"65 45 OFFCURVE",
"125 -10 OFFCURVE",
"245 -10 CURVE SMOOTH",
"343 -10 LINE SMOOTH",
"463 -10 OFFCURVE",
"523 45 OFFCURVE",
"523 150 CURVE SMOOTH",
"523 485 LINE SMOOTH",
"523 590 OFFCURVE",
"463 645 OFFCURVE",
"343 645 CURVE SMOOTH",
"245 645 LINE SMOOTH",
"125 645 OFFCURVE",
"65 590 OFFCURVE",
"65 485 CURVE SMOOTH"
);
}
);
width = 588;
}
);
unicode = 0030;
},
{
color = 3;
glyphname = one;
lastChange = "2016-01-15 18:16:33 +0000";
layers = (
{
layerId = "15B61E68-7076-43EF-9E3D-3B783472E8B2";
name = "Light SemiExtended";
paths = (
{
closed = 1;
nodes = (
"373 38 LINE",
"53 38 LINE",
"53 0 LINE",
"373 0 LINE"
);
},
{
closed = 1;
nodes = (
"34 520 LINE",
"55 489 LINE",
"205 587 LINE",
"200 590 LINE",
"200 0 LINE",
"246 0 LINE",
"246 635 LINE",
"205 635 LINE"
);
}
);
width = 405;
},
{
layerId = "522BF62C-3FFD-47FE-9DEE-94F66EB24849";
name = "Bold SemiExtended";
paths = (
{
closed = 1;
nodes = (
"439 119 LINE",
"58 119 LINE",
"58 0 LINE",
"439 0 LINE"
);
},
{
closed = 1;
nodes = (
"12 515 LINE",
"72 413 LINE",
"204 487 LINE",
"195 490 LINE",
"195 0 LINE",
"343 0 LINE",
"343 635 LINE",
"205 635 LINE"
);
}
);
width = 459;
}
);
unicode = 0031;
},
{
color = 3;
glyphname = two;
lastChange = "2016-01-15 18:16:33 +0000";
layers = (
{
background = {
paths = (
{
closed = 1;
nodes = (
"78 273 OFFCURVE",
"40 254 OFFCURVE",
"40 194 CURVE SMOOTH",
"40 0 LINE",
"401 0 LINE",
"401 40 LINE",
"101 40 LINE SMOOTH",
"93 40 OFFCURVE",
"89 44 OFFCURVE",
"89 52 CURVE SMOOTH",
"89 190 LINE SMOOTH",
"89 222 OFFCURVE",
"90 228 OFFCURVE",
"149 254 CURVE SMOOTH",
"328 333 LINE SMOOTH",
"383 357 OFFCURVE",
"400 377 OFFCURVE",
"400 425 CURVE SMOOTH",
"400 532 LINE SMOOTH",
"400 602 OFFCURVE",
"360 639 OFFCURVE",
"285 638 CURVE SMOOTH",
"54 635 LINE",
"54 595 LINE",
"339 595 LINE SMOOTH",
"346 595 OFFCURVE",
"351 591 OFFCURVE",
"351 583 CURVE SMOOTH",
"351 401 LINE SMOOTH",
"351 393 OFFCURVE",
"347 392 OFFCURVE",
"339 389 CURVE SMOOTH",
"155 307 LINE SMOOTH"
);
}
);
};
layerId = "15B61E68-7076-43EF-9E3D-3B783472E8B2";
name = "Light SemiExtended";
paths = (
{
closed = 1;
nodes = (
"62 262 OFFCURVE",
"41 254 OFFCURVE",
"41 194 CURVE SMOOTH",
"41 0 LINE",
"388 0 LINE",
"388 40 LINE",
"89 40 LINE",
"89 198 LINE SMOOTH",
"89 222 OFFCURVE",
"90 227 OFFCURVE",
"107 235 CURVE SMOOTH",
"318 336 LINE SMOOTH",
"371 361 OFFCURVE",
"386 377 OFFCURVE",
"386 425 CURVE SMOOTH",
"386 532 LINE SMOOTH",
"386 602 OFFCURVE",
"347 639 OFFCURVE",
"272 638 CURVE SMOOTH",
"54 635 LINE",
"54 595 LINE",
"326 595 LINE SMOOTH",
"333 595 OFFCURVE",
"338 591 OFFCURVE",
"338 583 CURVE SMOOTH",
"338 405 LINE SMOOTH",
"338 395 OFFCURVE",
"334 391 OFFCURVE",
"325 387 CURVE SMOOTH",
"115 287 LINE SMOOTH"
);
}
);
width = 434;
},
{
layerId = "522BF62C-3FFD-47FE-9DEE-94F66EB24849";
name = "Bold SemiExtended";
paths = (
{
closed = 1;
nodes = (
"77 292 OFFCURVE",
"43 272 OFFCURVE",
"43 185 CURVE SMOOTH",
"43 0 LINE",
"456 0 LINE",
"456 128 LINE",
"191 128 LINE",
"191 182 LINE SMOOTH",
"191 197 OFFCURVE",
"194 206 OFFCURVE",
"208 213 CURVE SMOOTH",
"361 295 LINE SMOOTH",
"427 330 OFFCURVE",
"463 360 OFFCURVE",
"463 426 CURVE SMOOTH",
"463 485 LINE SMOOTH",
"463 580 OFFCURVE",
"426 643 OFFCURVE",
"303 640 CURVE SMOOTH",
"58 635 LINE",
"58 507 LINE",
"301 507 LINE SMOOTH",
"310 507 OFFCURVE",
"315 503 OFFCURVE",
"315 493 CURVE SMOOTH",
"315 431 LINE SMOOTH",
"315 421 OFFCURVE",
"310 418 OFFCURVE",
"301 413 CURVE SMOOTH",
"137 324 LINE SMOOTH"
);
}
);
width = 491;
}
);
unicode = 0032;
},
{
color = 3;
glyphname = three;
lastChange = "2016-01-15 18:16:33 +0000";
layers = (
{
background = {
paths = (
{
closed = 1;
nodes = (
"300 598 LINE SMOOTH",
"304 598 OFFCURVE",
"307 596 OFFCURVE",
"307 591 CURVE SMOOTH",
"307 44 LINE SMOOTH",
"307 39 OFFCURVE",
"304 37 OFFCURVE",
"300 37 CURVE SMOOTH",
"47 37 LINE SMOOTH",
"43 37 OFFCURVE",
"40 39 OFFCURVE",
"40 44 CURVE SMOOTH",
"40 591 LINE SMOOTH",
"40 596 OFFCURVE",
"43 598 OFFCURVE",
"47 598 CURVE SMOOTH"
);
},
{
closed = 1;
nodes = (
"-9 85 LINE SMOOTH",
"-9 15 OFFCURVE",
"21 -5 OFFCURVE",
"91 -5 CURVE SMOOTH",
"256 -5 LINE SMOOTH",
"326 -5 OFFCURVE",
"356 15 OFFCURVE",
"356 85 CURVE SMOOTH",
"356 550 LINE SMOOTH",
"356 620 OFFCURVE",
"326 640 OFFCURVE",
"256 640 CURVE SMOOTH",
"91 640 LINE SMOOTH",
"21 640 OFFCURVE",
"-9 620 OFFCURVE",
"-9 550 CURVE SMOOTH"
);
}
);
};
layerId = "15B61E68-7076-43EF-9E3D-3B783472E8B2";
name = "Light SemiExtended";
paths = (
{
closed = 1;
nodes = (
"318 -4 OFFCURVE",
"358 33 OFFCURVE",
"358 103 CURVE SMOOTH",
"358 247 LINE SMOOTH",
"358 322 OFFCURVE",
"323 341 OFFCURVE",
"248 340 CURVE",
"238 320 LINE",
"313 320 OFFCURVE",
"353 343 OFFCURVE",
"353 413 CURVE SMOOTH",
"353 535 LINE SMOOTH",
"353 610 OFFCURVE",
"318 639 OFFCURVE",
"243 638 CURVE SMOOTH",
"28 635 LINE",
"28 597 LINE",
"292 597 LINE SMOOTH",
"300 597 OFFCURVE",
"304 593 OFFCURVE",
"304 585 CURVE SMOOTH",
"304 362 LINE SMOOTH",
"304 354 OFFCURVE",
"300 350 OFFCURVE",
"292 350 CURVE SMOOTH",
"80 350 LINE",
"80 310 LINE",
"297 310 LINE SMOOTH",
"305 310 OFFCURVE",
"309 306 OFFCURVE",
"309 298 CURVE SMOOTH",
"309 52 LINE SMOOTH",
"309 44 OFFCURVE",
"304 40 OFFCURVE",
"297 40 CURVE SMOOTH",
"25 40 LINE",
"25 0 LINE",
"243 -3 LINE SMOOTH"
);
}
);
width = 438;
},
{
layerId = "522BF62C-3FFD-47FE-9DEE-94F66EB24849";
name = "Bold SemiExtended";
paths = (
{
closed = 1;
nodes = (
"371 -8 OFFCURVE",
"436 55 OFFCURVE",
"436 160 CURVE SMOOTH",
"436 200 LINE SMOOTH",
"436 300 OFFCURVE",
"370 345 OFFCURVE",
"236 345 CURVE",
"236 298 LINE",
"356 298 OFFCURVE",
"431 343 OFFCURVE",
"431 438 CURVE SMOOTH",
"431 475 LINE SMOOTH",
"431 580 OFFCURVE",
"366 643 OFFCURVE",
"246 640 CURVE SMOOTH",
"28 635 LINE",
"28 506 LINE",
"267 506 LINE SMOOTH",
"276 506 OFFCURVE",
"281 502 OFFCURVE",
"281 492 CURVE SMOOTH",
"281 401 LINE SMOOTH",
"281 391 OFFCURVE",
"276 387 OFFCURVE",
"267 387 CURVE SMOOTH",
"88 387 LINE",
"88 260 LINE",
"272 260 LINE SMOOTH",
"281 260 OFFCURVE",
"286 256 OFFCURVE",
"286 246 CURVE SMOOTH",
"286 143 LINE SMOOTH",
"286 133 OFFCURVE",
"281 129 OFFCURVE",
"272 129 CURVE SMOOTH",
"25 129 LINE",
"25 0 LINE",
"251 -5 LINE SMOOTH"
);
}
);
width = 486;
}
);
unicode = 0033;
},
{
color = 3;
glyphname = four;
lastChange = "2016-01-15 19:58:26 +0000";
layers = (
{
background = {
paths = (
{
closed = 1;
nodes = (
"103 164 LINE",
"468 164 LINE",
"468 200 LINE",
"103 200 LINE"
);
},
{
closed = 1;
nodes = (
"240 635 OFFCURVE",
"233 621 OFFCURVE",
"213 554 CURVE SMOOTH",
"51 0 LINE",
"95 0 LINE",
"263 588 LINE SMOOTH",
"264 593 OFFCURVE",
"266 595 OFFCURVE",
"270 595 CURVE SMOOTH",
"329 595 LINE",
"329 0 LINE",
"375 0 LINE",
"375 635 LINE",
"308 635 LINE SMOOTH"
);
}
);
};
layerId = "15B61E68-7076-43EF-9E3D-3B783472E8B2";
name = "Light SemiExtended";
paths = (
{
closed = 1;
nodes = (
"375 0 LINE",
"375 164 LINE",
"370 159 LINE",
"469 159 LINE",
"469 195 LINE",
"370 195 LINE",
"375 190 LINE",
"375 635 LINE",
"334 635 LINE SMOOTH",
"266 635 OFFCURVE",
"258 617 OFFCURVE",
"229 565 CURVE SMOOTH",
"22 190 LINE",
"22 159 LINE",
"335 159 LINE",
"329 164 LINE",
"329 0 LINE"
);
},
{
closed = 1;
nodes = (
"284 588 LINE SMOOTH",
"287 593 OFFCURVE",
"288 595 OFFCURVE",
"295 595 CURVE SMOOTH",
"329 595 LINE",
"329 190 LINE",
"335 195 LINE",
"65 195 LINE",
"70 190 LINE"
);
}
);
width = 514;
},
{
layerId = "522BF62C-3FFD-47FE-9DEE-94F66EB24849";
name = "Bold SemiExtended";
paths = (
{
closed = 1;
nodes = (
"456 0 LINE",
"456 141 LINE",
"446 131 LINE",
"551 131 LINE",
"551 258 LINE",
"446 258 LINE",
"456 248 LINE",
"456 635 LINE",
"312 640 LINE SMOOTH",
"228 643 OFFCURVE",
"209 607 OFFCURVE",
"171 535 CURVE SMOOTH",
"11 237 LINE",
"11 131 LINE",
"318 131 LINE",
"308 141 LINE",
"308 0 LINE"
);
},
{
closed = 1;
nodes = (
"283 496 LINE SMOOTH",
"288 505 OFFCURVE",
"291 508 OFFCURVE",
"300 508 CURVE SMOOTH",
"308 508 LINE",
"308 248 LINE",
"318 258 LINE",
"141 258 LINE",
"149 248 LINE"
);
}
);
width = 571;
}
);
unicode = 0034;
},
{
color = 3;
glyphname = five;
lastChange = "2016-01-15 18:16:33 +0000";
layers = (
{
background = {
paths = (
{
closed = 1;
nodes = (
"334 251 LINE SMOOTH",
"343 247 OFFCURVE",
"347 243 OFFCURVE",
"347 233 CURVE SMOOTH",
"347 55 LINE SMOOTH",
"347 47 OFFCURVE",
"342 43 OFFCURVE",
"335 43 CURVE SMOOTH",
"50 43 LINE",
"50 3 LINE",
"281 0 LINE SMOOTH",
"356 -1 OFFCURVE",
"395 36 OFFCURVE",
"395 106 CURVE SMOOTH",
"395 213 LINE SMOOTH",
"395 261 OFFCURVE",
"381 278 OFFCURVE",
"327 302 CURVE SMOOTH",
"103 403 LINE SMOOTH",
"86 410 OFFCURVE",
"85 416 OFFCURVE",
"85 440 CURVE SMOOTH",
"85 586 LINE SMOOTH",
"85 594 OFFCURVE",
"89 598 OFFCURVE",
"97 598 CURVE SMOOTH",
"397 598 LINE",
"397 638 LINE",
"37 638 LINE",
"37 444 LINE SMOOTH",
"37 384 OFFCURVE",
"57 375 OFFCURVE",
"111 351 CURVE SMOOTH"
);
}
);
};
layerId = "15B61E68-7076-43EF-9E3D-3B783472E8B2";
name = "Light SemiExtended";
paths = (
{
closed = 1;
nodes = (
"94 375 LINE",
"94 595 LINE",
"360 595 LINE",
"360 635 LINE",
"47 635 LINE",
"47 335 LINE",
"316 335 LINE SMOOTH",
"323 335 OFFCURVE",
"328 331 OFFCURVE",
"328 323 CURVE SMOOTH",
"328 52 LINE SMOOTH",
"328 44 OFFCURVE",
"324 40 OFFCURVE",
"316 40 CURVE SMOOTH",
"37 40 LINE",
"37 0 LINE",
"267 -3 LINE SMOOTH",
"342 -4 OFFCURVE",
"377 25 OFFCURVE",
"377 100 CURVE SMOOTH",
"377 279 LINE SMOOTH",
"377 349 OFFCURVE",
"337 375 OFFCURVE",
"262 375 CURVE SMOOTH"
);
}
);
width = 432;
},
{
layerId = "522BF62C-3FFD-47FE-9DEE-94F66EB24849";
name = "Bold SemiExtended";
paths = (
{
closed = 1;
nodes = (
"195 408 LINE",
"195 506 LINE",
"424 506 LINE",
"424 635 LINE",
"48 635 LINE",
"48 280 LINE",
"290 280 LINE SMOOTH",
"299 280 OFFCURVE",
"304 276 OFFCURVE",
"304 266 CURVE SMOOTH",
"304 143 LINE SMOOTH",
"304 133 OFFCURVE",
"299 129 OFFCURVE",
"290 129 CURVE SMOOTH",
"45 129 LINE",
"45 0 LINE",
"269 -5 LINE SMOOTH",
"389 -8 OFFCURVE",
"454 55 OFFCURVE",
"454 160 CURVE SMOOTH",
"454 240 LINE SMOOTH",
"454 345 OFFCURVE",
"389 408 OFFCURVE",
"269 408 CURVE SMOOTH"
);
}
);
width = 499;
}
);
unicode = 0035;
},
{
color = 3;
glyphname = six;
lastChange = "2016-01-15 18:16:33 +0000";
layers = (
{
background = {
paths = (
{
closed = 1;
nodes = (
"383 598 LINE SMOOTH",
"387 598 OFFCURVE",
"390 596 OFFCURVE",
"390 591 CURVE SMOOTH",
"390 44 LINE SMOOTH",
"390 39 OFFCURVE",
"387 37 OFFCURVE",
"383 37 CURVE SMOOTH",
"131 37 LINE SMOOTH",
"127 37 OFFCURVE",
"124 39 OFFCURVE",
"124 44 CURVE SMOOTH",
"124 591 LINE SMOOTH",
"124 596 OFFCURVE",
"127 598 OFFCURVE",
"131 598 CURVE SMOOTH"
);
},
{
closed = 1;
nodes = (
"75 85 LINE SMOOTH",
"75 15 OFFCURVE",
"105 -5 OFFCURVE",
"175 -5 CURVE SMOOTH",
"339 -5 LINE SMOOTH",
"409 -5 OFFCURVE",
"439 15 OFFCURVE",
"439 85 CURVE SMOOTH",
"439 550 LINE SMOOTH",
"439 620 OFFCURVE",
"409 640 OFFCURVE",
"339 640 CURVE SMOOTH",
"175 640 LINE SMOOTH",
"105 640 OFFCURVE",
"75 620 OFFCURVE",
"75 550 CURVE SMOOTH"
);
}
);
};
layerId = "15B61E68-7076-43EF-9E3D-3B783472E8B2";
name = "Light SemiExtended";
paths = (
{
closed = 1;
nodes = (
"324 -2 LINE SMOOTH",
"399 -2 OFFCURVE",
"434 25 OFFCURVE",
"434 100 CURVE SMOOTH",
"434 283 LINE SMOOTH",
"434 353 OFFCURVE",
"394 379 OFFCURVE",
"319 379 CURVE SMOOTH",
"121 379 LINE",
"121 339 LINE",
"373 339 LINE SMOOTH",
"380 339 OFFCURVE",
"385 335 OFFCURVE",
"385 327 CURVE SMOOTH",
"385 52 LINE SMOOTH",
"385 44 OFFCURVE",
"381 40 OFFCURVE",
"373 40 CURVE SMOOTH",
"142 40 LINE SMOOTH",
"133 40 OFFCURVE",
"129 44 OFFCURVE",
"129 52 CURVE SMOOTH",
"129 583 LINE SMOOTH",
"129 591 OFFCURVE",
"134 595 OFFCURVE",
"141 595 CURVE SMOOTH",
"411 595 LINE",
"411 635 LINE",
"195 638 LINE SMOOTH",
"120 639 OFFCURVE",
"80 602 OFFCURVE",
"80 532 CURVE SMOOTH",
"80 90 LINE SMOOTH",
"80 15 OFFCURVE",
"115 -2 OFFCURVE",
"190 -2 CURVE SMOOTH"
);
}
);
width = 484;
},
{
layerId = "522BF62C-3FFD-47FE-9DEE-94F66EB24849";
name = "Bold SemiExtended";
paths = (
{
closed = 1;
nodes = (
"313 -5 LINE SMOOTH",
"433 -5 OFFCURVE",
"498 55 OFFCURVE",
"498 160 CURVE SMOOTH",
"498 245 LINE SMOOTH",
"498 360 OFFCURVE",
"447 408 OFFCURVE",
"327 408 CURVE SMOOTH",
"195 408 LINE",
"195 283 LINE",
"334 283 LINE SMOOTH",
"343 283 OFFCURVE",
"348 279 OFFCURVE",
"348 269 CURVE SMOOTH",
"348 143 LINE SMOOTH",
"348 133 OFFCURVE",
"343 129 OFFCURVE",
"334 129 CURVE SMOOTH",
"224 129 LINE SMOOTH",
"215 129 OFFCURVE",
"210 133 OFFCURVE",
"210 143 CURVE SMOOTH",
"210 492 LINE SMOOTH",
"210 502 OFFCURVE",
"215 506 OFFCURVE",
"224 506 CURVE SMOOTH",
"458 506 LINE",
"458 635 LINE",
"245 640 LINE SMOOTH",
"125 643 OFFCURVE",
"60 580 OFFCURVE",
"60 475 CURVE SMOOTH",
"60 161 LINE SMOOTH",
"60 55 OFFCURVE",
"125 -5 OFFCURVE",
"245 -5 CURVE SMOOTH"
);
}
);
width = 531;
}
);
unicode = 0036;
},
{
color = 3;
glyphname = seven;
lastChange = "2016-01-15 18:16:33 +0000";
layers = (
{
background = {
paths = (
{
closed = 1;
nodes = (
"32 50 LINE",
"364 578 LINE",
"364 618 OFFCURVE",
"343 635 OFFCURVE",
"301 635 CURVE SMOOTH",
"-3 635 LINE",
"-3 597 LINE",
"312 597 LINE SMOOTH",
"318 597 OFFCURVE",
"321 594 OFFCURVE",
"317 587 CURVE SMOOTH",
"-21 50 LINE"
);
}
);
};
layerId = "15B61E68-7076-43EF-9E3D-3B783472E8B2";
name = "Light SemiExtended";
paths = (
{
closed = 1;
nodes = (
"123 -2 LINE",
"363 578 LINE",
"363 618 OFFCURVE",
"343 635 OFFCURVE",
"301 635 CURVE SMOOTH",
"20 635 LINE",
"20 596 LINE",
"312 596 LINE SMOOTH",
"318 596 OFFCURVE",
"320 593 OFFCURVE",
"317 586 CURVE SMOOTH",
"75 -2 LINE"
);
}
);
width = 394;
},
{
layerId = "522BF62C-3FFD-47FE-9DEE-94F66EB24849";
name = "Bold SemiExtended";
paths = (
{
closed = 1;
nodes = (
"218 -3 LINE",
"431 517 LINE",
"431 587 OFFCURVE",
"400 637 OFFCURVE",
"325 637 CURVE SMOOTH",
"14 636 LINE",
"14 516 LINE",
"252 517 LINE SMOOTH",
"263 517 OFFCURVE",
"265 507 OFFCURVE",
"261 498 CURVE SMOOTH",
"57 -3 LINE"
);
}
);
width = 443;
}
);
unicode = 0037;
},
{
color = 3;
glyphname = eight;
lastChange = "2016-01-15 18:16:33 +0000";
layers = (
{
background = {
paths = (
{
closed = 1;
nodes = (
"388 598 LINE SMOOTH",
"392 598 OFFCURVE",
"395 596 OFFCURVE",
"395 591 CURVE SMOOTH",
"395 44 LINE SMOOTH",
"395 39 OFFCURVE",
"392 37 OFFCURVE",
"388 37 CURVE SMOOTH",
"136 37 LINE SMOOTH",
"132 37 OFFCURVE",
"129 39 OFFCURVE",
"129 44 CURVE SMOOTH",
"129 591 LINE SMOOTH",
"129 596 OFFCURVE",
"132 598 OFFCURVE",
"136 598 CURVE SMOOTH"
);
},
{
closed = 1;
nodes = (
"80 85 LINE SMOOTH",
"80 15 OFFCURVE",
"110 -5 OFFCURVE",
"180 -5 CURVE SMOOTH",
"344 -5 LINE SMOOTH",
"414 -5 OFFCURVE",
"444 15 OFFCURVE",
"444 85 CURVE SMOOTH",
"444 550 LINE SMOOTH",
"444 620 OFFCURVE",
"414 640 OFFCURVE",
"344 640 CURVE SMOOTH",
"180 640 LINE SMOOTH",
"110 640 OFFCURVE",
"80 620 OFFCURVE",
"80 550 CURVE SMOOTH"
);
}
);
};
layerId = "15B61E68-7076-43EF-9E3D-3B783472E8B2";
name = "Light SemiExtended";
paths = (
{
closed = 1;
nodes = (
"335 -3 LINE SMOOTH",
"411 -3 OFFCURVE",
"450 33 OFFCURVE",
"450 103 CURVE SMOOTH",
"450 247 LINE SMOOTH",
"450 322 OFFCURVE",
"415 341 OFFCURVE",
"340 340 CURVE",
"330 320 LINE",
"405 320 OFFCURVE",
"445 343 OFFCURVE",
"445 413 CURVE SMOOTH",
"445 535 LINE SMOOTH",
"445 610 OFFCURVE",
"410 638 OFFCURVE",
"335 638 CURVE SMOOTH",
"195 638 LINE SMOOTH",
"120 638 OFFCURVE",
"85 610 OFFCURVE",
"85 535 CURVE SMOOTH",
"85 413 LINE SMOOTH",
"85 343 OFFCURVE",
"125 320 OFFCURVE",
"200 320 CURVE",
"190 340 LINE",
"115 341 OFFCURVE",
"80 322 OFFCURVE",
"80 247 CURVE SMOOTH",
"80 103 LINE SMOOTH",
"80 33 OFFCURVE",
"120 -3 OFFCURVE",
"195 -3 CURVE SMOOTH"
);
},
{
closed = 1;
nodes = (
"134 40 OFFCURVE",
"129 44 OFFCURVE",
"129 52 CURVE SMOOTH",
"129 298 LINE SMOOTH",
"129 306 OFFCURVE",
"133 310 OFFCURVE",
"141 310 CURVE SMOOTH",
"389 310 LINE SMOOTH",
"397 310 OFFCURVE",
"401 306 OFFCURVE",
"401 298 CURVE SMOOTH",
"401 52 LINE SMOOTH",
"401 44 OFFCURVE",
"396 40 OFFCURVE",
"389 40 CURVE SMOOTH",
"141 40 LINE SMOOTH"
);
},
{
closed = 1;
nodes = (
"138 350 OFFCURVE",
"134 354 OFFCURVE",
"134 362 CURVE SMOOTH",
"134 585 LINE SMOOTH",
"134 593 OFFCURVE",
"138 597 OFFCURVE",
"146 597 CURVE SMOOTH",
"384 597 LINE SMOOTH",
"392 597 OFFCURVE",
"396 593 OFFCURVE",
"396 585 CURVE SMOOTH",
"396 362 LINE SMOOTH",
"396 354 OFFCURVE",
"392 350 OFFCURVE",
"384 350 CURVE SMOOTH",
"146 350 LINE SMOOTH"
);
}
);
width = 530;
},
{
layerId = "522BF62C-3FFD-47FE-9DEE-94F66EB24849";
name = "Bold SemiExtended";
paths = (
{
closed = 1;
nodes = (
"331 -5 LINE SMOOTH",
"451 -5 OFFCURVE",
"516 55 OFFCURVE",
"516 160 CURVE SMOOTH",
"516 200 LINE SMOOTH",
"516 300 OFFCURVE",
"450 345 OFFCURVE",
"316 345 CURVE",
"316 298 LINE",
"436 298 OFFCURVE",
"511 343 OFFCURVE",
"511 438 CURVE SMOOTH",
"511 475 LINE SMOOTH",
"511 580 OFFCURVE",
"446 640 OFFCURVE",
"326 640 CURVE SMOOTH",
"240 640 LINE SMOOTH",
"120 640 OFFCURVE",
"55 580 OFFCURVE",
"55 475 CURVE SMOOTH",
"55 438 LINE SMOOTH",
"55 343 OFFCURVE",
"130 298 OFFCURVE",
"250 298 CURVE",
"250 345 LINE",
"116 345 OFFCURVE",
"50 300 OFFCURVE",
"50 200 CURVE SMOOTH",
"50 160 LINE SMOOTH",
"50 55 OFFCURVE",
"115 -5 OFFCURVE",
"235 -5 CURVE SMOOTH"
);
},
{
closed = 1;
nodes = (
"205 129 OFFCURVE",
"200 133 OFFCURVE",
"200 143 CURVE SMOOTH",
"200 248 LINE SMOOTH",
"200 258 OFFCURVE",
"205 262 OFFCURVE",
"214 262 CURVE SMOOTH",
"352 262 LINE SMOOTH",
"361 262 OFFCURVE",
"366 258 OFFCURVE",
"366 248 CURVE SMOOTH",
"366 143 LINE SMOOTH",
"366 133 OFFCURVE",
"361 129 OFFCURVE",
"352 129 CURVE SMOOTH",
"214 129 LINE SMOOTH"
);
},
{
closed = 1;
nodes = (
"210 385 OFFCURVE",
"205 389 OFFCURVE",
"205 399 CURVE SMOOTH",
"205 492 LINE SMOOTH",
"205 502 OFFCURVE",
"210 506 OFFCURVE",
"219 506 CURVE SMOOTH",
"347 506 LINE SMOOTH",
"356 506 OFFCURVE",
"361 502 OFFCURVE",
"361 492 CURVE SMOOTH",
"361 399 LINE SMOOTH",
"361 389 OFFCURVE",
"356 385 OFFCURVE",
"347 385 CURVE SMOOTH",
"219 385 LINE SMOOTH"
);
}
);
width = 566;
}
);
unicode = 0038;
},
{
color = 3;
glyphname = nine;
lastChange = "2016-01-15 18:16:33 +0000";
layers = (
{
layerId = "15B61E68-7076-43EF-9E3D-3B783472E8B2";
name = "Light SemiExtended";
paths = (
{
closed = 1;
nodes = (
"364 -4 OFFCURVE",
"404 33 OFFCURVE",
"404 103 CURVE SMOOTH",
"404 545 LINE SMOOTH",
"404 620 OFFCURVE",
"369 637 OFFCURVE",
"294 637 CURVE SMOOTH",
"160 637 LINE SMOOTH",
"85 637 OFFCURVE",
"50 610 OFFCURVE",
"50 535 CURVE SMOOTH",
"50 347 LINE SMOOTH",
"50 277 OFFCURVE",
"90 251 OFFCURVE",
"165 251 CURVE SMOOTH",
"363 251 LINE",
"363 291 LINE",
"111 291 LINE SMOOTH",
"104 291 OFFCURVE",
"99 295 OFFCURVE",
"99 303 CURVE SMOOTH",
"99 583 LINE SMOOTH",
"99 591 OFFCURVE",
"103 595 OFFCURVE",
"111 595 CURVE SMOOTH",
"342 595 LINE SMOOTH",
"351 595 OFFCURVE",
"355 591 OFFCURVE",
"355 583 CURVE SMOOTH",
"355 52 LINE SMOOTH",
"355 44 OFFCURVE",
"350 40 OFFCURVE",
"343 40 CURVE SMOOTH",
"68 40 LINE",
"68 0 LINE",
"289 -3 LINE SMOOTH"
);
}
);
width = 484;
},
{
layerId = "522BF62C-3FFD-47FE-9DEE-94F66EB24849";
name = "Bold SemiExtended";
paths = (
{
closed = 1;
nodes = (
"406 -8 OFFCURVE",
"471 55 OFFCURVE",
"471 160 CURVE SMOOTH",
"471 474 LINE SMOOTH",
"471 580 OFFCURVE",
"406 640 OFFCURVE",
"286 640 CURVE SMOOTH",
"218 640 LINE SMOOTH",
"98 640 OFFCURVE",
"33 580 OFFCURVE",
"33 475 CURVE SMOOTH",
"33 384 LINE SMOOTH",
"33 269 OFFCURVE",
"84 221 OFFCURVE",
"204 221 CURVE SMOOTH",
"336 221 LINE",
"336 346 LINE",
"197 346 LINE SMOOTH",
"188 346 OFFCURVE",
"183 350 OFFCURVE",
"183 360 CURVE SMOOTH",
"183 492 LINE SMOOTH",
"183 502 OFFCURVE",
"188 506 OFFCURVE",
"197 506 CURVE SMOOTH",
"307 506 LINE SMOOTH",
"316 506 OFFCURVE",
"321 502 OFFCURVE",
"321 492 CURVE SMOOTH",
"321 143 LINE SMOOTH",
"321 133 OFFCURVE",
"316 129 OFFCURVE",
"307 129 CURVE SMOOTH",
"63 129 LINE",
"63 0 LINE",
"286 -5 LINE SMOOTH"
);
}
);
width = 531;
}
);
unicode = 0039;
},
{
color = 3;
glyphname = fraction;
lastChange = "2016-01-15 18:16:33 +0000";
layers = (
{
background = {
paths = (
{
closed = 1;
nodes = (
"346 640 LINE",
"30 -5 LINE",
"74 -5 LINE",
"389 640 LINE"
);
}
);
};
layerId = "15B61E68-7076-43EF-9E3D-3B783472E8B2";
name = "Light SemiExtended";
paths = (
{
closed = 1;
nodes = (
"356 640 LINE",
"20 -5 LINE",
"64 -5 LINE",
"399 640 LINE"
);
}
);
width = 433;
},
{
layerId = "522BF62C-3FFD-47FE-9DEE-94F66EB24849";
name = "Bold SemiExtended";
paths = (
{
closed = 1;
nodes = (
"368 645 LINE",
"2 -10 LINE",
"115 -10 LINE",
"480 645 LINE"
);
}
);
width = 482;
}
);
unicode = 2044;
},
{
color = 3;
glyphname = onesuperior;
lastChange = "2016-01-15 18:16:33 +0000";
layers = (
{
background = {
paths = (
{
closed = 1;
nodes = (
"277 223 LINE",
"46 223 LINE",
"46 191 LINE",
"277 191 LINE"
);
},
{
closed = 1;
nodes = (
"30 553 LINE",
"49 525 LINE",
"158 596 LINE",
"151 598 LINE",
"151 191 LINE",
"191 191 LINE",
"191 635 LINE",
"152 635 LINE"
);
}
);
};
layerId = "15B61E68-7076-43EF-9E3D-3B783472E8B2";
name = "Light SemiExtended";
paths = (
{
closed = 1;
nodes = (
"274 281 LINE",
"44 281 LINE",
"44 249 LINE",
"274 249 LINE"
);
},
{
closed = 1;
nodes = (
"34 556 LINE",
"53 528 LINE",
"157 596 LINE",
"151 599 LINE",
"151 249 LINE",
"191 249 LINE",
"191 635 LINE",
"152 635 LINE"
);
}
);
width = 306;
},
{
layerId = "522BF62C-3FFD-47FE-9DEE-94F66EB24849";
name = "Bold SemiExtended";
paths = (
{
closed = 1;
nodes = (
"313 344 LINE",
"42 344 LINE",
"42 249 LINE",
"313 249 LINE"
);
},
{
closed = 1;
nodes = (
"12 551 LINE",
"59 467 LINE",
"154 521 LINE",
"139 529 LINE",
"139 249 LINE",
"255 249 LINE",
"255 635 LINE",
"148 635 LINE"
);
}
);
width = 333;
}
);
leftMetricsKey = one;
rightMetricsKey = one;
unicode = 00B9;
},
{
color = 3;
glyphname = twosuperior;
lastChange = "2016-01-15 18:16:33 +0000";
layers = (
{
background = {
paths = (
{
closed = 1;
nodes = (
"43 407 OFFCURVE",
"29 402 OFFCURVE",
"29 360 CURVE SMOOTH",
"29 221 LINE",
"278 221 LINE",
"278 254 LINE",
"79 254 LINE SMOOTH",
"73 254 OFFCURVE",
"70 257 OFFCURVE",
"70 262 CURVE SMOOTH",
"70 360 LINE SMOOTH",
"70 376 OFFCURVE",
"71 379 OFFCURVE",
"83 385 CURVE SMOOTH",
"231 456 LINE SMOOTH",
"268 474 OFFCURVE",
"278 485 OFFCURVE",
"278 518 CURVE SMOOTH",
"278 593 LINE SMOOTH",
"278 642 OFFCURVE",
"251 669 OFFCURVE",
"198 668 CURVE SMOOTH",
"41 665 LINE",
"41 632 LINE",
"228 632 LINE SMOOTH",
"233 632 OFFCURVE",
"237 630 OFFCURVE",
"237 624 CURVE SMOOTH",
"237 507 LINE SMOOTH",
"237 500 OFFCURVE",
"234 498 OFFCURVE",
"227 495 CURVE SMOOTH",
"80 425 LINE SMOOTH"
);
}
);
};
guideLines = (
{
position = "{73, 249}";
}
);
layerId = "15B61E68-7076-43EF-9E3D-3B783472E8B2";
name = "Light SemiExtended";
paths = (
{
closed = 1;
nodes = (
"53 411 OFFCURVE",
"41 407 OFFCURVE",
"41 370 CURVE SMOOTH",
"41 249 LINE",
"266 249 LINE",
"266 281 LINE",
"81 281 LINE",
"81 368 LINE SMOOTH",
"81 382 OFFCURVE",
"82 385 OFFCURVE",
"92 390 CURVE SMOOTH",
"225 452 LINE SMOOTH",
"257 467 OFFCURVE",
"266 477 OFFCURVE",
"266 506 CURVE SMOOTH",
"266 573 LINE SMOOTH",
"266 615 OFFCURVE",
"242 639 OFFCURVE",
"196 638 CURVE SMOOTH",
"52 635 LINE",
"52 603 LINE",
"218 603 LINE SMOOTH",
"223 603 OFFCURVE",
"226 601 OFFCURVE",
"226 596 CURVE SMOOTH",
"226 499 LINE SMOOTH",
"226 493 OFFCURVE",
"223 492 OFFCURVE",
"217 489 CURVE SMOOTH",
"86 427 LINE SMOOTH"
);
}
);
width = 312;
},
{
guideLines = (
{
position = "{83, 249}";
}
);
layerId = "522BF62C-3FFD-47FE-9DEE-94F66EB24849";
name = "Bold SemiExtended";
paths = (
{
closed = 1;
nodes = (
"54 438 OFFCURVE",
"33 423 OFFCURVE",
"33 370 CURVE SMOOTH",
"33 249 LINE",
"324 249 LINE",
"324 344 LINE",
"153 344 LINE",
"153 353 LINE SMOOTH",
"153 363 OFFCURVE",
"155 368 OFFCURVE",
"164 372 CURVE SMOOTH",
"265 420 LINE SMOOTH",
"307 440 OFFCURVE",
"328 460 OFFCURVE",
"328 500 CURVE SMOOTH",
"328 544 LINE SMOOTH",
"328 602 OFFCURVE",
"305 640 OFFCURVE",
"231 639 CURVE SMOOTH",
"43 636 LINE",
"43 541 LINE",
"199 541 LINE SMOOTH",
"204 541 OFFCURVE",
"208 538 OFFCURVE",
"208 532 CURVE SMOOTH",
"208 521 LINE SMOOTH",
"208 515 OFFCURVE",
"204 512 OFFCURVE",
"199 509 CURVE SMOOTH",
"90 456 LINE SMOOTH"
);
}
);
width = 356;
}
);
leftMetricsKey = two;
rightMetricsKey = two;
unicode = 00B2;
},
{
color = 3;
glyphname = threesuperior;
lastChange = "2016-01-15 18:16:33 +0000";
layers = (
{
background = {
paths = (
{
closed = 1;
nodes = (
"225 189 OFFCURVE",
"253 215 OFFCURVE",
"253 264 CURVE SMOOTH",
"253 365 LINE SMOOTH",
"253 417 OFFCURVE",
"228 431 OFFCURVE",
"176 430 CURVE",
"169 416 LINE",
"221 416 OFFCURVE",
"249 432 OFFCURVE",
"249 481 CURVE SMOOTH",
"249 566 LINE SMOOTH",
"249 619 OFFCURVE",
"225 639 OFFCURVE",
"172 639 CURVE SMOOTH",
"22 636 LINE",
"22 610 LINE",
"206 610 LINE SMOOTH",
"212 610 OFFCURVE",
"215 607 OFFCURVE",
"215 601 CURVE SMOOTH",
"215 445 LINE SMOOTH",
"215 440 OFFCURVE",
"212 437 OFFCURVE",
"206 437 CURVE SMOOTH",
"58 437 LINE",
"58 409 LINE",
"210 409 LINE SMOOTH",
"215 409 OFFCURVE",
"218 406 OFFCURVE",
"218 401 CURVE SMOOTH",
"218 228 LINE SMOOTH",
"218 223 OFFCURVE",
"215 220 OFFCURVE",
"210 220 CURVE SMOOTH",
"19 220 LINE",
"19 192 LINE",
"172 190 LINE SMOOTH"
);
}
);
};
guideLines = (
{
position = "{87, 191}";
}
);
layerId = "15B61E68-7076-43EF-9E3D-3B783472E8B2";
name = "Light SemiExtended";
paths = (
{
closed = 1;
nodes = (
"228 248 OFFCURVE",
"252 269 OFFCURVE",
"252 312 CURVE SMOOTH",
"252 400 LINE SMOOTH",
"252 445 OFFCURVE",
"230 457 OFFCURVE",
"185 456 CURVE",
"179 444 LINE",
"224 444 OFFCURVE",
"249 458 OFFCURVE",
"249 501 CURVE SMOOTH",
"249 575 LINE SMOOTH",
"249 621 OFFCURVE",
"228 639 OFFCURVE",
"182 638 CURVE SMOOTH",
"28 635 LINE",
"28 603 LINE",
"201 603 LINE SMOOTH",
"206 603 OFFCURVE",
"209 601 OFFCURVE",
"209 596 CURVE SMOOTH",
"209 474 LINE SMOOTH",
"209 470 OFFCURVE",
"206 467 OFFCURVE",
"201 467 CURVE SMOOTH",
"59 467 LINE",
"59 435 LINE",
"205 435 LINE SMOOTH",
"209 435 OFFCURVE",
"212 433 OFFCURVE",
"212 428 CURVE SMOOTH",
"212 288 LINE SMOOTH",
"212 284 OFFCURVE",
"209 281 OFFCURVE",
"205 281 CURVE SMOOTH",
"25 281 LINE",
"25 249 LINE",
"182 248 LINE SMOOTH"
);
}
);
width = 332;
},
{
guideLines = (
{
position = "{88, 191}";
}
);
layerId = "522BF62C-3FFD-47FE-9DEE-94F66EB24849";
name = "Bold SemiExtended";
paths = (
{
closed = 1;
nodes = (
"281 246 OFFCURVE",
"320 282 OFFCURVE",
"320 347 CURVE SMOOTH",
"320 371 LINE SMOOTH",
"320 432 OFFCURVE",
"280 459 OFFCURVE",
"183 459 CURVE",
"183 431 LINE",
"272 431 OFFCURVE",
"318 458 OFFCURVE",
"318 516 CURVE SMOOTH",
"318 538 LINE SMOOTH",
"318 602 OFFCURVE",
"278 640 OFFCURVE",
"205 639 CURVE SMOOTH",
"27 636 LINE",
"27 541 LINE",
"189 541 LINE SMOOTH",
"195 541 OFFCURVE",
"198 538 OFFCURVE",
"198 532 CURVE SMOOTH",
"198 501 LINE SMOOTH",
"198 494 OFFCURVE",
"195 492 OFFCURVE",
"189 492 CURVE SMOOTH",
"64 492 LINE",
"64 401 LINE",
"192 401 LINE SMOOTH",
"198 401 OFFCURVE",
"201 398 OFFCURVE",
"201 392 CURVE SMOOTH",
"201 353 LINE SMOOTH",
"201 347 OFFCURVE",
"198 344 OFFCURVE",
"192 344 CURVE SMOOTH",
"25 344 LINE",
"25 249 LINE",
"208 247 LINE SMOOTH"
);
}
);
width = 370;
}
);
leftMetricsKey = three;
rightMetricsKey = three;
unicode = 00B3;
},
{
color = 3;
glyphname = foursuperior;
lastChange = "2016-01-15 18:16:33 +0000";
layers = (
{
background = {
paths = (
{
closed = 1;
nodes = (
"268 191 LINE",
"268 302 LINE",
"265 298 LINE",
"330 298 LINE",
"330 330 LINE",
"265 330 LINE",
"268 327 LINE",
"268 635 LINE",
"225 635 LINE SMOOTH",
"177 635 OFFCURVE",
"172 623 OFFCURVE",
"151 586 CURVE SMOOTH",
"0 327 LINE",
"0 298 LINE",
"232 298 LINE",
"228 302 LINE",
"228 191 LINE"
);
},
{
closed = 1;
nodes = (
"199 603 LINE SMOOTH",
"201 606 OFFCURVE",
"202 607 OFFCURVE",
"206 607 CURVE SMOOTH",
"228 607 LINE",
"228 327 LINE",
"232 330 LINE",
"37 330 LINE",
"41 327 LINE"
);
}
);
};
guideLines = (
{
position = "{26, 249}";
}
);
layerId = "15B61E68-7076-43EF-9E3D-3B783472E8B2";
name = "Light SemiExtended";
paths = (
{
closed = 1;
nodes = (
"266 249 LINE",
"266 343 LINE",
"263 340 LINE",
"319 340 LINE",
"319 372 LINE",
"263 372 LINE",
"266 369 LINE",
"266 635 LINE",
"217 635 LINE SMOOTH",
"175 635 OFFCURVE",
"171 624 OFFCURVE",
"153 592 CURVE SMOOTH",
"22 367 LINE",
"22 340 LINE",
"229 340 LINE",
"226 343 LINE",
"226 249 LINE"
);
},
{
closed = 1;
nodes = (
"197 599 LINE SMOOTH",
"199 602 OFFCURVE",
"199 603 OFFCURVE",
"203 603 CURVE SMOOTH",
"226 603 LINE",
"226 369 LINE",
"229 372 LINE",
"61 372 LINE",
"64 369 LINE"
);
}
);
width = 364;
},
{
guideLines = (
{
position = "{8, 249}";
}
);
layerId = "522BF62C-3FFD-47FE-9DEE-94F66EB24849";
name = "Bold SemiExtended";
paths = (
{
closed = 1;
nodes = (
"322 249 LINE",
"322 331 LINE",
"316 325 LINE",
"387 325 LINE",
"387 420 LINE",
"316 420 LINE",
"322 414 LINE",
"322 638 LINE",
"202 641 LINE SMOOTH",
"151 642 OFFCURVE",
"136 622 OFFCURVE",
"111 577 CURVE SMOOTH",
"12 400 LINE",
"12 325 LINE",
"212 325 LINE",
"206 331 LINE",
"206 249 LINE"
);
},
{
closed = 1;
nodes = (
"194 536 LINE SMOOTH",
"197 541 OFFCURVE",
"199 543 OFFCURVE",
"205 543 CURVE SMOOTH",
"206 543 LINE",
"206 414 LINE",
"212 420 LINE",
"114 420 LINE",
"122 414 LINE"
);
}
);
width = 407;
}
);
leftMetricsKey = four;
rightMetricsKey = four;
unicode = 2074;
},
{
color = 3;
glyphname = asterisk;
lastChange = "2016-01-15 18:16:33 +0000";
layers = (
{
background = {
paths = (
{
closed = 1;
nodes = (
"193 545 LINE",
"217 618 LINE",
"216 680 LINE",
"130 680 LINE",
"130 617 LINE",
"155 545 LINE"
);
},
{
closed = 1;
nodes = (
"155 545 LINE",
"92 589 LINE",
"34 608 LINE",
"7 526 LINE",
"65 507 LINE",
"142 508 LINE"
);
},
{
closed = 1;
nodes = (
"205 508 LINE",
"282 508 LINE",
"341 528 LINE",
"314 609 LINE",
"256 590 LINE",
"193 545 LINE"
);
},
{
closed = 1;
nodes = (
"174 486 LINE",
"199 412 LINE",
"236 363 LINE",
"304 412 LINE",
"267 461 LINE",
"205 508 LINE"
);
},
{
closed = 1;
nodes = (
"142 508 LINE",
"80 462 LINE",
"44 411 LINE",
"114 361 LINE",
"149 412 LINE",
"174 486 LINE"
);
},
{
closed = 1;
nodes = (
"183 548 LINE",
"191 598 LINE",
"190 651 LINE",
"157 651 LINE",
"157 598 LINE",
"165 548 LINE"
);
}
);
};
layerId = "15B61E68-7076-43EF-9E3D-3B783472E8B2";
name = "Light SemiExtended";
paths = (
{
closed = 1;
nodes = (
"143 446 LINE",
"166 491 LINE",
"151 502 LINE",
"115 466 LINE",
"81 419 LINE",
"109 399 LINE"
);
},
{
closed = 1;
nodes = (
"268 421 LINE",
"234 468 LINE",
"198 503 LINE",
"183 493 LINE",
"206 447 LINE",
"240 400 LINE"
);
},
{
closed = 1;
nodes = (
"252 526 LINE",
"308 544 LINE",
"297 576 LINE",
"242 558 LINE",
"197 535 LINE",
"202 518 LINE"
);
},
{
closed = 1;
nodes = (
"183 545 LINE",
"191 595 LINE",
"191 653 LINE",
"157 653 LINE",
"157 595 LINE",
"165 545 LINE"
);
},
{
closed = 1;
nodes = (
"145 518 LINE",
"151 535 LINE",
"106 558 LINE",
"50 576 LINE",
"40 544 LINE",
"95 526 LINE"
);
}
);
width = 348;
},
{
layerId = "522BF62C-3FFD-47FE-9DEE-94F66EB24849";
name = "Bold SemiExtended";
paths = (
{
closed = 1;
nodes = (
"162 412 LINE",
"187 486 LINE",
"155 508 LINE",
"93 462 LINE",
"57 411 LINE",
"127 361 LINE"
);
},
{
closed = 1;
nodes = (
"317 412 LINE",
"280 461 LINE",
"218 508 LINE",
"187 486 LINE",
"212 412 LINE",
"249 363 LINE"
);
},
{
closed = 1;
nodes = (
"295 508 LINE",
"354 528 LINE",
"327 609 LINE",
"269 590 LINE",
"206 545 LINE",
"218 508 LINE"
);
},
{
closed = 1;
nodes = (
"206 545 LINE",
"230 618 LINE",
"229 680 LINE",
"143 680 LINE",
"143 617 LINE",
"168 545 LINE"
);
},
{
closed = 1;
nodes = (
"155 508 LINE",
"168 545 LINE",
"105 589 LINE",
"47 608 LINE",
"20 526 LINE",
"78 507 LINE"
);
}
);
width = 374;
}
);
unicode = 002A;
},
{
color = 3;
glyphname = backslash;
lastChange = "2016-01-15 18:16:33 +0000";
layers = (
{
background = {
paths = (
{
closed = 1;
nodes = (
"336 -96 LINE",
"384 -96 LINE",
"52 675 LINE",
"5 675 LINE"
);
}
);
};
layerId = "15B61E68-7076-43EF-9E3D-3B783472E8B2";
name = "Light SemiExtended";
paths = (
{
closed = 1;
nodes = (
"316 -96 LINE",
"363 -96 LINE",
"51 675 LINE",
"5 675 LINE"
);
}
);
width = 368;
},
{
layerId = "522BF62C-3FFD-47FE-9DEE-94F66EB24849";
name = "Bold SemiExtended";
paths = (
{
closed = 1;
nodes = (
"311 -96 LINE",
"454 -96 LINE",
"146 675 LINE",
"5 675 LINE"
);
}
);
width = 459;
}
);
unicode = 005C;
},
{
color = 3;
glyphname = periodcentered;
lastChange = "2016-01-15 18:16:33 +0000";
layers = (
{
layerId = "15B61E68-7076-43EF-9E3D-3B783472E8B2";
name = "Light SemiExtended";
paths = (
{
closed = 1;
nodes = (
"119 250 LINE",
"119 337 LINE",
"47 337 LINE",
"47 250 LINE"
);
}
);
width = 166;
},
{
layerId = "522BF62C-3FFD-47FE-9DEE-94F66EB24849";
name = "Bold SemiExtended";
paths = (
{
closed = 1;
nodes = (
"178 202 LINE",
"178 347 LINE",
"48 347 LINE",
"48 202 LINE"
);
}
);
width = 226;
}
);
unicode = 00B7;
},
{
color = 3;
glyphname = bullet;
lastChange = "2016-01-15 18:16:33 +0000";
layers = (
{
layerId = "15B61E68-7076-43EF-9E3D-3B783472E8B2";
name = "Light SemiExtended";
paths = (
{
closed = 1;
nodes = (
"90 259 LINE SMOOTH",
"90 229 OFFCURVE",
"105 214 OFFCURVE",
"140 214 CURVE SMOOTH",
"152 214 LINE SMOOTH",
"187 214 OFFCURVE",
"202 229 OFFCURVE",
"202 259 CURVE SMOOTH",
"202 312 LINE SMOOTH",
"202 343 OFFCURVE",
"187 357 OFFCURVE",
"152 357 CURVE SMOOTH",
"140 357 LINE SMOOTH",
"105 357 OFFCURVE",
"90 343 OFFCURVE",
"90 312 CURVE SMOOTH"
);
}
);
width = 292;
},
{
layerId = "522BF62C-3FFD-47FE-9DEE-94F66EB24849";
name = "Bold SemiExtended";
paths = (
{
closed = 1;
nodes = (
"55 232 LINE SMOOTH",
"55 182 OFFCURVE",
"80 159 OFFCURVE",
"138 159 CURVE SMOOTH",
"158 159 LINE SMOOTH",
"216 159 OFFCURVE",
"241 182 OFFCURVE",
"241 232 CURVE SMOOTH",
"241 319 LINE SMOOTH",
"241 370 OFFCURVE",
"216 392 OFFCURVE",
"158 392 CURVE SMOOTH",
"138 392 LINE SMOOTH",
"80 392 OFFCURVE",
"55 370 OFFCURVE",
"55 319 CURVE SMOOTH"
);
}
);
width = 296;
}
);
unicode = 2022;
},
{
color = 3;
glyphname = colon;
lastChange = "2016-01-15 18:16:33 +0000";
layers = (
{
layerId = "15B61E68-7076-43EF-9E3D-3B783472E8B2";
name = "Light SemiExtended";
paths = (
{
closed = 1;
nodes = (
"135 30 LINE",
"135 117 LINE",
"70 117 LINE",
"70 30 LINE"
);
},
{
closed = 1;
nodes = (
"135 294 LINE",
"135 381 LINE",
"70 381 LINE",
"70 294 LINE"
);
}
);
width = 205;
},
{
layerId = "522BF62C-3FFD-47FE-9DEE-94F66EB24849";
name = "Bold SemiExtended";
paths = (
{
closed = 1;
nodes = (
"170 20 LINE",
"170 155 LINE",
"50 155 LINE",
"50 20 LINE"
);
},
{
closed = 1;
nodes = (
"170 280 LINE",
"170 415 LINE",
"50 415 LINE",
"50 280 LINE"
);
}
);
width = 220;
}
);
unicode = 003A;
},
{
color = 3;
glyphname = comma;
lastChange = "2016-01-15 18:16:33 +0000";
layers = (
{
background = {
paths = (
{
closed = 1;
nodes = (
"45 2 LINE",
"45 87 LINE",
"110 87 LINE",
"110 15 LINE SMOOTH",
"110 -15 OFFCURVE",
"98 -31 OFFCURVE",
"70 -61 CURVE",
"46 -42 LINE",
"60 -19 OFFCURVE",
"67 -7 OFFCURVE",
"67 6 CURVE",
"70 2 LINE"
);
}
);
};
layerId = "15B61E68-7076-43EF-9E3D-3B783472E8B2";
name = "Light SemiExtended";
paths = (
{
closed = 1;
nodes = (
"48 2 LINE",
"48 87 LINE",
"110 87 LINE",
"110 15 LINE SMOOTH",
"110 -15 OFFCURVE",
"97 -54 OFFCURVE",
"69 -84 CURVE",
"48 -68 LINE",
"65 -42 OFFCURVE",
"72 -7 OFFCURVE",
"72 6 CURVE",
"75 2 LINE"
);
}
);
width = 160;
},
{
layerId = "522BF62C-3FFD-47FE-9DEE-94F66EB24849";
name = "Bold SemiExtended";
paths = (
{
closed = 1;
nodes = (
"35 2 LINE",
"35 135 LINE",
"155 135 LINE",
"155 23 LINE SMOOTH",
"155 -35 OFFCURVE",
"126 -83 OFFCURVE",
"79 -128 CURVE",
"37 -94 LINE",
"64 -54 OFFCURVE",
"75 -19 OFFCURVE",
"75 9 CURVE",
"86 2 LINE"
);
}
);
width = 195;
}
);
unicode = 002C;
},
{
color = 3;
glyphname = exclam;
lastChange = "2016-01-15 18:16:33 +0000";
layers = (
{
background = {
paths = (
{
closed = 1;
nodes = (
"130 120 LINE",
"130 650 LINE",
"85 650 LINE",
"85 120 LINE"
);
},
{
closed = 1;
nodes = (
"130 0 LINE",
"130 55 LINE",
"85 55 LINE",
"85 0 LINE"
);
}
);
};
layerId = "15B61E68-7076-43EF-9E3D-3B783472E8B2";
name = "Light SemiExtended";
paths = (
{
closed = 1;
nodes = (
"120 176 LINE",
"132 480 LINE",
"132 645 LINE",
"80 645 LINE",
"80 480 LINE",
"92 176 LINE"
);
},
{
closed = 1;
nodes = (
"131 0 LINE",
"131 65 LINE",
"81 65 LINE",
"81 0 LINE"
);
}
);
width = 197;
},
{
layerId = "522BF62C-3FFD-47FE-9DEE-94F66EB24849";
name = "Bold SemiExtended";
paths = (
{
closed = 1;
nodes = (
"182 216 LINE",
"214 500 LINE",
"214 645 LINE",
"68 645 LINE",
"68 500 LINE",
"100 216 LINE"
);
},
{
closed = 1;
nodes = (
"209 0 LINE",
"209 151 LINE",
"73 151 LINE",
"73 0 LINE"
);
}
);
width = 262;
}
);
unicode = 0021;
},
{
color = 3;
glyphname = numbersign;
lastChange = "2016-01-15 18:16:33 +0000";
layers = (
{
background = {
paths = (
{
closed = 1;
nodes = (
"73 0 LINE",
"203 675 LINE",
"240 675 LINE",
"111 0 LINE"
);
},
{
closed = 1;
nodes = (
"286 0 LINE",
"416 675 LINE",
"453 675 LINE",
"324 0 LINE"
);
},
{
closed = 1;
nodes = (
"66 439 LINE",
"66 477 LINE",
"501 477 LINE",
"501 439 LINE"
);
},
{
closed = 1;
nodes = (
"22 194 LINE",
"22 232 LINE",
"457 232 LINE",
"457 194 LINE"
);
}
);
};
layerId = "15B61E68-7076-43EF-9E3D-3B783472E8B2";
name = "Light SemiExtended";
paths = (
{
closed = 1;
nodes = (
"73 0 LINE",
"196 640 LINE",
"233 640 LINE",
"111 0 LINE"
);
},
{
closed = 1;
nodes = (
"286 0 LINE",
"409 640 LINE",
"446 640 LINE",
"324 0 LINE"
);
},
{
closed = 1;
nodes = (
"65 429 LINE",
"65 467 LINE",
"503 467 LINE",
"503 429 LINE"
);
},
{
closed = 1;
nodes = (
"18 174 LINE",
"18 212 LINE",
"456 212 LINE",
"456 174 LINE"
);
}
);
width = 521;
},
{
layerId = "522BF62C-3FFD-47FE-9DEE-94F66EB24849";
name = "Bold SemiExtended";
paths = (
{
closed = 1;
nodes = (
"53 0 LINE",
"176 640 LINE",
"280 640 LINE",
"158 0 LINE"
);
},
{
closed = 1;
nodes = (
"245 0 LINE",
"368 640 LINE",
"472 640 LINE",
"350 0 LINE"
);
},
{
closed = 1;
nodes = (
"62 389 LINE",
"62 487 LINE",
"512 487 LINE",
"512 389 LINE"
);
},
{
closed = 1;
nodes = (
"15 154 LINE",
"15 252 LINE",
"465 252 LINE",
"465 154 LINE"
);
}
);
width = 527;
}
);
unicode = 0023;
},
{
color = 3;
glyphname = period;
lastChange = "2016-01-15 18:16:33 +0000";
layers = (
{
layerId = "15B61E68-7076-43EF-9E3D-3B783472E8B2";
name = "Light SemiExtended";
paths = (
{
closed = 1;
nodes = (
"125 0 LINE",
"125 87 LINE",
"60 87 LINE",
"60 0 LINE"
);
}
);
width = 185;
},
{
layerId = "522BF62C-3FFD-47FE-9DEE-94F66EB24849";
name = "Bold SemiExtended";
paths = (
{
closed = 1;
nodes = (
"150 0 LINE",
"150 135 LINE",
"30 135 LINE",
"30 0 LINE"
);
}
);
width = 180;
}
);
unicode = 002E;
},
{
color = 3;
glyphname = question;
lastChange = "2016-01-15 18:16:33 +0000";
layers = (
{
background = {
paths = (
{
closed = 0;
nodes = (
"259 405 LINE",
"259 395 OFFCURVE",
"254 395 OFFCURVE",
"246 387 CURVE SMOOTH",
"136 287 LINE SMOOTH",
"94 249 OFFCURVE",
"62 254 OFFCURVE",
"62 194 CURVE SMOOTH",
"62 110 LINE",
"110 110 LINE",
"110 198 LINE SMOOTH",
"110 222 OFFCURVE",
"114 222 OFFCURVE",
"128 235 CURVE SMOOTH",
"239 336 LINE SMOOTH",
"282 375 OFFCURVE",
"307 377 OFFCURVE",
"307 425 CURVE"
);
},
{
closed = 1;
nodes = (
"111 0 LINE",
"111 65 LINE",
"61 65 LINE",
"61 0 LINE"
);
},
{
closed = 0;
nodes = (
"196 506 LINE SMOOTH",
"196 516 OFFCURVE",
"191 520 OFFCURVE",
"182 520 CURVE SMOOTH",
"138 520 LINE SMOOTH",
"129 520 OFFCURVE",
"124 516 OFFCURVE",
"124 506 CURVE",
"126 451 LINE",
"-9 451 LINE",
"-9 490 LINE SMOOTH",
"-9 595 OFFCURVE",
"41 640 OFFCURVE",
"151 640 CURVE SMOOTH",
"169 640 LINE SMOOTH",
"279 640 OFFCURVE",
"329 595 OFFCURVE",
"329 490 CURVE SMOOTH",
"324 424 LINE"
);
}
);
};
layerId = "15B61E68-7076-43EF-9E3D-3B783472E8B2";
name = "Light SemiExtended";
paths = (
{
closed = 1;
nodes = (
"153 140 LINE",
"153 219 LINE SMOOTH",
"153 243 OFFCURVE",
"156 251 OFFCURVE",
"171 266 CURVE SMOOTH",
"231 330 LINE SMOOTH",
"272 374 OFFCURVE",
"300 391 OFFCURVE",
"300 429 CURVE SMOOTH",
"300 540 LINE SMOOTH",
"300 610 OFFCURVE",
"265 635 OFFCURVE",
"195 635 CURVE SMOOTH",
"37 635 LINE",
"37 594 LINE",
"244 594 LINE SMOOTH",
"248 594 OFFCURVE",
"251 592 OFFCURVE",
"251 587 CURVE SMOOTH",
"251 417 LINE SMOOTH",
"251 408 OFFCURVE",
"250 407 OFFCURVE",
"243 400 CURVE SMOOTH",
"162 317 LINE SMOOTH",
"120 273 OFFCURVE",
"105 265 OFFCURVE",
"105 221 CURVE SMOOTH",
"105 140 LINE"
);
},
{
closed = 1;
nodes = (
"154 0 LINE",
"154 65 LINE",
"104 65 LINE",
"104 0 LINE"
);
}
);
width = 362;
},
{
layerId = "522BF62C-3FFD-47FE-9DEE-94F66EB24849";
name = "Bold SemiExtended";
paths = (
{
closed = 1;
nodes = (
"205 193 LINE",
"206 219 LINE SMOOTH",
"207 239 OFFCURVE",
"208 248 OFFCURVE",
"223 264 CURVE SMOOTH",
"299 341 LINE SMOOTH",
"339 382 OFFCURVE",
"343 406 OFFCURVE",
"343 455 CURVE SMOOTH",
"343 490 LINE SMOOTH",
"343 595 OFFCURVE",
"294 640 OFFCURVE",
"183 640 CURVE SMOOTH",
"21 640 LINE",
"21 517 LINE",
"190 517 LINE SMOOTH",
"199 517 OFFCURVE",
"204 513 OFFCURVE",
"204 503 CURVE SMOOTH",
"204 436 LINE SMOOTH",
"204 428 OFFCURVE",
"203 424 OFFCURVE",
"197 417 CURVE SMOOTH",
"103 317 LINE SMOOTH",
"74 286 OFFCURVE",
"71 274 OFFCURVE",
"71 237 CURVE SMOOTH",
"71 193 LINE"
);
},
{
closed = 1;
nodes = (
"206 0 LINE",
"206 151 LINE",
"70 151 LINE",
"70 0 LINE"
);
}
);
width = 376;
}
);
unicode = 003F;
},
{
color = 3;
glyphname = quotedbl;
lastChange = "2016-01-15 18:16:33 +0000";
layers = (
{
layerId = "15B61E68-7076-43EF-9E3D-3B783472E8B2";
name = "Light SemiExtended";
paths = (
{
closed = 1;
nodes = (
"38 506 LINE",
"38 675 LINE",
"88 675 LINE",
"88 603 LINE",
"68 506 LINE"
);
},
{
closed = 1;
nodes = (
"131 506 LINE",
"131 675 LINE",
"181 675 LINE",
"181 603 LINE",
"161 506 LINE"
);
}
);
width = 231;
},
{
layerId = "522BF62C-3FFD-47FE-9DEE-94F66EB24849";
name = "Bold SemiExtended";
paths = (
{
closed = 1;
nodes = (
"35 441 LINE",
"35 691 LINE",
"131 691 LINE",
"131 584 LINE",
"93 441 LINE"
);
},
{
closed = 1;
nodes = (
"177 441 LINE",
"177 691 LINE",
"273 691 LINE",
"273 584 LINE",
"235 441 LINE"
);
}
);
width = 318;
}
);
unicode = 0022;
},
{
color = 3;
glyphname = quotesingle;
lastChange = "2016-01-15 18:16:33 +0000";
layers = (
{
guideLines = (
{
position = "{136, 505}";
}
);
hints = (
{
horizontal = 1;
place = "{52399.000000, 100.000000}";
},
{
place = "{3799.000000, 100.000000}";
}
);
layerId = "15B61E68-7076-43EF-9E3D-3B783472E8B2";
name = "Light SemiExtended";
paths = (
{
closed = 1;
nodes = (
"38 505 LINE",
"38 675 LINE",
"92 675 LINE",
"92 603 LINE",
"68 505 LINE"
);
}
);
width = 141;
},
{
guideLines = (
{
position = "{136, 441}";
}
);
layerId = "522BF62C-3FFD-47FE-9DEE-94F66EB24849";
name = "Bold SemiExtended";
paths = (
{
closed = 1;
nodes = (
"35 441 LINE",
"35 691 LINE",
"135 691 LINE",
"135 584 LINE",
"97 441 LINE"
);
}
);
width = 180;
}
);
unicode = 0027;
},
{
color = 3;
glyphname = semicolon;
lastChange = "2016-01-15 18:16:33 +0000";
layers = (
{
layerId = "15B61E68-7076-43EF-9E3D-3B783472E8B2";
name = "Light SemiExtended";
paths = (
{
closed = 1;
nodes = (
"70 2 LINE",
"70 87 LINE",
"135 87 LINE",
"135 15 LINE SMOOTH",
"135 -15 OFFCURVE",
"122 -51 OFFCURVE",
"94 -81 CURVE",
"72 -62 LINE",
"86 -39 OFFCURVE",
"94 -7 OFFCURVE",
"94 6 CURVE",
"97 2 LINE"
);
},
{
closed = 1;
nodes = (
"135 269 LINE",
"135 356 LINE",
"70 356 LINE",
"70 269 LINE"
);
}
);
width = 210;
},
{
layerId = "522BF62C-3FFD-47FE-9DEE-94F66EB24849";
name = "Bold SemiExtended";
paths = (
{
closed = 1;
nodes = (
"50 2 LINE",
"50 135 LINE",
"170 135 LINE",
"170 23 LINE SMOOTH",
"170 -35 OFFCURVE",
"141 -83 OFFCURVE",
"94 -128 CURVE",
"52 -94 LINE",
"79 -54 OFFCURVE",
"90 -19 OFFCURVE",
"90 9 CURVE",
"101 2 LINE"
);
},
{
closed = 1;
nodes = (
"170 265 LINE",
"170 400 LINE",
"50 400 LINE",
"50 265 LINE"
);
}
);
width = 225;
}
);
unicode = 003B;
},
{
color = 3;
glyphname = slash;
lastChange = "2016-01-15 18:16:33 +0000";
layers = (
{
layerId = "15B61E68-7076-43EF-9E3D-3B783472E8B2";
name = "Light SemiExtended";
paths = (
{
closed = 1;
nodes = (
"342 675 LINE",
"20 -96 LINE",
"64 -96 LINE",
"385 675 LINE"
);
}
);
width = 395;
},
{
layerId = "522BF62C-3FFD-47FE-9DEE-94F66EB24849";
name = "Bold SemiExtended";
paths = (
{
closed = 1;
nodes = (
"318 675 LINE",
"10 -96 LINE",
"149 -96 LINE",
"455 675 LINE"
);
}
);
width = 460;
}
);
unicode = 002F;
},
{
color = 3;
glyphname = underscore;
lastChange = "2016-01-15 18:16:33 +0000";
layers = (
{
background = {
paths = (
{
closed = 1;
nodes = (
"442 -37 LINE",
"20 -37 LINE",
"20 -122 LINE",
"442 -122 LINE"
);
}
);
};
layerId = "15B61E68-7076-43EF-9E3D-3B783472E8B2";
name = "Light SemiExtended";
paths = (
{
closed = 1;
nodes = (
"412 -47 LINE",
"20 -47 LINE",
"20 -83 LINE",
"412 -83 LINE"
);
}
);
width = 432;
},
{
layerId = "522BF62C-3FFD-47FE-9DEE-94F66EB24849";
name = "Bold SemiExtended";
paths = (
{
closed = 1;
nodes = (
"437 -37 LINE",
"20 -37 LINE",
"20 -122 LINE",
"437 -122 LINE"
);
}
);
width = 457;
}
);
unicode = 005F;
},
{
color = 3;
glyphname = braceleft;
lastChange = "2016-01-15 18:16:33 +0000";
layers = (
{
background = {
paths = (
{
closed = 1;
nodes = (
"241 564 LINE SMOOTH",
"241 574 OFFCURVE",
"246 578 OFFCURVE",
"255 578 CURVE SMOOTH",
"321 578 LINE",
"321 680 LINE",
"287 680 LINE SMOOTH",
"162 680 OFFCURVE",
"97 620 OFFCURVE",
"97 510 CURVE SMOOTH",
"97 324 LINE SMOOTH",
"97 314 OFFCURVE",
"92 310 OFFCURVE",
"83 310 CURVE SMOOTH",
"47 310 LINE",
"47 198 LINE",
"83 198 LINE SMOOTH",
"92 198 OFFCURVE",
"97 194 OFFCURVE",
"97 184 CURVE SMOOTH",
"97 0 LINE SMOOTH",
"97 -110 OFFCURVE",
"162 -170 OFFCURVE",
"287 -170 CURVE SMOOTH",
"321 -170 LINE",
"321 -68 LINE",
"255 -68 LINE SMOOTH",
"246 -68 OFFCURVE",
"241 -64 OFFCURVE",
"241 -54 CURVE SMOOTH",
"241 140 LINE SMOOTH",
"241 220 OFFCURVE",
"190 260 OFFCURVE",
"110 260 CURVE",
"110 248 LINE",
"190 248 OFFCURVE",
"241 288 OFFCURVE",
"241 368 CURVE SMOOTH"
);
}
);
};
guideLines = (
{
position = "{274, 255}";
}
);
layerId = "15B61E68-7076-43EF-9E3D-3B783472E8B2";
name = "Light SemiExtended";
paths = (
{
closed = 1;
nodes = (
"146 634 LINE SMOOTH",
"146 639 OFFCURVE",
"149 641 OFFCURVE",
"153 641 CURVE SMOOTH",
"272 641 LINE",
"272 680 LINE",
"202 680 LINE SMOOTH",
"132 680 OFFCURVE",
"97 655 OFFCURVE",
"97 585 CURVE SMOOTH",
"97 289 LINE SMOOTH",
"97 283 OFFCURVE",
"94 280 OFFCURVE",
"88 280 CURVE SMOOTH",
"60 280 LINE",
"60 231 LINE",
"88 231 LINE SMOOTH",
"94 231 OFFCURVE",
"97 228 OFFCURVE",
"97 222 CURVE SMOOTH",
"97 -75 LINE SMOOTH",
"97 -145 OFFCURVE",
"132 -170 OFFCURVE",
"202 -170 CURVE SMOOTH",
"272 -170 LINE",
"272 -131 LINE",
"153 -131 LINE SMOOTH",
"149 -131 OFFCURVE",
"146 -129 OFFCURVE",
"146 -124 CURVE SMOOTH",
"146 185 LINE SMOOTH",
"146 241 OFFCURVE",
"123 258 OFFCURVE",
"78 258 CURVE",
"78 253 LINE",
"123 253 OFFCURVE",
"146 269 OFFCURVE",
"146 326 CURVE SMOOTH"
);
}
);
width = 297;
},
{
guideLines = (
{
position = "{30, 254}";
}
);
layerId = "522BF62C-3FFD-47FE-9DEE-94F66EB24849";
name = "Bold SemiExtended";
paths = (
{
closed = 1;
nodes = (
"234 564 LINE SMOOTH",
"234 574 OFFCURVE",
"239 578 OFFCURVE",
"248 578 CURVE SMOOTH",
"319 578 LINE",
"319 680 LINE",
"280 680 LINE SMOOTH",
"155 680 OFFCURVE",
"90 620 OFFCURVE",
"90 510 CURVE SMOOTH",
"90 324 LINE SMOOTH",
"90 314 OFFCURVE",
"85 310 OFFCURVE",
"76 310 CURVE SMOOTH",
"40 310 LINE",
"40 198 LINE",
"76 198 LINE SMOOTH",
"85 198 OFFCURVE",
"90 194 OFFCURVE",
"90 184 CURVE SMOOTH",
"90 0 LINE SMOOTH",
"90 -110 OFFCURVE",
"155 -170 OFFCURVE",
"280 -170 CURVE SMOOTH",
"319 -170 LINE",
"319 -68 LINE",
"248 -68 LINE SMOOTH",
"239 -68 OFFCURVE",
"234 -64 OFFCURVE",
"234 -54 CURVE SMOOTH",
"234 135 LINE SMOOTH",
"234 215 OFFCURVE",
"183 255 OFFCURVE",
"103 255 CURVE",
"103 253 LINE",
"183 253 OFFCURVE",
"234 293 OFFCURVE",
"234 373 CURVE SMOOTH"
);
}
);
width = 334;
}
);
unicode = 007B;
},
{
color = 3;
glyphname = bracketleft;
lastChange = "2016-01-15 18:16:33 +0000";
layers = (
{
layerId = "15B61E68-7076-43EF-9E3D-3B783472E8B2";
name = "Light SemiExtended";
paths = (
{
closed = 1;
nodes = (
"239 -170 LINE",
"239 -133 LINE",
"118 -133 LINE",
"118 643 LINE",
"239 643 LINE",
"239 680 LINE",
"70 680 LINE",
"70 -170 LINE"
);
}
);
width = 279;
},
{
layerId = "522BF62C-3FFD-47FE-9DEE-94F66EB24849";
name = "Bold SemiExtended";
paths = (
{
closed = 1;
nodes = (
"274 -170 LINE",
"274 -70 LINE",
"192 -70 LINE",
"192 580 LINE",
"274 580 LINE",
"274 680 LINE",
"50 680 LINE",
"50 -170 LINE"
);
}
);
width = 289;
}
);
rightKerningGroup = " ";
unicode = 005B;
},
{
color = 3;
glyphname = parenleft;
lastChange = "2016-01-15 18:16:33 +0000";
layers = (
{
background = {
paths = (
{
closed = 1;
nodes = (
"254 -170 LINE",
"254 -133 LINE",
"118 -133 LINE",
"118 643 LINE",
"254 643 LINE",
"254 680 LINE",
"70 680 LINE",
"70 -170 LINE"
);
}
);
};
layerId = "15B61E68-7076-43EF-9E3D-3B783472E8B2";
name = "Light SemiExtended";
paths = (
{
closed = 1;
nodes = (
"245 -170 LINE",
"245 -131 LINE",
"126 -131 LINE SMOOTH",
"122 -131 OFFCURVE",
"119 -129 OFFCURVE",
"119 -124 CURVE SMOOTH",
"119 634 LINE SMOOTH",
"119 639 OFFCURVE",
"122 641 OFFCURVE",
"126 641 CURVE SMOOTH",
"245 641 LINE",
"245 680 LINE",
"175 680 LINE SMOOTH",
"105 680 OFFCURVE",
"70 655 OFFCURVE",
"70 585 CURVE SMOOTH",
"70 -75 LINE SMOOTH",
"70 -145 OFFCURVE",
"105 -170 OFFCURVE",
"175 -170 CURVE SMOOTH"
);
}
);
width = 270;
},
{
layerId = "522BF62C-3FFD-47FE-9DEE-94F66EB24849";
name = "Bold SemiExtended";
paths = (
{
closed = 1;
nodes = (
"279 -170 LINE",
"279 -65 LINE",
"208 -65 LINE SMOOTH",
"199 -65 OFFCURVE",
"194 -61 OFFCURVE",
"194 -51 CURVE SMOOTH",
"194 561 LINE SMOOTH",
"194 571 OFFCURVE",
"199 575 OFFCURVE",
"208 575 CURVE SMOOTH",
"279 575 LINE",
"279 680 LINE",
"240 680 LINE SMOOTH",
"115 680 OFFCURVE",
"50 620 OFFCURVE",
"50 510 CURVE SMOOTH",
"50 0 LINE SMOOTH",
"50 -110 OFFCURVE",
"115 -170 OFFCURVE",
"240 -170 CURVE SMOOTH"
);
}
);
width = 294;
}
);
unicode = 0028;
},
{
color = 3;
glyphname = emdash;
lastChange = "2016-01-15 18:16:33 +0000";
layers = (
{
layerId = "15B61E68-7076-43EF-9E3D-3B783472E8B2";
name = "Light SemiExtended";
paths = (
{
closed = 1;
nodes = (
"601 300 LINE",
"-1 300 LINE",
"-1 262 LINE",
"601 262 LINE"
);
}
);
width = 600;
},
{
layerId = "522BF62C-3FFD-47FE-9DEE-94F66EB24849";
name = "Bold SemiExtended";
paths = (
{
closed = 1;
nodes = (
"701 349 LINE",
"-1 349 LINE",
"-1 234 LINE",
"701 234 LINE"
);
}
);
width = 700;
}
);
unicode = 2014;
},
{
color = 3;
glyphname = endash;
lastChange = "2016-01-15 18:16:33 +0000";
layers = (
{
layerId = "15B61E68-7076-43EF-9E3D-3B783472E8B2";
name = "Light SemiExtended";
paths = (
{
closed = 1;
nodes = (
"392 300 LINE",
"20 300 LINE",
"20 262 LINE",
"392 262 LINE"
);
}
);
width = 412;
},
{
layerId = "522BF62C-3FFD-47FE-9DEE-94F66EB24849";
name = "Bold SemiExtended";
paths = (
{
closed = 1;
nodes = (
"422 349 LINE",
"20 349 LINE",
"20 234 LINE",
"422 234 LINE"
);
}
);
width = 442;
}
);
unicode = 2013;
},
{
color = 3;
glyphname = hyphen;
lastChange = "2016-01-15 18:16:33 +0000";
layers = (
{
guideLines = (
{
position = "{187, 267}";
}
);
layerId = "15B61E68-7076-43EF-9E3D-3B783472E8B2";
name = "Light SemiExtended";
paths = (
{
closed = 1;
nodes = (
"282 300 LINE",
"35 300 LINE",
"35 262 LINE",
"282 262 LINE"
);
}
);
width = 317;
},
{
layerId = "522BF62C-3FFD-47FE-9DEE-94F66EB24849";
name = "Bold SemiExtended";
paths = (
{
closed = 1;
nodes = (
"302 349 LINE",
"25 349 LINE",
"25 234 LINE",
"302 234 LINE"
);
}
);
width = 327;
}
);
unicode = 002D;
},
{
color = 3;
glyphname = guillemotleft;
lastChange = "2016-01-15 18:16:33 +0000";
layers = (
{
layerId = "15B61E68-7076-43EF-9E3D-3B783472E8B2";
name = "Light SemiExtended";
paths = (
{
closed = 1;
nodes = (
"37 255 OFFCURVE",
"38 251 OFFCURVE",
"46 240 CURVE SMOOTH",
"152 87 LINE",
"197 87 LINE",
"93 247 LINE SMOOTH",
"89 253 OFFCURVE",
"89 256 OFFCURVE",
"93 263 CURVE SMOOTH",
"201 422 LINE",
"157 422 LINE",
"46 267 LINE SMOOTH"
);
},
{
closed = 1;
nodes = (
"159 255 OFFCURVE",
"160 251 OFFCURVE",
"167 240 CURVE SMOOTH",
"270 87 LINE",
"317 87 LINE",
"214 247 LINE SMOOTH",
"210 253 OFFCURVE",
"210 256 OFFCURVE",
"214 263 CURVE SMOOTH",
"321 422 LINE",
"275 422 LINE",
"167 267 LINE SMOOTH"
);
}
);
width = 346;
},
{
layerId = "522BF62C-3FFD-47FE-9DEE-94F66EB24849";
name = "Bold SemiExtended";
paths = (
{
closed = 1;
nodes = (
"28 255 OFFCURVE",
"29 251 OFFCURVE",
"36 240 CURVE SMOOTH",
"133 77 LINE",
"245 77 LINE",
"161 247 LINE SMOOTH",
"158 253 OFFCURVE",
"157 256 OFFCURVE",
"161 263 CURVE SMOOTH",
"248 432 LINE",
"141 432 LINE",
"36 267 LINE SMOOTH"
);
},
{
closed = 1;
nodes = (
"226 255 OFFCURVE",
"227 251 OFFCURVE",
"234 240 CURVE SMOOTH",
"328 77 LINE",
"443 77 LINE",
"359 247 LINE SMOOTH",
"356 253 OFFCURVE",
"355 256 OFFCURVE",
"359 263 CURVE SMOOTH",
"446 432 LINE",
"336 432 LINE",
"234 267 LINE SMOOTH"
);
}
);
width = 470;
}
);
unicode = 00AB;
},
{
color = 3;
glyphname = guilsinglleft;
lastChange = "2016-01-15 18:16:33 +0000";
layers = (
{
background = {
paths = (
{
closed = 1;
nodes = (
"224 412 LINE",
"198 437 LINE",
"47 263 LINE",
"195 90 LINE",
"222 116 LINE",
"93 264 LINE"
);
}
);
};
layerId = "15B61E68-7076-43EF-9E3D-3B783472E8B2";
name = "Light SemiExtended";
paths = (
{
closed = 1;
nodes = (
"37 255 OFFCURVE",
"38 251 OFFCURVE",
"46 240 CURVE SMOOTH",
"152 87 LINE",
"199 87 LINE",
"94 247 LINE SMOOTH",
"90 253 OFFCURVE",
"89 256 OFFCURVE",
"94 263 CURVE SMOOTH",
"203 422 LINE",
"157 422 LINE",
"46 267 LINE SMOOTH"
);
}
);
width = 227;
},
{
layerId = "522BF62C-3FFD-47FE-9DEE-94F66EB24849";
name = "Bold SemiExtended";
paths = (
{
closed = 1;
nodes = (
"26 255 OFFCURVE",
"27 251 OFFCURVE",
"34 240 CURVE SMOOTH",
"131 77 LINE",
"261 77 LINE",
"177 247 LINE SMOOTH",
"174 253 OFFCURVE",
"173 256 OFFCURVE",
"177 263 CURVE SMOOTH",
"264 432 LINE",
"139 432 LINE",
"34 267 LINE SMOOTH"
);
}
);
width = 288;
}
);
unicode = 2039;
},
{
color = 3;
glyphname = guilsinglright;
lastChange = "2016-01-15 18:16:33 +0000";
layers = (
{
background = {
paths = (
{
closed = 1;
nodes = (
"41 115 LINE",
"67 90 LINE",
"218 264 LINE",
"70 437 LINE",
"43 411 LINE",
"172 263 LINE"
);
}
);
};
components = (
{
disableAlignment = 1;
name = guilsinglleft;
transform = "{-1, 0, 0, -1, 228, 509}";
}
);
layerId = "15B61E68-7076-43EF-9E3D-3B783472E8B2";
name = "Light SemiExtended";
width = 228;
},
{
components = (
{
disableAlignment = 1;
name = guilsinglleft;
transform = "{-1, 0, 0, -1, 288, 509}";
}
);
layerId = "522BF62C-3FFD-47FE-9DEE-94F66EB24849";
name = "Bold SemiExtended";
width = 288;
}
);
unicode = 203A;
},
{
color = 3;
glyphname = Euro;
lastChange = "2016-01-15 18:16:33 +0000";
layers = (
{
guideLines = (
{
position = "{75, 600}";
}
);
layerId = "15B61E68-7076-43EF-9E3D-3B783472E8B2";
name = "Light SemiExtended";
paths = (
{
closed = 1;
nodes = (
"427 559 LINE",
"427 600 LINE",
"205 600 LINE SMOOTH",
"135 600 OFFCURVE",
"107 580 OFFCURVE",
"107 510 CURVE SMOOTH",
"107 364 LINE",
"117 374 LINE",
"42 374 LINE",
"42 338 LINE",
"117 338 LINE",
"107 348 LINE",
"107 258 LINE",
"117 268 LINE",
"42 268 LINE",
"42 232 LINE",
"117 232 LINE",
"107 242 LINE",
"107 90 LINE SMOOTH",
"107 20 OFFCURVE",
"135 0 OFFCURVE",
"205 0 CURVE SMOOTH",
"427 0 LINE",
"427 41 LINE",
"161 41 LINE SMOOTH",
"157 41 OFFCURVE",
"154 43 OFFCURVE",
"154 48 CURVE SMOOTH",
"154 242 LINE",
"144 232 LINE",
"312 232 LINE",
"312 268 LINE",
"144 268 LINE",
"154 254 LINE",
"154 348 LINE",
"144 338 LINE",
"312 338 LINE",
"312 374 LINE",
"144 374 LINE",
"154 360 LINE",
"154 552 LINE SMOOTH",
"154 557 OFFCURVE",
"157 559 OFFCURVE",
"161 559 CURVE SMOOTH"
);
}
);
width = 462;
},
{
guideLines = (
{
position = "{75, 600}";
}
);
layerId = "522BF62C-3FFD-47FE-9DEE-94F66EB24849";
name = "Bold SemiExtended";
paths = (
{
closed = 1;
nodes = (
"452 467 LINE",
"452 600 LINE",
"260 600 LINE SMOOTH",
"140 600 OFFCURVE",
"80 545 OFFCURVE",
"80 440 CURVE SMOOTH",
"80 383 LINE",
"100 403 LINE",
"30 403 LINE",
"30 323 LINE",
"100 323 LINE",
"80 343 LINE",
"80 263 LINE",
"100 283 LINE",
"30 283 LINE",
"30 203 LINE",
"100 203 LINE",
"80 223 LINE",
"80 160 LINE SMOOTH",
"80 55 OFFCURVE",
"140 0 OFFCURVE",
"260 0 CURVE SMOOTH",
"452 0 LINE",
"452 133 LINE",
"244 133 LINE SMOOTH",
"235 133 OFFCURVE",
"230 137 OFFCURVE",
"230 147 CURVE SMOOTH",
"230 223 LINE",
"210 203 LINE",
"353 203 LINE",
"353 283 LINE",
"210 283 LINE",
"230 263 LINE",
"230 343 LINE",
"210 323 LINE",
"353 323 LINE",
"353 403 LINE",
"210 403 LINE",
"230 383 LINE",
"230 453 LINE SMOOTH",
"230 463 OFFCURVE",
"235 467 OFFCURVE",
"244 467 CURVE SMOOTH"
);
}
);
width = 477;
}
);
unicode = 20AC;
},
{
color = 3;
glyphname = cent;
lastChange = "2016-01-15 18:16:33 +0000";
layers = (
{
layerId = "15B61E68-7076-43EF-9E3D-3B783472E8B2";
name = "Light SemiExtended";
paths = (
{
closed = 1;
nodes = (
"311 60 LINE",
"311 97 LINE",
"103 97 LINE SMOOTH",
"99 97 OFFCURVE",
"96 99 OFFCURVE",
"96 104 CURVE SMOOTH",
"96 506 LINE SMOOTH",
"96 511 OFFCURVE",
"99 513 OFFCURVE",
"103 513 CURVE SMOOTH",
"311 513 LINE",
"311 550 LINE",
"150 550 LINE SMOOTH",
"80 550 OFFCURVE",
"50 530 OFFCURVE",
"50 460 CURVE SMOOTH",
"50 150 LINE SMOOTH",
"50 80 OFFCURVE",
"80 60 OFFCURVE",
"150 60 CURVE SMOOTH"
);
},
{
closed = 1;
nodes = (
"169 540 LINE",
"212 540 LINE",
"212 625 LINE",
"169 625 LINE"
);
},
{
closed = 1;
nodes = (
"169 -15 LINE",
"212 -15 LINE",
"212 70 LINE",
"169 70 LINE"
);
}
);
width = 329;
},
{
layerId = "522BF62C-3FFD-47FE-9DEE-94F66EB24849";
name = "Bold SemiExtended";
paths = (
{
closed = 1;
nodes = (
"351 70 LINE",
"351 190 LINE",
"187 190 LINE SMOOTH",
"178 190 OFFCURVE",
"173 194 OFFCURVE",
"173 204 CURVE SMOOTH",
"173 436 LINE SMOOTH",
"173 446 OFFCURVE",
"178 450 OFFCURVE",
"187 450 CURVE SMOOTH",
"351 450 LINE",
"351 570 LINE",
"200 570 LINE SMOOTH",
"80 570 OFFCURVE",
"30 525 OFFCURVE",
"30 420 CURVE SMOOTH",
"30 220 LINE SMOOTH",
"30 115 OFFCURVE",
"80 70 OFFCURVE",
"200 70 CURVE SMOOTH"
);
},
{
closed = 1;
nodes = (
"155 549 LINE",
"263 549 LINE",
"263 669 LINE",
"155 669 LINE"
);
},
{
closed = 1;
nodes = (
"155 -25 LINE",
"263 -25 LINE",
"263 95 LINE",
"155 95 LINE"
);
}
);
width = 376;
}
);
unicode = 00A2;
},
{
color = 3;
glyphname = currency;
lastChange = "2016-01-15 18:16:33 +0000";
layers = (
{
background = {
paths = (
{
closed = 1;
nodes = (
"386 441 LINE SMOOTH",
"390 441 OFFCURVE",
"393 439 OFFCURVE",
"393 434 CURVE SMOOTH",
"393 177 LINE SMOOTH",
"393 172 OFFCURVE",
"390 170 OFFCURVE",
"386 170 CURVE SMOOTH",
"184 170 LINE SMOOTH",
"180 170 OFFCURVE",
"177 172 OFFCURVE",
"177 177 CURVE SMOOTH",
"177 434 LINE SMOOTH",
"177 439 OFFCURVE",
"180 441 OFFCURVE",
"184 441 CURVE SMOOTH"
);
},
{
closed = 1;
nodes = (
"131 218 LINE SMOOTH",
"131 148 OFFCURVE",
"161 131 OFFCURVE",
"228 131 CURVE SMOOTH",
"342 131 LINE SMOOTH",
"409 131 OFFCURVE",
"439 148 OFFCURVE",
"439 218 CURVE SMOOTH",
"439 393 LINE SMOOTH",
"439 463 OFFCURVE",
"409 480 OFFCURVE",
"342 480 CURVE SMOOTH",
"228 480 LINE SMOOTH",
"161 480 OFFCURVE",
"131 463 OFFCURVE",
"131 393 CURVE SMOOTH"
);
},
{
closed = 1;
nodes = (
"261 493 LINE",
"302 493 LINE",
"302 613 LINE",
"261 613 LINE"
);
},
{
closed = 1;
nodes = (
"261 -2 LINE",
"302 -2 LINE",
"302 118 LINE",
"261 118 LINE"
);
},
{
closed = 1;
nodes = (
"469 326 LINE",
"469 285 LINE",
"589 285 LINE",
"589 326 LINE"
);
},
{
closed = 1;
nodes = (
"-21 326 LINE",
"-21 285 LINE",
"94 285 LINE",
"94 326 LINE"
);
}
);
};
guideLines = (
{
position = "{171, 550}";
},
{
position = "{171, 60}";
}
);
layerId = "15B61E68-7076-43EF-9E3D-3B783472E8B2";
name = "Light SemiExtended";
paths = (
{
closed = 1;
nodes = (
"386 441 LINE SMOOTH",
"390 441 OFFCURVE",
"393 439 OFFCURVE",
"393 434 CURVE SMOOTH",
"393 177 LINE SMOOTH",
"393 172 OFFCURVE",
"390 170 OFFCURVE",
"386 170 CURVE SMOOTH",
"184 170 LINE SMOOTH",
"180 170 OFFCURVE",
"177 172 OFFCURVE",
"177 177 CURVE SMOOTH",
"177 434 LINE SMOOTH",
"177 439 OFFCURVE",
"180 441 OFFCURVE",
"184 441 CURVE SMOOTH"
);
},
{
closed = 1;
nodes = (
"131 218 LINE SMOOTH",
"131 148 OFFCURVE",
"161 131 OFFCURVE",
"228 131 CURVE SMOOTH",
"342 131 LINE SMOOTH",
"409 131 OFFCURVE",
"439 148 OFFCURVE",
"439 218 CURVE SMOOTH",
"439 393 LINE SMOOTH",
"439 463 OFFCURVE",
"409 480 OFFCURVE",
"342 480 CURVE SMOOTH",
"228 480 LINE SMOOTH",
"161 480 OFFCURVE",
"131 463 OFFCURVE",
"131 393 CURVE SMOOTH"
);
},
{
closed = 1;
nodes = (
"395 468 LINE",
"424 439 LINE",
"509 524 LINE",
"480 553 LINE"
);
},
{
closed = 1;
nodes = (
"55 89 LINE",
"84 60 LINE",
"169 145 LINE",
"140 174 LINE"
);
},
{
closed = 1;
nodes = (
"424 174 LINE",
"395 145 LINE",
"480 60 LINE",
"509 89 LINE"
);
},
{
closed = 1;
nodes = (
"88 550 LINE",
"59 521 LINE",
"140 439 LINE",
"169 468 LINE"
);
}
);
width = 564;
},
{
guideLines = (
{
position = "{173, 570}";
},
{
position = "{173, 70}";
}
);
layerId = "522BF62C-3FFD-47FE-9DEE-94F66EB24849";
name = "Bold SemiExtended";
paths = (
{
closed = 1;
nodes = (
"358 415 LINE SMOOTH",
"367 415 OFFCURVE",
"372 411 OFFCURVE",
"372 401 CURVE SMOOTH",
"372 241 LINE SMOOTH",
"372 231 OFFCURVE",
"367 227 OFFCURVE",
"358 227 CURVE SMOOTH",
"260 227 LINE SMOOTH",
"251 227 OFFCURVE",
"246 231 OFFCURVE",
"246 241 CURVE SMOOTH",
"246 401 LINE SMOOTH",
"246 411 OFFCURVE",
"251 415 OFFCURVE",
"260 415 CURVE SMOOTH"
);
},
{
closed = 1;
nodes = (
"107 262 LINE SMOOTH",
"107 162 OFFCURVE",
"167 107 OFFCURVE",
"282 107 CURVE SMOOTH",
"336 107 LINE SMOOTH",
"451 107 OFFCURVE",
"511 162 OFFCURVE",
"511 262 CURVE SMOOTH",
"511 380 LINE SMOOTH",
"511 480 OFFCURVE",
"451 535 OFFCURVE",
"336 535 CURVE SMOOTH",
"282 535 LINE SMOOTH",
"167 535 OFFCURVE",
"107 480 OFFCURVE",
"107 380 CURVE SMOOTH"
);
},
{
closed = 1;
nodes = (
"421 506 LINE",
"494 433 LINE",
"593 532 LINE",
"520 605 LINE"
);
},
{
closed = 1;
nodes = (
"25 110 LINE",
"98 37 LINE",
"197 136 LINE",
"124 209 LINE"
);
},
{
closed = 1;
nodes = (
"494 209 LINE",
"421 136 LINE",
"520 37 LINE",
"593 110 LINE"
);
},
{
closed = 1;
nodes = (
"98 605 LINE",
"25 532 LINE",
"124 433 LINE",
"197 506 LINE"
);
}
);
width = 618;
}
);
unicode = 00A4;
},
